<svg width="38" height="35" viewBox="0 0 38 35" fill="none" xmlns="http://www.w3.org/2000/svg">
<path d="M6.59863 7.48047H16.5186C20.6253 7.48047 23.7986 8.28047 26.0386 9.88047C28.3053 11.4805 29.4386 13.7205 29.4386 16.6005C29.4386 18.4138 28.8786 20.0005 27.7586 21.3605C26.6653 22.7205 25.1586 23.7738 23.2386 24.5205C21.3453 25.2405 19.2386 25.6005 16.9186 25.6005H15.2386V35.0005H6.59863V7.48047ZM16.9586 20.0405C18.372 20.0405 19.4653 19.7471 20.2386 19.1605C21.012 18.5738 21.3986 17.7205 21.3986 16.6005C21.3986 15.4805 21.012 14.6405 20.2386 14.0805C19.492 13.5205 18.3986 13.2405 16.9586 13.2405H15.2386V19.9605C15.772 20.0138 16.3453 20.0405 16.9586 20.0405Z" fill="#387E4B"/>
<path d="M30.3965 12.173C29.7296 10.9386 27.525 9.90204 26.506 9.53808C25.8833 9.28525 25.2091 8.73009 24.9498 8.48412C23.7387 6.94374 24.4899 5.00245 25.0169 4.22435C28.288 1.33615 32.0255 2.85243 33.4853 3.97159C36.0944 6.08302 36.0216 9.06827 35.6591 10.297C34.3711 14.3717 31.614 13.2454 30.3965 12.173Z" fill="black"/>
<path d="M7.60154 12.173C8.26842 10.9386 10.4731 9.90204 11.492 9.53808C12.1148 9.28525 12.789 8.73009 13.0482 8.48412C14.2593 6.94374 13.5082 5.00245 12.9812 4.22435C9.71008 1.33615 5.9726 2.85243 4.51274 3.97159C1.90369 6.08302 1.97642 9.06827 2.33891 10.297C3.62696 14.3717 6.38402 13.2454 7.60154 12.173Z" fill="black"/>
</svg>
