<svg 
  width="current" height="current" viewBox="0 0 24 24" fill="none" xmlns="http://www.w3.org/2000/svg">
  <path d="M17.5725 20.9956C17.4217 20.9994 17.2725 20.9637 17.1397 20.892L12.3406 18.3702L7.54158 20.892C7.39201 20.9635 7.22621 20.9942 7.06097 20.9809C6.89573 20.9677 6.73691 20.9111 6.6006 20.8168C6.45461 20.7122 6.34159 20.568 6.2749 20.4013C6.2082 20.2345 6.19061 20.0522 6.2242 19.8758L7.16519 14.5404L3.28832 10.7764C3.16147 10.6543 3.07144 10.499 3.02846 10.3282C2.98548 10.1575 2.99128 9.97808 3.04519 9.81044C3.09911 9.64281 3.19899 9.49367 3.33346 9.37998C3.46793 9.26629 3.6316 9.19262 3.80587 9.16733L9.16949 8.39572L11.569 3.53083C11.6461 3.37173 11.7664 3.23755 11.9162 3.14367C12.0659 3.04979 12.2391 3 12.4159 3C12.5927 3 12.7659 3.04979 12.9156 3.14367C13.0654 3.23755 13.1857 3.37173 13.2628 3.53083L15.6529 8.39572L21.0165 9.16733C21.1916 9.19116 21.3564 9.26378 21.4921 9.37688C21.6278 9.48998 21.7289 9.63897 21.7839 9.80685C21.8389 9.97473 21.8455 10.1547 21.8029 10.3262C21.7604 10.4976 21.6705 10.6537 21.5435 10.7764L17.6572 14.5404L18.5982 19.8758C18.6318 20.0522 18.6142 20.2345 18.5475 20.4013C18.4808 20.568 18.3678 20.7122 18.2218 20.8168C18.0348 20.9544 17.8036 21.0181 17.5725 20.9956ZM12.3406 16.3659C12.4911 16.3653 12.6395 16.4008 12.7735 16.4694L16.321 18.3514L15.6435 14.3992C15.6172 14.248 15.6283 14.0926 15.6759 13.9466C15.7235 13.8006 15.806 13.6685 15.9164 13.5617L18.7393 10.7388L14.8248 10.193C14.6724 10.1718 14.5275 10.1135 14.4028 10.0233C14.2781 9.93306 14.1775 9.81365 14.1097 9.67547L12.3406 6.0809L10.5622 9.67547C10.4952 9.81246 10.3961 9.93113 10.2731 10.0213C10.1502 10.1114 10.0072 10.1704 9.85642 10.193L5.89486 10.767L8.76487 13.59C8.87355 13.6976 8.95435 13.8302 9.00027 13.9761C9.04618 14.122 9.05581 14.277 9.02835 14.4274L8.35083 18.3796L11.8984 16.4976C12.0342 16.4216 12.1853 16.3766 12.3406 16.3659Z" 
  fill="current"/>
</svg>
