<svg 
  width="current" 
  height="current" 
  viewBox="0 0 40 40" 
  fill="none" 
  xmlns="http://www.w3.org/2000/svg">
  <path d="M26.9286 31C26.7745 30.9988 26.6243 30.9523 26.4964 30.8664L19.8571 26.4429L13.2179 30.8664C13.0997 30.9443 12.9627 30.9887 12.8213 30.9951C12.68 31.0016 12.5395 30.9697 12.4148 30.9029C12.2901 30.8361 12.1857 30.7369 12.1127 30.6157C12.0397 30.4944 12.0007 30.3558 12 30.2143V9.78571C12 9.57733 12.0828 9.37748 12.2301 9.23013C12.3775 9.08278 12.5773 9 12.7857 9H26.9286C27.137 9 27.3368 9.08278 27.4842 9.23013C27.6315 9.37748 27.7143 9.57733 27.7143 9.78571V30.2143C27.7139 30.3564 27.675 30.4958 27.6016 30.6176C27.5283 30.7393 27.4233 30.8389 27.2979 30.9057C27.1844 30.967 27.0575 30.9994 26.9286 31ZM19.8571 24.7143C20.0112 24.7155 20.1614 24.7619 20.2893 24.8479L26.1429 28.7764V10.5714H13.5714V28.745L19.425 24.8164C19.5562 24.7415 19.7063 24.7061 19.8571 24.7143Z" 
  fill="current"/>
</svg>
