<svg width="current" height="current" viewBox="0 0 24 24" fill="current" xmlns="http://www.w3.org/2000/svg">
<path d="M20 3H4C3.73478 3 3.48043 3.10537 3.29289 3.29291C3.10536 3.48044 3 3.73478 3 4V20C3 20.2652 3.10536 20.5196 3.29289 20.7071C3.48043 20.8946 3.73478 21 4 21H20C20.2652 21 20.5196 20.8946 20.7071 20.7071C20.8946 20.5196 21 20.2652 21 20V4C21 3.73478 20.8946 3.48044 20.7071 3.29291C20.5196 3.10537 20.2652 3 20 3ZM19 19H5V5H19V19Z" fill="current"/>
<path d="M8.72139 10.4741C8.33891 10.0757 7.70588 10.0628 7.30747 10.4453C6.90906 10.8278 6.89614 11.4608 7.27861 11.8592L8.72139 10.4741ZM11.2 14.5L10.4786 15.1925C10.6672 15.389 10.9277 15.5 11.2 15.5C11.4723 15.5 11.7328 15.389 11.9214 15.1925L11.2 14.5ZM16.7214 10.1925C17.1039 9.79412 17.0909 9.16109 16.6925 8.77861C16.2941 8.39614 15.6611 8.40906 15.2786 8.80747L16.7214 10.1925ZM7.27861 11.8592L10.4786 15.1925L11.9214 13.8075L8.72139 10.4741L7.27861 11.8592ZM11.9214 15.1925L16.7214 10.1925L15.2786 8.80747L10.4786 13.8075L11.9214 15.1925Z" fill="current"/>
</svg>
