<svg width="current" height="current" viewBox="0 0 24 24" fill="none" xmlns="http://www.w3.org/2000/svg">
<path d="M16.7036 13.3036L19.5236 10.4735C20.4344 9.53054 20.9383 8.26753 20.9269 6.95655C20.9155 5.64556 20.3897 4.39149 19.4627 3.46445C18.5356 2.53741 17.2816 2.01158 15.9706 2.00019C14.6596 1.9888 13.3966 2.49275 12.4536 3.40354L9.62356 6.23356C9.08229 6.78225 8.67521 7.44863 8.43409 8.18067C8.19296 8.91271 8.12432 9.6906 8.23356 10.4536L5.40357 13.2835C4.49278 14.2266 3.9888 15.4896 4.00019 16.8006C4.01158 18.1116 4.53743 19.3656 5.46447 20.2926C6.39151 21.2197 7.64558 21.7455 8.95656 21.7569C10.2675 21.7683 11.5306 21.2643 12.4736 20.3536L15.3036 17.5236C15.8466 16.9758 16.2556 16.3098 16.4984 15.5777C16.7413 14.8456 16.8115 14.0673 16.7036 13.3036ZM11.0636 7.63355L13.9436 4.82355C14.5123 4.29363 15.2644 4.00515 16.0416 4.01887C16.8189 4.03258 17.5604 4.34742 18.1101 4.89707C18.6597 5.44672 18.9745 6.18826 18.9883 6.96546C19.002 7.74266 18.7135 8.49484 18.1836 9.06354L15.9936 11.2636C15.8086 10.9815 15.594 10.72 15.3536 10.4836C14.7004 9.83685 13.8817 9.3827 12.9872 9.171C12.0928 8.9593 11.1573 8.99824 10.2836 9.28354C10.3659 8.66589 10.6385 8.0892 11.0636 7.63355ZM14.3636 12.5136C13.8125 12.7486 13.2036 12.8132 12.6155 12.6992C12.0274 12.5851 11.4868 12.2975 11.0636 11.8735C10.881 11.6841 10.7231 11.4725 10.5936 11.2436C11.1437 11.0073 11.7519 10.941 12.34 11.0533C12.9281 11.1656 13.4692 11.4512 13.8936 11.8735C14.0785 12.0646 14.2367 12.2799 14.3636 12.5136ZM11.0636 18.9435C10.4949 19.4735 9.74268 19.762 8.96548 19.7483C8.18827 19.7346 7.44672 19.4197 6.89707 18.87C6.34742 18.3204 6.03258 17.5788 6.01887 16.8016C6.00515 16.0244 6.29365 15.2723 6.82357 14.7036L9.01357 12.5136C9.20013 12.7916 9.41094 13.0527 9.64356 13.2936C10.2976 13.9421 11.1181 14.3973 12.0145 14.6091C12.911 14.8208 13.8484 14.7809 14.7236 14.4936C14.6233 15.1101 14.3332 15.6799 13.8936 16.1235L11.0636 18.9435Z" 
fill="current"/>
</svg>
