<svg width="current" height="current" viewBox="0 0 24 24" fill="none" xmlns="http://www.w3.org/2000/svg">
<path d="M12.0268 12C10.8386 12 9.67722 11.6481 8.68934 10.9888C7.70146 10.3295 6.93148 9.39246 6.47681 8.29611C6.02214 7.19975 5.90317 5.99335 6.13496 4.82946C6.36675 3.66558 6.9389 2.59647 7.77902 1.75736C8.61915 0.918242 9.68952 0.346804 10.8548 0.115293C12.0201 -0.116218 13.2279 0.00259367 14.3256 0.456719C15.4233 0.910845 16.3615 1.67989 17.0216 2.66658C17.6816 3.65328 18.034 4.81331 18.034 6C18.034 7.5913 17.4011 9.11743 16.2745 10.2426C15.1479 11.3679 13.62 12 12.0268 12ZM12.0268 1.71429C11.1781 1.71429 10.3485 1.96564 9.64287 2.43656C8.93724 2.90748 8.38729 3.57681 8.06252 4.35993C7.73776 5.14304 7.65277 6.00475 7.81833 6.8361C7.9839 7.66745 8.39258 8.4311 8.99266 9.03046C9.59275 9.62983 10.3573 10.038 11.1896 10.2034C12.022 10.3687 12.8847 10.2839 13.6688 9.95949C14.4529 9.63511 15.123 9.0858 15.5945 8.38101C16.066 7.67623 16.3176 6.84764 16.3176 6C16.3176 4.86336 15.8655 3.77327 15.0608 2.96954C14.2561 2.16581 13.1648 1.71429 12.0268 1.71429Z" 
fill="current"/>
<path d="M23.1833 24.0006H0.870772C0.657287 24.0016 0.451064 23.9232 0.29238 23.7805C0.133696 23.6379 0.0339449 23.4413 0.0125988 23.2291C-0.109438 20.9981 0.658961 18.8096 2.14944 17.1434C4.20047 14.872 7.51302 13.7148 11.9927 13.7148C16.4723 13.7148 19.7935 14.872 21.8531 17.1434C23.3314 18.8168 24.098 21.0001 23.9899 23.2291C23.9698 23.4327 23.8774 23.6224 23.7294 23.7638C23.5815 23.9053 23.3878 23.9893 23.1833 24.0006ZM1.72894 22.2863H22.3251C22.2092 20.7973 21.606 19.3877 20.6087 18.2748C18.8924 16.3891 16.0004 15.4291 12.027 15.4291C8.05368 15.4291 5.16163 16.3977 3.44529 18.3006C2.45152 19.4055 1.84852 20.8058 1.72894 22.2863Z" 
fill="current"/>
</svg>
