<svg width="28" height="28" viewBox="0 0 28 28" fill="none" xmlns="http://www.w3.org/2000/svg">
<path d="M27.7044 26.2852L21.1483 19.7391C23.147 17.3769 24.1552 14.3335 23.9623 11.2451C23.7694 8.15679 22.3902 5.26254 20.1131 3.16736C17.836 1.07219 14.8372 -0.0617475 11.7435 0.00259587C8.64976 0.0669392 5.70067 1.32458 3.51262 3.51262C1.32458 5.70067 0.0669392 8.64976 0.00259587 11.7435C-0.0617475 14.8372 1.07219 17.836 3.16736 20.1131C5.26254 22.3902 8.15679 23.7694 11.2451 23.9623C14.3335 24.1552 17.3769 23.147 19.7391 21.1483L26.2852 27.7044C26.3781 27.798 26.4887 27.8724 26.6105 27.9231C26.7322 27.9739 26.8629 28 26.9948 28C27.1267 28 27.2574 27.9739 27.3791 27.9231C27.5009 27.8724 27.6115 27.798 27.7044 27.7044C27.798 27.6115 27.8724 27.5009 27.9231 27.3791C27.9739 27.2574 28 27.1267 28 26.9948C28 26.8629 27.9739 26.7322 27.9231 26.6105C27.8724 26.4887 27.798 26.3781 27.7044 26.2852ZM2.00975 12.0038C2.00975 10.0271 2.59588 8.0949 3.69404 6.45139C4.7922 4.80788 6.35305 3.52692 8.17922 2.77049C10.0054 2.01407 12.0149 1.81616 13.9535 2.20178C15.8922 2.5874 17.6729 3.53924 19.0706 4.93693C20.4683 6.33462 21.4201 8.11538 21.8058 10.054C22.1914 11.9927 21.9935 14.0021 21.237 15.8283C20.4806 17.6545 19.1997 19.2153 17.5562 20.3135C15.9126 21.4117 13.9804 21.9978 12.0038 21.9978C9.35319 21.9978 6.81117 20.9449 4.93693 19.0706C3.06268 17.1964 2.00975 14.6543 2.00975 12.0038Z" fill="#767676"/>
</svg>
