<svg width="current" height="current" viewBox="0 0 24 24" fill="current" xmlns="http://www.w3.org/2000/svg">
<path d="M20 3H4C3.73478 3 3.48043 3.10537 3.29289 3.29291C3.10536 3.48044 3 3.73478 3 4V20C3 20.2652 3.10536 20.5196 3.29289 20.7071C3.48043 20.8946 3.73478 21 4 21H20C20.2652 21 20.5196 20.8946 20.7071 20.7071C20.8946 20.5196 21 20.2652 21 20V4C21 3.73478 20.8946 3.48044 20.7071 3.29291C20.5196 3.10537 20.2652 3 20 3ZM19 19H5V5H19V19Z" fill="current"/>
<path d="M8.50001 16.864C8.6493 16.9587 8.82321 17.0074 9.00001 17.004C9.17518 17.0052 9.3476 16.9603 9.50001 16.874L16.5 12.874C16.6539 12.7867 16.7819 12.6603 16.871 12.5074C16.96 12.3546 17.007 12.1809 17.007 12.004C17.007 11.8271 16.96 11.6534 16.871 11.5005C16.7819 11.3477 16.6539 11.2212 16.5 11.134L9.50001 7.13397C9.34799 7.0462 9.17554 7 9.00001 7C8.82447 7 8.65203 7.0462 8.50001 7.13397C8.34887 7.22123 8.22319 7.3465 8.13548 7.49738C8.04776 7.64825 8.00106 7.81944 8.00001 7.99396V15.994C7.99931 16.1702 8.04517 16.3434 8.13297 16.4962C8.22078 16.649 8.3474 16.7758 8.50001 16.864ZM10 9.72397L14 12.004L10 14.284V9.72397Z" fill="current"/>
</svg>
