<svg width="24" height="24" viewBox="0 0 24 24" fill="current" xmlns="http://www.w3.org/2000/svg">
<g clip-path="url(#clip0)">
<path d="M22.3201 18.2492C21.6496 17.5784 20.8451 17.0568 19.9592 16.7186C19.0732 16.3803 18.1259 16.233 17.1791 16.2864C16.3414 16.2789 15.5071 16.3945 14.7029 16.6292C13.0007 15.1758 10.8019 14.4385 8.56792 14.5721C5.77463 14.5721 3.5897 15.4292 2.09881 17.0149C0.64293 18.7415 -0.104207 20.9561 0.00812378 23.2121C0.0253911 23.4273 0.123227 23.6281 0.282083 23.7743C0.440938 23.9205 0.649106 24.0014 0.864961 24.0007H23.1427C23.3586 24.0014 23.5667 23.9205 23.7256 23.7743C23.8844 23.6281 23.9823 23.4273 23.9996 23.2121C24.0869 21.4049 23.4869 19.6317 22.3201 18.2492ZM3.35836 18.1807C4.51509 16.9292 6.27159 16.2864 8.56792 16.2864C10.096 16.2215 11.6078 16.622 12.9035 17.4349C12.5605 17.671 12.2444 17.9441 11.961 18.2492C10.9725 19.3735 10.3822 20.7925 10.2816 22.2864H1.71322C1.78605 20.772 2.36544 19.3261 3.35836 18.1807ZM12.0381 22.2864C12.1198 21.2202 12.5402 20.2081 13.2377 19.3978C13.5198 19.1111 13.8432 18.8684 14.1973 18.6778C14.9254 19.7472 15.349 20.9946 15.4226 22.2864H12.0381ZM17.1277 22.2864C17.0552 20.8102 16.6228 19.3742 15.8682 18.1035C16.287 18.0321 16.7114 17.9977 17.1363 18.0007C17.8488 17.9492 18.5643 18.0468 19.237 18.2874C19.9098 18.5279 20.525 18.9061 21.0435 19.3978C21.7518 20.2046 22.1841 21.2166 22.2773 22.2864H17.1277Z" fill="current"/>
<path d="M17.9936 4.28571H19.7072V6C19.7072 6.22733 19.7975 6.44535 19.9582 6.60609C20.1189 6.76684 20.3368 6.85714 20.5641 6.85714C20.7913 6.85714 21.0092 6.76684 21.1699 6.60609C21.3306 6.44535 21.4209 6.22733 21.4209 6V4.28571H23.1346C23.3618 4.28571 23.5798 4.19541 23.7404 4.03466C23.9011 3.87392 23.9914 3.6559 23.9914 3.42857C23.9914 3.20124 23.9011 2.98322 23.7404 2.82248C23.5798 2.66173 23.3618 2.57143 23.1346 2.57143H21.4209V0.857143C21.4209 0.629815 21.3306 0.411796 21.1699 0.251051C21.0092 0.0903052 20.7913 0 20.5641 0C20.3368 0 20.1189 0.0903052 19.9582 0.251051C19.7975 0.411796 19.7072 0.629815 19.7072 0.857143V2.57143H17.9936C17.7663 2.57143 17.5484 2.66173 17.3877 2.82248C17.227 2.98322 17.1367 3.20124 17.1367 3.42857C17.1367 3.6559 17.227 3.87392 17.3877 4.03466C17.5484 4.19541 17.7663 4.28571 17.9936 4.28571Z" fill="current"/>
<path d="M17.1368 14.572C17.8147 14.572 18.4773 14.3709 19.041 13.9942C19.6046 13.6174 20.0439 13.082 20.3033 12.4555C20.5627 11.829 20.6305 11.1396 20.4983 10.4745C20.3661 9.80945 20.0396 9.19854 19.5603 8.71905C19.081 8.23955 18.4703 7.91301 17.8055 7.78072C17.1406 7.64843 16.4515 7.71633 15.8252 7.97583C15.199 8.23533 14.6637 8.67478 14.2871 9.23861C13.9105 9.80243 13.7095 10.4653 13.7095 11.1434C13.7095 12.0527 14.0706 12.9248 14.7133 13.5678C15.3561 14.2108 16.2278 14.572 17.1368 14.572ZM17.1368 9.42913C17.4758 9.42913 17.8071 9.52968 18.0889 9.71804C18.3707 9.90641 18.5903 10.1741 18.72 10.4874C18.8497 10.8006 18.8837 11.1453 18.8176 11.4779C18.7515 11.8104 18.5882 12.1159 18.3486 12.3556C18.1089 12.5953 17.8036 12.7586 17.4711 12.8248C17.1387 12.8909 16.7941 12.857 16.481 12.7272C16.1679 12.5975 15.9003 12.3777 15.712 12.0958C15.5237 11.8139 15.4231 11.4825 15.4231 11.1434C15.4231 10.6888 15.6037 10.2527 15.9251 9.93123C16.2464 9.60974 16.6823 9.42913 17.1368 9.42913Z" fill="current"/>
<path d="M8.56836 12.8566C9.4157 12.8566 10.244 12.6052 10.9485 12.1343C11.6531 11.6634 12.2022 10.9941 12.5264 10.211C12.8507 9.42784 12.9355 8.56612 12.7702 7.73478C12.6049 6.90343 12.1969 6.13978 11.5977 5.54041C10.9986 4.94105 10.2352 4.53287 9.40418 4.36751C8.57313 4.20214 7.71171 4.28701 6.92887 4.61139C6.14604 4.93577 5.47695 5.48508 5.00619 6.18986C4.53544 6.89465 4.28418 7.72324 4.28418 8.57088C4.28418 9.70752 4.73556 10.7976 5.539 11.6013C6.34244 12.4051 7.43213 12.8566 8.56836 12.8566ZM8.56836 5.99945C9.07676 5.99945 9.57375 6.15025 9.99647 6.43281C10.4192 6.71536 10.7486 7.11696 10.9432 7.58683C11.1378 8.05669 11.1887 8.57372 11.0895 9.07253C10.9903 9.57134 10.7455 10.0295 10.386 10.3892C10.0265 10.7488 9.56847 10.9937 9.06984 11.0929C8.57121 11.1921 8.05438 11.1412 7.58468 10.9466C7.11498 10.7519 6.71351 10.4224 6.43106 9.99949C6.14861 9.57662 5.99785 9.07946 5.99785 8.57088C5.99785 7.88889 6.26869 7.23484 6.75075 6.7526C7.23281 6.27036 7.88662 5.99945 8.56836 5.99945Z" fill="current"/>
</g>
<defs>
<clipPath id="clip0">
<rect width="22" height="22" fill="current"/>
</clipPath>
</defs>
</svg>
