<svg width="26" height="21" viewBox="0 0 26 21" fill="none" xmlns="http://www.w3.org/2000/svg">
<path d="M25.92 8.9L22.21 0.55C22.1366 0.386014 22.0172 0.246804 21.8664 0.149199C21.7155 0.0515941 21.5397 -0.000226633 21.36 7.45059e-07H4.64C4.46033 -0.000226633 4.28445 0.0515941 4.13361 0.149199C3.98276 0.246804 3.86341 0.386014 3.78999 0.55L0.0800018 8.9C0.0287609 9.02022 0.00157999 9.14932 0 9.28V19.5C0.00263364 19.7449 0.10177 19.9789 0.275894 20.1512C0.450018 20.3234 0.685064 20.42 0.929993 20.42H25.07C25.3149 20.42 25.55 20.3234 25.7241 20.1512C25.8982 19.9789 25.9974 19.7449 26 19.5V9.28C25.9984 9.14932 25.9712 9.02022 25.92 8.9ZM5.25 1.9H20.75L23.64 8.4H16.71C16.4943 8.40537 16.2848 8.47349 16.1072 8.59604C15.9296 8.71858 15.7916 8.89024 15.71 9.09C15.5922 9.52513 15.3729 9.9261 15.07 10.26C14.8121 10.5521 14.4951 10.7861 14.14 10.9464C13.7848 11.1067 13.3997 11.1898 13.01 11.19C12.6203 11.1898 12.2352 11.1067 11.88 10.9464C11.5249 10.7861 11.2079 10.5521 10.95 10.26C10.6471 9.9261 10.4278 9.52513 10.31 9.09C10.2284 8.89024 10.0904 8.71858 9.91278 8.59604C9.73518 8.47349 9.52571 8.40537 9.31 8.4H2.38L5.25 1.9ZM1.86 18.57V10.21H8.75C9.11111 11.0374 9.70526 11.7418 10.4599 12.2372C11.2146 12.7327 12.0972 12.9977 13 13C13.9028 12.9977 14.7854 12.7327 15.5401 12.2372C16.2947 11.7418 16.8889 11.0374 17.25 10.21H24.14V18.57H1.86Z" fill="#387E4B"/>
</svg>
