<svg width="current" height="current" viewBox="0 0 24 24" fill="none" xmlns="http://www.w3.org/2000/svg">
<path d="M21.9564 9.2341C21.8984 9.05638 21.7918 8.89845 21.6487 8.77826C21.5055 8.65806 21.3315 8.58041 21.1464 8.55411L15.4464 7.7341L12.9064 2.56412C12.8245 2.39505 12.6967 2.25245 12.5375 2.15268C12.3783 2.05291 12.1943 2 12.0064 2C11.8185 2 11.6345 2.05291 11.4753 2.15268C11.3161 2.25245 11.1883 2.39505 11.1064 2.56412L8.5564 7.7341L2.8564 8.55411C2.67121 8.58098 2.49727 8.65927 2.35437 8.78009C2.21146 8.90091 2.10533 9.0594 2.04803 9.23755C1.99073 9.41569 1.98457 9.60634 2.03024 9.78781C2.07592 9.96929 2.1716 10.1343 2.3064 10.2641L6.4264 14.2641L5.4264 19.9341C5.3907 20.1216 5.4094 20.3154 5.48027 20.4926C5.55115 20.6698 5.67126 20.823 5.82641 20.9341C5.97127 21.0343 6.14005 21.0945 6.31565 21.1086C6.49125 21.1226 6.66745 21.09 6.82641 21.0141L11.9264 18.3341L17.0264 21.0141C17.1675 21.0902 17.3261 21.1282 17.4864 21.1241C17.6982 21.1249 17.9048 21.0583 18.0764 20.9341C18.2316 20.823 18.3517 20.6698 18.4225 20.4926C18.4934 20.3154 18.5121 20.1216 18.4764 19.9341L17.4764 14.2641L21.6064 10.2641C21.7579 10.1445 21.8716 9.98364 21.9337 9.80087C21.9958 9.6181 22.0037 9.42125 21.9564 9.2341Z" 
fill="current"/>
</svg>
