<svg width="current" height="current" viewBox="0 0 24 24" fill="none" xmlns="http://www.w3.org/2000/svg">
<path d="M21.2308 2H2.76923C2.56522 2 2.36956 2.08104 2.2253 2.2253C2.08104 2.36956 2 2.56522 2 2.76923V21.2308C2 21.4348 2.08104 21.6304 2.2253 21.7747C2.36956 21.919 2.56522 22 2.76923 22H21.2308C21.4348 22 21.6304 21.919 21.7747 21.7747C21.919 21.6304 22 21.4348 22 21.2308V2.76923C22 2.56522 21.919 2.36956 21.7747 2.2253C21.6304 2.08104 21.4348 2 21.2308 2ZM20.4615 20.4615H3.53846V3.53846H20.4615V20.4615Z" 
fill="current"/>
<path d="M7.38447 12.7691H11.2306V16.6152C11.2306 16.8192 11.3117 17.0149 11.4559 17.1592C11.6002 17.3034 11.7958 17.3845 11.9998 17.3845C12.2039 17.3845 12.3995 17.3034 12.5438 17.1592C12.688 17.0149 12.7691 16.8192 12.7691 16.6152V12.7691H16.6152C16.8192 12.7691 17.0149 12.688 17.1592 12.5438C17.3034 12.3995 17.3845 12.2039 17.3845 11.9998C17.3845 11.7958 17.3034 11.6002 17.1592 11.4559C17.0149 11.3117 16.8192 11.2306 16.6152 11.2306H12.7691V7.38447C12.7691 7.18045 12.688 6.9848 12.5438 6.84054C12.3995 6.69628 12.2039 6.61523 11.9998 6.61523C11.7958 6.61523 11.6002 6.69628 11.4559 6.84054C11.3117 6.9848 11.2306 7.18045 11.2306 7.38447V11.2306H7.38447C7.18045 11.2306 6.9848 11.3117 6.84054 11.4559C6.69628 11.6002 6.61523 11.7958 6.61523 11.9998C6.61523 12.2039 6.69628 12.3995 6.84054 12.5438C6.9848 12.688 7.18045 12.7691 7.38447 12.7691Z" 
fill="current"/>
</svg>
