<svg 
  width="current" 
  height="current" 
  viewBox="0 0 40 40" 
  fill="none" 
  xmlns="http://www.w3.org/2000/svg">
  <path d="M31.7466 30.5302L26.1271 24.9193C27.8403 22.8945 28.7045 20.2858 28.5391 17.6387C28.3738 14.9915 27.1916 12.5107 25.2398 10.7149C23.288 8.91902 20.7176 7.94707 18.0658 8.00223C15.4141 8.05738 12.8863 9.13535 11.0108 11.0108C9.13535 12.8863 8.05738 15.4141 8.00223 18.0658C7.94707 20.7176 8.91902 23.288 10.7149 25.2398C12.5107 27.1916 14.9915 28.3738 17.6387 28.5391C20.2858 28.7045 22.8945 27.8403 24.9193 26.1271L30.5302 31.7466C30.6098 31.8269 30.7046 31.8906 30.809 31.9341C30.9134 31.9776 31.0253 32 31.1384 32C31.2515 32 31.3635 31.9776 31.4678 31.9341C31.5722 31.8906 31.667 31.8269 31.7466 31.7466C31.8269 31.667 31.8906 31.5722 31.9341 31.4678C31.9776 31.3635 32 31.2515 32 31.1384C32 31.0253 31.9776 30.9134 31.9341 30.809C31.8906 30.7046 31.8269 30.6098 31.7466 30.5302ZM9.72264 18.2889C9.72264 16.5947 10.225 14.9385 11.1663 13.5298C12.1076 12.121 13.4455 11.0231 15.0108 10.3747C16.576 9.72635 18.2984 9.5567 19.9601 9.88724C21.6219 10.2178 23.1482 11.0336 24.3462 12.2317C25.5443 13.4297 26.3601 14.956 26.6907 16.6177C27.0212 18.2794 26.8515 20.0018 26.2032 21.5671C25.5548 23.1324 24.4569 24.4703 23.0481 25.4116C21.6394 26.3528 19.9832 26.8552 18.2889 26.8552C16.017 26.8552 13.8381 25.9527 12.2317 24.3462C10.6252 22.7397 9.72264 20.5609 9.72264 18.2889Z" 
  fill="current"/>
</svg>
