<svg 
width="current" 
height="current" 
viewBox="0 0 40 40" 
fill="none" 
xmlns="http://www.w3.org/2000/svg">
<path d="M29.9385 18.8462L27.0846 12.4231C27.0281 12.2969 26.9363 12.1898 26.8203 12.1148C26.7043 12.0397 26.569 11.9998 26.4308 12H13.5692C13.431 11.9998 13.2957 12.0397 13.1797 12.1148C13.0637 12.1898 12.9719 12.2969 12.9154 12.4231L10.0615 18.8462C10.0221 18.9386 10.0012 19.0379 10 19.1385V27C10.002 27.1884 10.0783 27.3684 10.2122 27.5009C10.3462 27.6334 10.527 27.7077 10.7154 27.7077H29.2846C29.473 27.7077 29.6538 27.6334 29.7878 27.5009C29.9217 27.3684 29.998 27.1884 30 27V19.1385C29.9988 19.0379 29.9779 18.9386 29.9385 18.8462ZM14.0385 13.4615H25.9615L28.1846 18.4615H22.8539C22.6879 18.4657 22.5268 18.5181 22.3902 18.6123C22.2536 18.7066 22.1474 18.8386 22.0846 18.9923C21.994 19.327 21.8253 19.6355 21.5923 19.8923C21.3939 20.117 21.1501 20.297 20.8769 20.4203C20.6037 20.5437 20.3074 20.6075 20.0077 20.6077C19.708 20.6075 19.4117 20.5437 19.1385 20.4203C18.8653 20.297 18.6214 20.117 18.4231 19.8923C18.1901 19.6355 18.0214 19.327 17.9308 18.9923C17.868 18.8386 17.7618 18.7066 17.6252 18.6123C17.4886 18.5181 17.3275 18.4657 17.1615 18.4615H11.8308L14.0385 13.4615ZM11.4308 26.2846V19.8538H16.7308C17.0085 20.4903 17.4656 21.0322 18.0461 21.4133C18.6266 21.7944 19.3056 21.9982 20 22C20.6944 21.9982 21.3734 21.7944 21.9539 21.4133C22.5344 21.0322 22.9915 20.4903 23.2692 19.8538H28.5692V26.2846H11.4308Z" 
fill="current"/>
</svg>
