<svg width="24" height="24" viewBox="0 0 24 24" fill="none" xmlns="http://www.w3.org/2000/svg">
<path d="M12.0334 17.4644C11.9354 17.4641 11.8386 17.4436 11.7489 17.4043C11.6592 17.365 11.5785 17.3076 11.5119 17.2358L2.22622 7.23583C2.15472 7.16892 2.09775 7.08802 2.05883 6.99816C2.01992 6.9083 1.99989 6.8114 2 6.71347C2.00011 6.61554 2.02036 6.51869 2.05949 6.42891C2.09861 6.33914 2.15577 6.25837 2.22742 6.19163C2.29908 6.12488 2.38369 6.07358 2.47601 6.04091C2.56833 6.00825 2.66638 5.99491 2.76407 6.00174C2.86176 6.00856 2.957 6.0354 3.04388 6.08059C3.13075 6.12577 3.20742 6.18834 3.2691 6.2644L12.0334 15.7001L20.7977 6.2644C20.9298 6.14076 21.1039 6.07187 21.2849 6.07166C21.4658 6.07146 21.6402 6.13994 21.7726 6.26329C21.905 6.38664 21.9856 6.55564 21.9983 6.73617C22.0109 6.91669 21.9545 7.09527 21.8405 7.23583L12.5548 17.2358C12.4882 17.3076 12.4075 17.365 12.3178 17.4043C12.2281 17.4436 12.1313 17.4641 12.0334 17.4644Z" fill="current"/>
</svg>
