<svg 
width="current" 
height="current" 
viewBox="0 0 40 40" 
fill="none" 
xmlns="http://www.w3.org/2000/svg">
<path d="M14.5 29.6428C14.397 29.6455 14.2947 29.624 14.2014 29.58C14.058 29.521 13.9351 29.4209 13.8484 29.2923C13.7617 29.1637 13.7151 29.0122 13.7143 28.8571V26.225C12.2841 25.4423 11.0914 24.2885 10.2618 22.885C9.43213 21.4815 8.99625 19.8803 9.00002 18.25C9.0021 16.0626 9.87197 13.9654 11.4187 12.4187C12.9654 10.8719 15.0626 10.0021 17.25 10H22.75C24.938 10 27.0365 10.8692 28.5836 12.4164C30.1308 13.9635 31 16.062 31 18.25C31 20.438 30.1308 22.5364 28.5836 24.0836C27.0365 25.6308 24.938 26.5 22.75 26.5H17.965L15.0579 29.415C14.9845 29.4878 14.8974 29.5454 14.8017 29.5845C14.7059 29.6236 14.6034 29.6434 14.5 29.6428ZM17.25 11.5714C15.4794 11.5735 13.7819 12.2778 12.5299 13.5298C11.2778 14.7818 10.5735 16.4794 10.5715 18.25C10.5715 21.1336 12.3864 24.0328 14.7907 24.9836C14.9369 25.0418 15.0623 25.1426 15.1505 25.2728C15.2388 25.4031 15.2859 25.5569 15.2857 25.7143V26.9636L17.085 25.1564C17.1584 25.0836 17.2455 25.026 17.3412 24.9869C17.437 24.9478 17.5395 24.928 17.6429 24.9286H22.75C24.5213 24.9286 26.22 24.2249 27.4725 22.9724C28.7249 21.72 29.4286 20.0213 29.4286 18.25C29.4286 16.4787 28.7249 14.78 27.4725 13.5275C26.22 12.2751 24.5213 11.5714 22.75 11.5714H17.25Z" 
fill="current"/>
</svg>
