<svg width="current" height="current" viewBox="0 0 24 24" fill="none" xmlns="http://www.w3.org/2000/svg">
<path d="M22.0833 11.0833H12.9167V1.91667C12.9167 1.67355 12.8201 1.44041 12.6482 1.2685C12.4763 1.09659 12.2431 1 12 1C11.7569 1 11.5237 1.09659 11.3518 1.2685C11.1799 1.44041 11.0833 1.67355 11.0833 1.91667V11.0833H1.91667C1.67355 11.0833 1.44039 11.1799 1.26848 11.3518C1.09658 11.5237 1 11.7569 1 12C1 12.2431 1.09658 12.4763 1.26848 12.6482C1.44039 12.8201 1.67355 12.9167 1.91667 12.9167H11.0833V22.0833C11.0833 22.3264 11.1799 22.5596 11.3518 22.7315C11.5237 22.9034 11.7569 23 12 23C12.2431 23 12.4763 22.9034 12.6482 22.7315C12.8201 22.5596 12.9167 22.3264 12.9167 22.0833V12.9167H22.0833C22.3264 12.9167 22.5596 12.8201 22.7315 12.6482C22.9034 12.4763 23 12.2431 23 12C23 11.7569 22.9034 11.5237 22.7315 11.3518C22.5596 11.1799 22.3264 11.0833 22.0833 11.0833Z" 
fill="current"/>
</svg>
