<svg width="current" height="current" viewBox="0 0 24 24" fill="none" xmlns="http://www.w3.org/2000/svg">
<path d="M10.6916 23C10.4264 23 10.1721 22.8946 9.98452 22.7071C9.79698 22.5196 9.69162 22.2652 9.69162 22V11.59L2.23163 2.64002C2.10991 2.49388 2.03239 2.31605 2.00815 2.12741C1.98392 1.93878 2.01398 1.74717 2.09481 1.57501C2.17564 1.40286 2.30388 1.2573 2.4645 1.15546C2.62511 1.05361 2.81144 0.999692 3.00162 1H21.4616C21.6518 0.999692 21.8381 1.05361 21.9988 1.15546C22.1594 1.2573 22.2876 1.40286 22.3684 1.57501C22.4493 1.74717 22.4793 1.93878 22.4551 2.12741C22.4309 2.31605 22.3533 2.49388 22.2316 2.64002L14.7716 11.59V20.46C14.772 20.6474 14.7197 20.8312 14.6207 20.9903C14.5217 21.1494 14.3799 21.2775 14.2116 21.36L11.1416 22.89C11.0023 22.9614 10.8482 22.9991 10.6916 23ZM5.13163 3L11.4616 10.59C11.6107 10.7699 11.6921 10.9964 11.6916 11.23V20.38L12.7716 19.84V11.23C12.7712 10.9964 12.8525 10.7699 13.0016 10.59L19.3216 3H5.13163Z" 
fill="current"/>
</svg>
