<svg width="28" height="25" viewBox="0 0 28 25" fill="none" xmlns="http://www.w3.org/2000/svg">
<path d="M7.00003 25C6.86885 25.0034 6.73871 24.976 6.62003 24.92C6.43741 24.845 6.28108 24.7176 6.17075 24.5539C6.06041 24.3901 6.00102 24.1974 6.00003 24V20.65C4.17978 19.6539 2.6618 18.1854 1.6059 16.3991C0.54999 14.6129 -0.00477753 12.575 3.0995e-05 10.5C0.00267861 7.71604 1.10978 5.04687 3.07834 3.07831C5.0469 1.10975 7.71607 0.00264761 10.5 0H17.5C20.2848 1.65985e-07 22.9555 1.10625 24.9247 3.07538C26.8938 5.04451 28 7.71523 28 10.5C28 13.2848 26.8938 15.9555 24.9247 17.9246C22.9555 19.8938 20.2848 21 17.5 21H11.41L7.71002 24.71C7.61658 24.8027 7.50578 24.876 7.38394 24.9258C7.2621 24.9755 7.13164 25.0008 7.00003 25ZM10.5 2C8.2465 2.00265 6.08604 2.89902 4.49255 4.49251C2.89907 6.08599 2.00268 8.24647 2.00003 10.5C2.00003 14.17 4.31003 17.86 7.37003 19.07C7.55609 19.1441 7.71562 19.2724 7.82794 19.4382C7.94027 19.604 8.00023 19.7997 8.00003 20V21.59L10.29 19.29C10.3835 19.1973 10.4943 19.124 10.6161 19.0742C10.738 19.0245 10.8684 18.9992 11 19H17.5C19.7544 19 21.9164 18.1045 23.5104 16.5104C25.1045 14.9163 26 12.7543 26 10.5C26 8.24566 25.1045 6.08365 23.5104 4.48959C21.9164 2.89553 19.7544 2 17.5 2H10.5Z" fill="#387E4B"/>
</svg>
