<svg width="current" height="current" viewBox="0 0 24 24" fill="current" xmlns="http://www.w3.org/2000/svg">
<path d="M20 3H4C3.73478 3 3.48043 3.10537 3.29289 3.29291C3.10536 3.48044 3 3.73478 3 4V20C3 20.2652 3.10536 20.5196 3.29289 20.7071C3.48043 20.8946 3.73478 21 4 21H20C20.2652 21 20.5196 20.8946 20.7071 20.7071C20.8946 20.5196 21 20.2652 21 20V4C21 3.73478 20.8946 3.48044 20.7071 3.29291C20.5196 3.10537 20.2652 3 20 3ZM19 19H5V5H19V19Z" fill="current"/>
<path d="M8 9H11V16C11 16.2652 11.1054 16.5196 11.2929 16.7071C11.4804 16.8946 11.7348 17 12 17C12.2652 17 12.5196 16.8946 12.7071 16.7071C12.8946 16.5196 13 16.2652 13 16V9H16C16.2652 9 16.5196 8.89463 16.7071 8.70709C16.8946 8.51956 17 8.26522 17 8C17 7.73478 16.8946 7.48044 16.7071 7.29291C16.5196 7.10537 16.2652 7 16 7H8C7.73478 7 7.48043 7.10537 7.29289 7.29291C7.10536 7.48044 7 7.73478 7 8C7 8.26522 7.10536 8.51956 7.29289 8.70709C7.48043 8.89463 7.73478 9 8 9Z" fill="current"/>
</svg>
