<svg 
  width="current" 
  height="current" 
  viewBox="0 0 40 40" 
  fill="none" 
  xmlns="http://www.w3.org/2000/svg">
  <path d="M31.8902 27.3268L28.5577 20.6533V16.5755C28.6101 15.4365 28.4245 14.2992 28.0125 13.2361C27.6005 12.173 26.9713 11.2075 26.1651 10.4013C25.3589 9.59506 24.3934 8.96587 23.3303 8.5539C22.2672 8.14193 21.1299 7.95624 19.9909 8.00868C18.852 7.95624 17.7146 8.14193 16.6515 8.5539C15.5884 8.96587 14.6229 9.59506 13.8167 10.4013C13.0105 11.2075 12.3813 12.173 11.9694 13.2361C11.5574 14.2992 11.3717 15.4365 11.4241 16.5755V20.6533L8.09164 27.3268C8.02593 27.4572 7.99464 27.6023 8.00075 27.7482C8.00686 27.8941 8.05017 28.036 8.12656 28.1604C8.20296 28.2849 8.3099 28.3878 8.43723 28.4593C8.56456 28.5308 8.70805 28.5685 8.85409 28.569H15.7932C15.9898 29.5373 16.5151 30.4078 17.2802 31.0331C18.0452 31.6584 19.0029 32 19.9909 32C20.979 32 21.9366 31.6584 22.7017 31.0331C23.4667 30.4078 23.992 29.5373 24.1886 28.569H31.1278C31.2738 28.5685 31.4173 28.5308 31.5446 28.4593C31.6719 28.3878 31.7789 28.2849 31.8553 28.1604C31.9317 28.036 31.975 27.8941 31.9811 27.7482C31.9872 27.6023 31.9559 27.4572 31.8902 27.3268ZM19.9909 30.2823C19.4607 30.2808 18.9439 30.1154 18.5114 29.8087C18.0789 29.5019 17.7518 29.0689 17.5751 28.569H22.4068C22.23 29.0689 21.903 29.5019 21.4705 29.8087C21.038 30.1154 20.5212 30.2808 19.9909 30.2823ZM10.2419 26.8556L13.0433 21.2444C13.1044 21.125 13.1367 20.993 13.1375 20.8589V16.5755C13.0839 15.6615 13.2245 14.7465 13.5499 13.8907C13.8754 13.0349 14.3784 12.2578 15.0258 11.6103C15.6732 10.9629 16.4504 10.46 17.3061 10.1345C18.1619 9.80903 19.0769 9.66846 19.9909 9.72203C20.9049 9.66846 21.8199 9.80903 22.6757 10.1345C23.5315 10.46 24.3086 10.9629 24.956 11.6103C25.6034 12.2578 26.1064 13.0349 26.4319 13.8907C26.7574 14.7465 26.8979 15.6615 26.8444 16.5755V20.8589C26.8452 20.993 26.8774 21.125 26.9386 21.2444L29.7399 26.8556H10.2419Z" 
  fill="current"/>
</svg>
