<svg width="24" height="24" viewBox="0 0 24 24" fill="none" xmlns="http://www.w3.org/2000/svg">
<path d="M22 1H2C1.73478 1 1.48044 1.10537 1.29291 1.29291C1.10537 1.48044 1 1.73478 1 2V22C1 22.2652 1.10537 22.5196 1.29291 22.7071C1.48044 22.8946 1.73478 23 2 23H22C22.2652 23 22.5196 22.8946 22.7071 22.7071C22.8946 22.5196 23 22.2652 23 22V2C23 1.73478 22.8946 1.48044 22.7071 1.29291C22.5196 1.10537 22.2652 1 22 1ZM21 21H3V3H21V21Z" fill="current"/>
<path d="M8 13H16C16.2652 13 16.5196 12.8946 16.7071 12.7071C16.8946 12.5196 17 12.2652 17 12C17 11.7348 16.8946 11.4804 16.7071 11.2929C16.5196 11.1054 16.2652 11 16 11H8C7.73478 11 7.48044 11.1054 7.29291 11.2929C7.10537 11.4804 7 11.7348 7 12C7 12.2652 7.10537 12.5196 7.29291 12.7071C7.48044 12.8946 7.73478 13 8 13Z" fill="current"/>
</svg>
