<svg width="current" height="current" viewBox="0 0 24 24" fill="none" xmlns="http://www.w3.org/2000/svg">
<path d="M6.50002 21.6428C6.39695 21.6455 6.29469 21.624 6.20144 21.58C6.05796 21.521 5.93513 21.4209 5.84844 21.2923C5.76175 21.1637 5.71508 21.0122 5.7143 20.8571V18.225C4.28411 17.4423 3.09141 16.2885 2.26177 14.885C1.43213 13.4815 0.996246 11.8803 1.00002 10.25C1.0021 8.0626 1.87197 5.96539 3.41869 4.41867C4.96542 2.87195 7.06262 2.00208 9.25002 2H14.75C16.938 2 19.0365 2.86919 20.5836 4.41637C22.1308 5.96354 23 8.06196 23 10.25C23 12.438 22.1308 14.5364 20.5836 16.0836C19.0365 17.6308 16.938 18.5 14.75 18.5H9.96502L7.05787 21.415C6.98445 21.4878 6.89739 21.5454 6.80166 21.5845C6.70593 21.6236 6.60342 21.6434 6.50002 21.6428ZM9.25002 3.57143C7.47939 3.57351 5.78188 4.2778 4.52986 5.52982C3.27784 6.78185 2.57353 8.47936 2.57145 10.25C2.57145 13.1336 4.38645 16.0328 6.79073 16.9836C6.93692 17.0418 7.06226 17.1426 7.15052 17.2728C7.23878 17.4031 7.28588 17.5569 7.28573 17.7143V18.9636L9.08502 17.1564C9.15844 17.0836 9.2455 17.026 9.34123 16.9869C9.43696 16.9478 9.53947 16.928 9.64287 16.9286H14.75C16.5213 16.9286 18.22 16.2249 19.4725 14.9724C20.7249 13.72 21.4286 12.0213 21.4286 10.25C21.4286 8.47873 20.7249 6.78001 19.4725 5.52753C18.22 4.27506 16.5213 3.57143 14.75 3.57143H9.25002Z" 
fill="current"/>
</svg>
