<svg width="current" height="current" viewBox="0 0 24 24" fill="current" xmlns="http://www.w3.org/2000/svg">
<path d="M15.0378 22.8659C14.1779 22.8647 13.3255 22.7048 12.5235 22.3944C3.62922 18.9844 2.11281 12.0544 2.00281 8.25157C1.97046 7.10345 2.21826 5.96472 2.72479 4.93386C3.23131 3.90301 3.98131 3.01107 4.90993 2.33514L6.09637 1.47872C6.36205 1.28527 6.66328 1.14612 6.98282 1.06927C7.30235 0.992416 7.63392 0.979368 7.95851 1.03085C8.28367 1.07987 8.59576 1.19339 8.87642 1.36475C9.15707 1.53611 9.40062 1.76186 9.59279 2.0287L11.6121 4.81014C11.8061 5.07563 11.9458 5.3768 12.0231 5.69639C12.1005 6.01598 12.114 6.34769 12.0629 6.67252C12.0118 6.99734 11.8971 7.30889 11.7254 7.5893C11.5536 7.8697 11.3282 8.11344 11.0621 8.30655L9.60065 9.36727C9.49002 9.44575 9.39813 9.54776 9.33157 9.66594C9.26501 9.78413 9.22543 9.91555 9.21566 10.0508C9.08209 12.8794 11.6357 14.7101 12.9007 15.1501C13.0442 15.2004 13.1977 15.2153 13.3482 15.1934C13.4987 15.1715 13.6417 15.1135 13.765 15.0244L15.8864 13.453C16.1523 13.2594 16.4539 13.1202 16.7738 13.0435C17.0937 12.9667 17.4256 12.9539 17.7504 13.0057C18.0753 13.0575 18.3867 13.173 18.6669 13.3455C18.947 13.518 19.1903 13.7441 19.3828 14.0108L21.4021 16.7923C21.7919 17.3292 21.9528 17.9987 21.8497 18.6542C21.7466 19.3096 21.3879 19.8974 20.8521 20.2887L19.1942 21.4909C17.9891 22.3773 16.5338 22.8587 15.0378 22.8659ZM7.01564 2.728L5.83707 3.59227C5.11378 4.11643 4.52906 4.80888 4.13343 5.60974C3.73779 6.41059 3.54316 7.29575 3.56637 8.1887C3.69208 12.3766 5.44422 17.9944 13.0814 20.933C13.935 21.2606 14.8574 21.3682 15.7636 21.246C16.6698 21.1238 17.5307 20.7757 18.2671 20.2337L19.9249 19.0316C20.0247 18.9599 20.1092 18.8691 20.1736 18.7645C20.2379 18.6599 20.2808 18.5435 20.2998 18.4221C20.3189 18.3008 20.3136 18.1769 20.2843 18.0576C20.255 17.9383 20.2023 17.826 20.1292 17.7273L18.11 14.9458C17.9638 14.7461 17.7445 14.6125 17.5 14.5742C17.2555 14.5359 17.0058 14.5961 16.8057 14.7416L14.6921 16.313C14.3625 16.5507 13.9805 16.7055 13.5784 16.7643C13.1763 16.8231 12.766 16.7842 12.3821 16.6509C10.4571 15.9751 7.47137 13.5787 7.6678 9.98799C7.68784 9.61899 7.79079 9.25924 7.96899 8.9355C8.14718 8.61175 8.39604 8.33233 8.69708 8.11799L10.1585 7.05727C10.3582 6.91115 10.4919 6.69182 10.5302 6.44734C10.5685 6.20286 10.5083 5.95316 10.3628 5.75298L8.31993 2.91656C8.24961 2.81627 8.15979 2.73117 8.05584 2.66638C7.95189 2.60158 7.83595 2.55839 7.71494 2.53941C7.4693 2.5025 7.21887 2.56161 7.01564 2.70443V2.728Z" 
fill="current"/>
</svg>
