<svg width="current" height="current" viewBox="0 0 24 24" fill="none" xmlns="http://www.w3.org/2000/svg">
<path d="M19.9925 15.9782C19.4465 15.9801 18.9066 16.0934 18.4061 16.3113C17.9056 16.5293 17.4552 16.8471 17.0825 17.2453L7.9225 12.6757C8.01572 12.2215 8.01572 11.7531 7.9225 11.2988L17.0825 6.72921C17.7213 7.40502 18.5764 7.83732 19.5004 7.9516C20.4244 8.06588 21.3594 7.85497 22.1443 7.35523C22.9291 6.8555 23.5147 6.09824 23.8 5.21397C24.0853 4.32971 24.0526 3.37383 23.7073 2.51109C23.3621 1.64836 22.726 0.932823 21.9087 0.487792C21.0915 0.0427615 20.1442 -0.103888 19.2302 0.0731451C18.3162 0.250178 17.4927 0.739804 16.9017 1.45761C16.3107 2.17541 15.9891 3.07643 15.9925 4.00538C15.9918 4.34221 16.0355 4.67767 16.1225 5.00312L7.1225 9.51287C6.60454 8.86741 5.89844 8.39842 5.10177 8.17067C4.3051 7.94292 3.4572 7.96768 2.67524 8.24153C1.89328 8.51537 1.21588 9.02476 0.736641 9.69934C0.257406 10.3739 0 11.1804 0 12.0072C0 12.8341 0.257406 13.6405 0.736641 14.3151C1.21588 14.9897 1.89328 15.4991 2.67524 15.7729C3.4572 16.0468 4.3051 16.0715 5.10177 15.8438C5.89844 15.616 6.60454 15.147 7.1225 14.5016L16.1225 19.0113C16.0355 19.3368 15.9918 19.6722 15.9925 20.0091C15.9925 20.7984 16.2271 21.57 16.6666 22.2263C17.1061 22.8826 17.7309 23.3941 18.4618 23.6962C19.1927 23.9983 19.9969 24.0773 20.7729 23.9233C21.5488 23.7693 22.2615 23.3892 22.8209 22.8311C23.3803 22.273 23.7613 21.5618 23.9156 20.7877C24.07 20.0135 23.9908 19.2111 23.688 18.4818C23.3853 17.7526 22.8726 17.1292 22.2148 16.6907C21.557 16.2522 20.7836 16.0181 19.9925 16.0181V15.9782ZM17.9925 4.00538C17.9964 3.5669 18.145 3.14191 18.4153 2.79612C18.6856 2.45033 19.0625 2.20299 19.4877 2.09234C19.913 1.98168 20.363 2.01389 20.7681 2.18396C21.1732 2.35402 21.5109 2.6525 21.7289 3.03322C21.947 3.41395 22.0332 3.85573 21.9744 4.29029C21.9156 4.72485 21.715 5.12799 21.4035 5.43738C21.0921 5.74676 20.6871 5.94515 20.2513 6.00192C19.8155 6.05869 19.3731 5.97065 18.9925 5.75142C18.6858 5.57477 18.4316 5.32006 18.2559 5.01329C18.0802 4.70652 17.9893 4.35869 17.9925 4.00538ZM3.9925 13.9827C3.46207 13.9827 2.95336 13.7725 2.57829 13.3983C2.20321 13.0241 1.9925 12.5165 1.9925 11.9873C1.9925 11.458 2.20321 10.9505 2.57829 10.5763C2.95336 10.202 3.46207 9.9918 3.9925 9.9918C4.43557 9.99602 4.86469 10.1469 5.2125 10.4208C5.44971 10.6076 5.64143 10.8456 5.77323 11.1169C5.90504 11.3882 5.97351 11.6858 5.97351 11.9873C5.97351 12.2888 5.90504 12.5863 5.77323 12.8576C5.64143 13.1289 5.44971 13.3669 5.2125 13.5537C4.86469 13.8276 4.43557 13.9785 3.9925 13.9827ZM19.9925 21.9646C19.4621 21.9646 18.9534 21.7544 18.5783 21.3802C18.2032 21.0059 17.9925 20.4984 17.9925 19.9692C17.9925 19.5745 18.1098 19.1887 18.3296 18.8605C18.5493 18.5324 18.8617 18.2766 19.2271 18.1256C19.5926 17.9746 19.9947 17.935 20.3827 18.012C20.7706 18.089 21.127 18.2791 21.4067 18.5581C21.6864 18.8372 21.8769 19.1928 21.9541 19.5799C22.0312 19.967 21.9916 20.3682 21.8403 20.7328C21.6889 21.0974 21.4325 21.4091 21.1036 21.6283C20.7747 21.8476 20.3881 21.9646 19.9925 21.9646Z" 
fill="current"/>
</svg>
