<svg width="24" height="24" viewBox="0 0 24 24" fill="none" xmlns="http://www.w3.org/2000/svg">
<path fill-rule="evenodd" clip-rule="evenodd" d="M12 21C16.9706 21 21 16.9706 21 12C21 7.02944 16.9706 3 12 3C7.02944 3 3 7.02944 3 12C3 16.9706 7.02944 21 12 21ZM12 23C18.0751 23 23 18.0751 23 12C23 5.92487 18.0751 1 12 1C5.92487 1 1 5.92487 1 12C1 18.0751 5.92487 23 12 23ZM17.2346 6.71991C17.4957 6.98106 17.5917 7.36487 17.4841 7.71818L15.3606 14.6954C15.2636 15.0143 15.014 15.2639 14.6951 15.3609L7.71785 17.4845C7.36454 17.592 6.98073 17.496 6.71959 17.2349C6.45844 16.9737 6.36249 16.5899 6.47002 16.2366L8.59353 9.25937C8.69058 8.94048 8.94015 8.69091 9.25904 8.59386L16.2363 6.47035C16.5896 6.36282 16.9734 6.45877 17.2346 6.71991ZM10.0217 11.4359L8.92929 15.0252L12.5186 13.9328L10.0217 11.4359ZM11.4361 10.0219L13.9326 12.5184L15.0249 8.92962L11.4361 10.0219Z" fill="black"/>
</svg>
