<svg width="28" height="28" viewBox="0 0 28 28" fill="none" xmlns="http://www.w3.org/2000/svg">
<g clip-path="url(#clip0)">
<path d="M26.0406 21.29C25.2584 20.5074 24.3198 19.8989 23.2862 19.5043C22.2526 19.1096 21.1474 18.9378 20.0428 19C19.0654 18.9913 18.0921 19.1261 17.1538 19.4C15.168 17.7043 12.6027 16.8441 9.99639 17C6.73755 17 4.18848 18 2.4491 19.85C0.750573 21.8643 -0.121086 24.4481 0.00996602 27.08C0.0301113 27.3311 0.144254 27.5654 0.329585 27.7359C0.514916 27.9065 0.757778 28.0008 1.00961 28H27.0003C27.2522 28.0008 27.495 27.9065 27.6803 27.7359C27.8657 27.5654 27.9798 27.3311 28 27.08C28.1019 24.9717 27.4018 22.9029 26.0406 21.29ZM3.91857 21.21C5.26809 19.75 7.31735 19 9.99639 19C11.7792 18.9244 13.5429 19.3916 15.0546 20.34C14.6544 20.6155 14.2856 20.934 13.955 21.29C12.8017 22.6017 12.1131 24.2572 11.9957 26H1.99925C2.08421 24.2333 2.76017 22.5463 3.91857 21.21ZM14.0449 26C14.1403 24.7561 14.6307 23.5753 15.4445 22.63C15.7735 22.2956 16.1509 22.0124 16.5641 21.79C17.4135 23.0376 17.9076 24.4929 17.9935 26H14.0449ZM19.9828 26C19.8982 24.2778 19.3937 22.6024 18.5133 21.12C19.002 21.0367 19.4971 20.9966 19.9928 21C20.8241 20.94 21.6588 21.0539 22.4437 21.3345C23.2285 21.6152 23.9463 22.0564 24.5512 22.63C25.3776 23.5713 25.882 24.752 25.9907 26H19.9828Z" fill="#767676"/>
<path d="M20.9925 5H22.9918V7C22.9918 7.26522 23.0971 7.51957 23.2846 7.70711C23.4721 7.89464 23.7263 8 23.9914 8C24.2566 8 24.5108 7.89464 24.6983 7.70711C24.8857 7.51957 24.9911 7.26522 24.9911 7V5H26.9904C27.2555 5 27.5097 4.89464 27.6972 4.70711C27.8847 4.51957 27.99 4.26522 27.99 4C27.99 3.73478 27.8847 3.48043 27.6972 3.29289C27.5097 3.10536 27.2555 3 26.9904 3H24.9911V1C24.9911 0.734784 24.8857 0.480429 24.6983 0.292892C24.5108 0.105356 24.2566 0 23.9914 0C23.7263 0 23.4721 0.105356 23.2846 0.292892C23.0971 0.480429 22.9918 0.734784 22.9918 1V3H20.9925C20.7274 3 20.4731 3.10536 20.2857 3.29289C20.0982 3.48043 19.9929 3.73478 19.9929 4C19.9929 4.26522 20.0982 4.51957 20.2857 4.70711C20.4731 4.89464 20.7274 5 20.9925 5Z" fill="#767676"/>
<path d="M19.9928 17C20.7837 17 21.5568 16.7654 22.2143 16.3259C22.8719 15.8864 23.3844 15.2616 23.687 14.5307C23.9897 13.7998 24.0688 12.9956 23.9146 12.2196C23.7603 11.4437 23.3795 10.731 22.8203 10.1716C22.261 9.61216 21.5486 9.2312 20.7729 9.07686C19.9973 8.92252 19.1933 9.00174 18.4627 9.30449C17.732 9.60724 17.1075 10.1199 16.6682 10.7777C16.2288 11.4355 15.9943 12.2089 15.9943 13C15.9943 14.0609 16.4155 15.0783 17.1654 15.8284C17.9153 16.5786 18.9323 17 19.9928 17ZM19.9928 11C20.3883 11 20.7748 11.1173 21.1036 11.3371C21.4324 11.5568 21.6886 11.8692 21.8399 12.2346C21.9912 12.6001 22.0309 13.0022 21.9537 13.3902C21.8766 13.7781 21.6862 14.1345 21.4065 14.4142C21.1269 14.6939 20.7707 14.8844 20.3829 14.9616C19.995 15.0387 19.593 14.9991 19.2277 14.8478C18.8624 14.6964 18.5502 14.44 18.3305 14.1111C18.1108 13.7822 17.9935 13.3956 17.9935 13C17.9935 12.4696 18.2042 11.9609 18.5791 11.5858C18.9541 11.2107 19.4626 11 19.9928 11Z" fill="#767676"/>
<path d="M9.99644 15C10.985 15 11.9514 14.7068 12.7733 14.1574C13.5953 13.6079 14.2359 12.8271 14.6142 11.9134C14.9925 10.9998 15.0915 9.99446 14.8986 9.02456C14.7058 8.05465 14.2297 7.16373 13.5307 6.46447C12.8317 5.76521 11.9411 5.289 10.9716 5.09608C10.002 4.90315 8.99701 5.00217 8.08371 5.38061C7.1704 5.75904 6.38979 6.39991 5.84058 7.22216C5.29137 8.0444 4.99823 9.0111 4.99823 10C4.99823 11.3261 5.52484 12.5979 6.46218 13.5355C7.39953 14.4732 8.67084 15 9.99644 15ZM9.99644 7.00001C10.5896 7.00001 11.1694 7.17595 11.6626 7.50559C12.1557 7.83523 12.5401 8.30377 12.7671 8.85195C12.9941 9.40013 13.0535 10.0033 12.9377 10.5853C12.822 11.1672 12.5364 11.7018 12.117 12.1213C11.6976 12.5409 11.1632 12.8266 10.5815 12.9424C9.99977 13.0581 9.3968 12.9987 8.84881 12.7716C8.30083 12.5446 7.83245 12.1601 7.50292 11.6667C7.17339 11.1734 6.99752 10.5934 6.99752 10C6.99752 9.20436 7.31349 8.44129 7.87589 7.87868C8.4383 7.31607 9.20108 7.00001 9.99644 7.00001Z" fill="#767676"/>
</g>
<defs>
<clipPath id="clip0">
<rect width="28" height="28" fill="white"/>
</clipPath>
</defs>
</svg>
