<svg 
  width="current" 
  height="current" 
  viewBox="0 0 40 40" 
  fill="none" 
  xmlns="http://www.w3.org/2000/svg">
  <path d="M29.2308 10H10.7692C10.5652 10 10.3696 10.081 10.2253 10.2253C10.081 10.3696 10 10.5652 10 10.7692V29.2308C10 29.4348 10.081 29.6304 10.2253 29.7747C10.3696 29.919 10.5652 30 10.7692 30H29.2308C29.4348 30 29.6304 29.919 29.7747 29.7747C29.919 29.6304 30 29.4348 30 29.2308V10.7692C30 10.5652 29.919 10.3696 29.7747 10.2253C29.6304 10.081 29.4348 10 29.2308 10ZM28.4615 28.4615H11.5385V11.5385H28.4615V28.4615Z" 
  fill="current"/>
  <path d="M15.3845 20.7691H19.2306V24.6152C19.2306 24.8192 19.3117 25.0149 19.4559 25.1592C19.6002 25.3034 19.7958 25.3845 19.9998 25.3845C20.2039 25.3845 20.3995 25.3034 20.5438 25.1592C20.688 25.0149 20.7691 24.8192 20.7691 24.6152V20.7691H24.6152C24.8192 20.7691 25.0149 20.688 25.1592 20.5438C25.3034 20.3995 25.3845 20.2039 25.3845 19.9998C25.3845 19.7958 25.3034 19.6002 25.1592 19.4559C25.0149 19.3117 24.8192 19.2306 24.6152 19.2306H20.7691V15.3845C20.7691 15.1805 20.688 14.9848 20.5438 14.8405C20.3995 14.6963 20.2039 14.6152 19.9998 14.6152C19.7958 14.6152 19.6002 14.6963 19.4559 14.8405C19.3117 14.9848 19.2306 15.1805 19.2306 15.3845V19.2306H15.3845C15.1805 19.2306 14.9848 19.3117 14.8405 19.4559C14.6963 19.6002 14.6152 19.7958 14.6152 19.9998C14.6152 20.2039 14.6963 20.3995 14.8405 20.5438C14.9848 20.688 15.1805 20.7691 15.3845 20.7691Z" 
  fill="current"/>
</svg>
