<svg width="21" height="21" viewBox="0 0 21 21" fill="none" xmlns="http://www.w3.org/2000/svg">
<path d="M11.0074 10.0011L19.79 1.22563C19.9245 1.09118 20 0.908811 20 0.718662C20 0.528514 19.9245 0.346149 19.79 0.211694C19.6556 0.0772387 19.4732 0.00170898 19.283 0.00170898C19.0929 0.00170898 18.9105 0.0772387 18.7761 0.211694L10.0006 8.99431L1.22514 0.211694C1.09069 0.0772387 0.908322 0.00170898 0.718174 0.00170898C0.528025 0.00170898 0.34566 0.0772387 0.211205 0.211694C0.07675 0.346149 0.00122027 0.528514 0.00122027 0.718662C0.00122027 0.908811 0.07675 1.09118 0.211205 1.22563L8.99382 10.0011L0.211205 18.7766C0.14428 18.8429 0.0911628 18.9219 0.0549123 19.0089C0.0186617 19.0959 0 19.1893 0 19.2835C0 19.3778 0.0186617 19.4711 0.0549123 19.5581C0.0911628 19.6452 0.14428 19.7241 0.211205 19.7905C0.277584 19.8574 0.356557 19.9105 0.443569 19.9468C0.530581 19.983 0.623913 20.0017 0.718174 20.0017C0.812435 20.0017 0.905767 19.983 0.992779 19.9468C1.07979 19.9105 1.15876 19.8574 1.22514 19.7905L10.0006 11.0079L18.7761 19.7905C18.8425 19.8574 18.9214 19.9105 19.0084 19.9468C19.0955 19.983 19.1888 20.0017 19.283 20.0017C19.3773 20.0017 19.4706 19.983 19.5577 19.9468C19.6447 19.9105 19.7236 19.8574 19.79 19.7905C19.8569 19.7241 19.9101 19.6452 19.9463 19.5581C19.9826 19.4711 20.0012 19.3778 20.0012 19.2835C20.0012 19.1893 19.9826 19.0959 19.9463 19.0089C19.9101 18.9219 19.8569 18.8429 19.79 18.7766L11.0074 10.0011Z" fill="current"/>
</svg>
