<svg width="20" height="28" viewBox="0 0 20 28" fill="none" xmlns="http://www.w3.org/2000/svg">
<path d="M19 28C18.804 27.9985 18.6127 27.9394 18.45 27.83L10 22.2L1.55 27.83C1.3996 27.9291 1.22525 27.9857 1.04535 27.9938C0.86545 28.002 0.68668 27.9614 0.527924 27.8764C0.369167 27.7914 0.236309 27.6651 0.143387 27.5108C0.0504651 27.3566 0.0009285 27.1801 0 27V1C0 0.734784 0.105356 0.480429 0.292892 0.292892C0.480429 0.105356 0.734784 0 1 0H19C19.2652 0 19.5196 0.105356 19.7071 0.292892C19.8946 0.480429 20 0.734784 20 1V27C19.9995 27.1809 19.95 27.3583 19.8566 27.5133C19.7633 27.6682 19.6297 27.795 19.47 27.88C19.3256 27.958 19.1641 27.9992 19 28ZM10 20C10.196 20.0015 10.3873 20.0606 10.55 20.17L18 25.17V2H2V25.13L9.45 20.13C9.61702 20.0347 9.80798 19.9895 10 20Z" fill="#387E4B"/>
</svg>
