<svg width="40" height="40" viewBox="0 0 40 40" fill="none" xmlns="http://www.w3.org/2000/svg">
<circle cx="20" cy="20" r="20" fill="#387E4B"/>
<path d="M20.027 20C18.8389 20 17.6775 19.6481 16.6896 18.9888C15.7017 18.3295 14.9317 17.3925 14.4771 16.2961C14.0224 15.1997 13.9034 13.9933 14.1352 12.8295C14.367 11.6656 14.9391 10.5965 15.7793 9.75736C16.6194 8.91824 17.6898 8.3468 18.855 8.11529C20.0203 7.88378 21.2282 8.00259 22.3258 8.45672C23.4235 8.91085 24.3617 9.67989 25.0218 10.6666C25.6819 11.6533 26.0342 12.8133 26.0342 14C26.0342 15.5913 25.4013 17.1174 24.2747 18.2426C23.1482 19.3679 21.6202 20 20.027 20ZM20.027 9.71429C19.1783 9.71429 18.3487 9.96564 17.6431 10.4366C16.9375 10.9075 16.3875 11.5768 16.0628 12.3599C15.738 13.143 15.653 14.0048 15.8186 14.8361C15.9841 15.6674 16.3928 16.4311 16.9929 17.0305C17.593 17.6298 18.3575 18.038 19.1899 18.2034C20.0222 18.3687 20.885 18.2839 21.669 17.9595C22.4531 17.6351 23.1232 17.0858 23.5947 16.381C24.0662 15.6762 24.3179 14.8476 24.3179 14C24.3179 12.8634 23.8658 11.7733 23.0611 10.9695C22.2564 10.1658 21.165 9.71429 20.027 9.71429Z" fill="#EDEDED"/>
<path d="M31.1833 31.9996H8.87077C8.65729 32.0006 8.45106 31.9222 8.29238 31.7796C8.1337 31.6369 8.03394 31.4403 8.0126 31.2282C7.89056 28.9971 8.65896 26.8087 10.1494 25.1424C12.2005 22.871 15.513 21.7139 19.9927 21.7139C24.4723 21.7139 27.7935 22.871 29.8531 25.1424C31.3314 26.8158 32.098 28.9991 31.9899 31.2282C31.9698 31.4317 31.8774 31.6214 31.7294 31.7629C31.5815 31.9043 31.3878 31.9883 31.1833 31.9996ZM9.72894 30.2853H30.3251C30.2092 28.7963 29.606 27.3867 28.6087 26.2739C26.8924 24.3882 24.0004 23.4282 20.027 23.4282C16.0537 23.4282 13.1616 24.3967 11.4453 26.2996C10.4515 27.4045 9.84852 28.8048 9.72894 30.2853Z" fill="#EDEDED"/>
</svg>
