<svg width="24" height="24" viewBox="0 0 24 24" fill="none" xmlns="http://www.w3.org/2000/svg">
<path d="M22 1H2C1.73478 1 1.48043 1.10537 1.29289 1.29291C1.10536 1.48044 1 1.73478 1 2V22C1 22.2652 1.10536 22.5196 1.29289 22.7071C1.48043 22.8946 1.73478 23 2 23H22C22.2652 23 22.5196 22.8946 22.7071 22.7071C22.8946 22.5196 23 22.2652 23 22V2C23 1.73478 22.8946 1.48044 22.7071 1.29291C22.5196 1.10537 22.2652 1 22 1ZM21 21H3V3H21V21Z" fill="current"/>
<path d="M10.2902 16.71C10.3836 16.8027 10.4944 16.876 10.6163 16.9258C10.7381 16.9756 10.8686 17.0008 11.0002 17H11.0702C11.2135 16.9897 11.3528 16.9486 11.4788 16.8796C11.6047 16.8106 11.7144 16.7152 11.8002 16.6L17.8002 8.60002C17.879 8.49496 17.9363 8.37539 17.9689 8.24818C18.0015 8.12096 18.0087 7.98859 17.9901 7.85859C17.9716 7.72859 17.9276 7.60352 17.8607 7.49052C17.7937 7.37752 17.7052 7.27881 17.6002 7.20002C17.4951 7.12123 17.3756 7.06388 17.2484 7.03129C17.1212 6.9987 16.9888 6.99148 16.8588 7.01005C16.7288 7.02862 16.6037 7.07263 16.4907 7.13954C16.3777 7.20644 16.279 7.29495 16.2002 7.4L10.8902 14.48L7.71019 11.29C7.52189 11.1017 7.26648 10.9959 7.00018 10.9959C6.73388 10.9959 6.47848 11.1017 6.29018 11.29C6.10187 11.4783 5.99609 11.7337 5.99609 12C5.99609 12.2663 6.10187 12.5217 6.29018 12.71L10.2902 16.71Z" fill="current"/>
</svg>
