<svg width="current" height="current" viewBox="0 0 24 24" fill="none" xmlns="http://www.w3.org/2000/svg">
<path d="M23.8902 19.3268L20.5577 12.6533V8.57547C20.6101 7.43653 20.4245 6.29918 20.0125 5.23607C19.6005 4.17296 18.9713 3.20746 18.1651 2.40126C17.3589 1.59506 16.3934 0.965874 15.3303 0.553904C14.2672 0.141934 13.1299 -0.0437599 11.9909 0.00867545C10.852 -0.0437599 9.71463 0.141934 8.65152 0.553904C7.58841 0.965874 6.62291 1.59506 5.81671 2.40126C5.01051 3.20746 4.38133 4.17296 3.96936 5.23607C3.55739 6.29918 3.37169 7.43653 3.42413 8.57547V12.6533L0.0916421 19.3268C0.0259262 19.4572 -0.00536113 19.6023 0.00075074 19.7482C0.00686261 19.8941 0.0501714 20.036 0.126564 20.1604C0.202956 20.2849 0.309895 20.3878 0.437227 20.4593C0.564558 20.5308 0.708054 20.5685 0.854087 20.569H7.79319C7.98981 21.5373 8.51514 22.4078 9.28016 23.0331C10.0452 23.6584 11.0029 24 11.9909 24C12.979 24 13.9366 23.6584 14.7017 23.0331C15.4667 22.4078 15.992 21.5373 16.1886 20.569H23.1278C23.2738 20.5685 23.4173 20.5308 23.5446 20.4593C23.6719 20.3878 23.7789 20.2849 23.8553 20.1604C23.9317 20.036 23.975 19.8941 23.9811 19.7482C23.9872 19.6023 23.9559 19.4572 23.8902 19.3268ZM11.9909 22.2823C11.4607 22.2808 10.9439 22.1154 10.5114 21.8087C10.0789 21.5019 9.75183 21.0689 9.57508 20.569H14.4068C14.23 21.0689 13.903 21.5019 13.4705 21.8087C13.038 22.1154 12.5212 22.2808 11.9909 22.2823ZM2.24191 18.8556L5.04325 13.2444C5.1044 13.125 5.13668 12.993 5.13748 12.8589V8.57547C5.08391 7.66146 5.22448 6.74647 5.54994 5.8907C5.87541 5.03492 6.37839 4.25776 7.0258 3.61035C7.67321 2.96294 8.45037 2.45996 9.30615 2.13449C10.1619 1.80903 11.0769 1.66846 11.9909 1.72203C12.9049 1.66846 13.8199 1.80903 14.6757 2.13449C15.5315 2.45996 16.3086 2.96294 16.956 3.61035C17.6034 4.25776 18.1064 5.03492 18.4319 5.8907C18.7574 6.74647 18.8979 7.66146 18.8444 8.57547V12.8589C18.8452 12.993 18.8774 13.125 18.9386 13.2444L21.7399 18.8556H2.24191Z" fill="#767676"/>
</svg>
