<svg 
  width="current" 
  height="current" 
  viewBox="0 0 40 40" 
  fill="none" 
  xmlns="http://www.w3.org/2000/svg">
  <g clip-path="url(#clip0)">
    <path d="M30.3201 26.2482C29.6496 25.5774 28.8451 25.0559 27.9592 24.7176C27.0732 24.3794 26.1259 24.2321 25.1791 24.2854C24.3414 24.278 23.5071 24.3935 22.7029 24.6282C21.0007 23.1748 18.8019 22.4375 16.5679 22.5711C13.7746 22.5711 11.5897 23.4283 10.0988 25.014C8.64293 26.7405 7.89579 28.9551 8.00812 31.2111C8.02539 31.4264 8.12323 31.6271 8.28208 31.7733C8.44094 31.9195 8.64911 32.0004 8.86496 31.9997H31.1427C31.3586 32.0004 31.5667 31.9195 31.7256 31.7733C31.8844 31.6271 31.9823 31.4264 31.9996 31.2111C32.0869 29.4039 31.4869 27.6307 30.3201 26.2482ZM11.3584 26.1797C12.5151 24.9283 14.2716 24.2854 16.5679 24.2854C18.096 24.2206 19.6078 24.621 20.9035 25.434C20.5605 25.6701 20.2444 25.9431 19.961 26.2482C18.9725 27.3725 18.3822 28.7915 18.2816 30.2854H9.71322C9.78605 28.771 10.3654 27.3251 11.3584 26.1797ZM20.0381 30.2854C20.1198 29.2192 20.5402 28.2071 21.2377 27.3968C21.5198 27.1101 21.8432 26.8674 22.1973 26.6768C22.9254 27.7462 23.349 28.9936 23.4226 30.2854H20.0381ZM25.1277 30.2854C25.0552 28.8092 24.6228 27.3732 23.8682 26.1025C24.287 26.0311 24.7114 25.9967 25.1363 25.9997C25.8488 25.9482 26.5643 26.0459 27.237 26.2864C27.9098 26.527 28.525 26.9052 29.0435 27.3968C29.7518 28.2036 30.1841 29.2156 30.2773 30.2854H25.1277Z" 
    fill="current"/>
    <path d="M25.9936 12.2857H27.7072V14C27.7072 14.2273 27.7975 14.4453 27.9582 14.6061C28.1189 14.7668 28.3368 14.8571 28.5641 14.8571C28.7913 14.8571 29.0092 14.7668 29.1699 14.6061C29.3306 14.4453 29.4209 14.2273 29.4209 14V12.2857H31.1346C31.3618 12.2857 31.5798 12.1954 31.7404 12.0347C31.9011 11.8739 31.9914 11.6559 31.9914 11.4286C31.9914 11.2012 31.9011 10.9832 31.7404 10.8225C31.5798 10.6617 31.3618 10.5714 31.1346 10.5714H29.4209V8.85714C29.4209 8.62981 29.3306 8.4118 29.1699 8.25105C29.0092 8.09031 28.7913 8 28.5641 8C28.3368 8 28.1189 8.09031 27.9582 8.25105C27.7975 8.4118 27.7072 8.62981 27.7072 8.85714V10.5714H25.9936C25.7663 10.5714 25.5484 10.6617 25.3877 10.8225C25.227 10.9832 25.1367 11.2012 25.1367 11.4286C25.1367 11.6559 25.227 11.8739 25.3877 12.0347C25.5484 12.1954 25.7663 12.2857 25.9936 12.2857Z" 
    fill="current"/>
    <path d="M25.1368 22.571C25.8147 22.571 26.4773 22.3699 27.041 21.9932C27.6046 21.6165 28.0439 21.081 28.3033 20.4545C28.5627 19.828 28.6305 19.1386 28.4983 18.4736C28.3661 17.8085 28.0396 17.1976 27.5603 16.7181C27.081 16.2386 26.4703 15.912 25.8055 15.7797C25.1406 15.6475 24.4515 15.7154 23.8252 15.9749C23.199 16.2344 22.6637 16.6738 22.2871 17.2376C21.9105 17.8015 21.7095 18.4643 21.7095 19.1424C21.7095 20.0518 22.0706 20.9238 22.7133 21.5668C23.3561 22.2098 24.2278 22.571 25.1368 22.571ZM25.1368 17.4282C25.4758 17.4282 25.8071 17.5287 26.0889 17.7171C26.3707 17.9054 26.5903 18.1732 26.72 18.4864C26.8497 18.7997 26.8837 19.1443 26.8176 19.4769C26.7515 19.8094 26.5882 20.1149 26.3486 20.3546C26.1089 20.5944 25.8036 20.7576 25.4711 20.8238C25.1387 20.8899 24.7941 20.856 24.481 20.7262C24.1679 20.5965 23.9003 20.3768 23.712 20.0948C23.5237 19.8129 23.4231 19.4815 23.4231 19.1424C23.4231 18.6878 23.6037 18.2517 23.9251 17.9303C24.2464 17.6088 24.6823 17.4282 25.1368 17.4282Z" 
    fill="current"/>
    <path d="M16.5684 20.8576C17.4157 20.8576 18.244 20.6062 18.9485 20.1353C19.6531 19.6644 20.2022 18.995 20.5264 18.2119C20.8507 17.4288 20.9355 16.5671 20.7702 15.7358C20.6049 14.9044 20.1969 14.1408 19.5977 13.5414C18.9986 12.942 18.2352 12.5338 17.4042 12.3685C16.5731 12.2031 15.7117 12.288 14.9289 12.6124C14.146 12.9367 13.4769 13.4861 13.0062 14.1908C12.5354 14.8956 12.2842 15.7242 12.2842 16.5719C12.2842 17.7085 12.7356 18.7986 13.539 19.6023C14.3424 20.406 15.4321 20.8576 16.5684 20.8576ZM16.5684 14.0004C17.0768 14.0004 17.5738 14.1512 17.9965 14.4338C18.4192 14.7163 18.7486 15.1179 18.9432 15.5878C19.1378 16.0577 19.1887 16.5747 19.0895 17.0735C18.9903 17.5723 18.7455 18.0305 18.386 18.3901C18.0265 18.7498 17.5685 18.9946 17.0698 19.0939C16.5712 19.1931 16.0544 19.1422 15.5847 18.9475C15.115 18.7529 14.7135 18.4233 14.4311 18.0005C14.1486 17.5776 13.9979 17.0804 13.9979 16.5719C13.9979 15.8899 14.2687 15.2358 14.7507 14.7536C15.2328 14.2713 15.8866 14.0004 16.5684 14.0004Z" 
    fill="current"/>
  </g>
  <defs>
    <clipPath id="clip0">
      <rect 
        width="24" 
        height="24" 
        fill="white" 
        transform="translate(8 8)"
      />
    </clipPath>
  </defs>
</svg>
