<svg 
  width="current" 
  height="current" 
  viewBox="0 0 24 24" 
  fill="none" 
  xmlns="http://www.w3.org/2000/svg">
  <path d="M14.0315 14C12.6454 14 11.2904 13.5895 10.1378 12.8203C8.98532 12.0511 8.08701 10.9579 7.55656 9.67879C7.02611 8.39971 6.88732 6.99224 7.15774 5.63437C7.42816 4.2765 8.09567 3.02922 9.07581 2.05025C10.056 1.07128 11.3047 0.404605 12.6642 0.134509C14.0237 -0.135588 15.4329 0.00302595 16.7135 0.532839C17.9941 1.06265 19.0887 1.95987 19.8588 3.11101C20.6289 4.26215 21.0399 5.61553 21.0399 7C21.0399 8.85652 20.3015 10.637 18.9872 11.9498C17.6728 13.2625 15.8902 14 14.0315 14ZM14.0315 2C13.0414 2 12.0735 2.29325 11.2503 2.84265C10.4271 3.39206 9.78545 4.17295 9.40656 5.08658C9.02767 6.00021 8.92851 7.00555 9.12167 7.97545C9.31483 8.94536 9.79162 9.83628 10.4917 10.5355C11.1918 11.2348 12.0838 11.711 13.0549 11.9039C14.0259 12.0969 15.0325 11.9978 15.9472 11.6194C16.8619 11.241 17.6438 10.6001 18.1938 9.77785C18.7439 8.9556 19.0375 7.98891 19.0375 7C19.0375 5.67392 18.5101 4.40215 17.5713 3.46446C16.6325 2.52678 15.3592 2 14.0315 2Z" 
  fill="current"/>
  <path d="M27.0471 28H1.0159C0.766834 28.0012 0.526241 27.9097 0.34111 27.7433C0.155978 27.5769 0.0396023 27.3475 0.0146986 27.1C-0.127677 24.4971 0.768788 21.9439 2.50768 20C4.90055 17.35 8.76519 16 13.9915 16C19.2177 16 23.0924 17.35 25.4953 20C27.22 21.9523 28.1144 24.4994 27.9883 27.1C27.9647 27.3375 27.8569 27.5588 27.6843 27.7238C27.5118 27.8889 27.2857 27.9868 27.0471 28ZM2.0171 26H26.0459C25.9107 24.2628 25.2071 22.6183 24.0435 21.32C22.0411 19.12 18.6671 18 14.0315 18C9.39596 18 6.02191 19.13 4.0195 21.35C2.86011 22.6391 2.1566 24.2728 2.0171 26Z" 
  fill="current"/>
</svg>
