<svg 
  width="current" 
  height="current" 
  viewBox="0 0 40 40" 
  fill="none" 
  xmlns="http://www.w3.org/2000/svg">
  <path d="M29.2308 30H10.7692C10.5652 30 10.3696 29.919 10.2253 29.7747C10.081 29.6304 10 29.4348 10 29.2308V10.7692C10 10.5652 10.081 10.3696 10.2253 10.2253C10.3696 10.081 10.5652 10 10.7692 10H29.2308C29.4348 10 29.6304 10.081 29.7747 10.2253C29.919 10.3696 30 10.5652 30 10.7692V29.2308C30 29.4348 29.919 29.6304 29.7747 29.7747C29.6304 29.919 29.4348 30 29.2308 30ZM11.5385 28.4615H28.4615V11.5385H11.5385V28.4615Z" 
  fill="current"/>
  <path d="M14.6149 26.1541C14.4109 26.1541 14.2153 26.073 14.071 25.9288C13.9267 25.7845 13.8457 25.5889 13.8457 25.3848V13.8464C13.8457 13.6424 13.9267 13.4467 14.071 13.3025C14.2153 13.1582 14.4109 13.0771 14.6149 13.0771C14.8189 13.0771 15.0146 13.1582 15.1589 13.3025C15.3031 13.4467 15.3842 13.6424 15.3842 13.8464V25.3848C15.3842 25.5889 15.3031 25.7845 15.1589 25.9288C15.0146 26.073 14.8189 26.1541 14.6149 26.1541Z" 
  fill="current"/>
  <path d="M25.3842 23.0771C25.1802 23.0771 24.9846 22.9961 24.8403 22.8518C24.696 22.7076 24.615 22.5119 24.615 22.3079V13.8464C24.615 13.6424 24.696 13.4467 24.8403 13.3025C24.9846 13.1582 25.1802 13.0771 25.3842 13.0771C25.5882 13.0771 25.7839 13.1582 25.9281 13.3025C26.0724 13.4467 26.1535 13.6424 26.1535 13.8464V22.3079C26.1535 22.5119 26.0724 22.7076 25.9281 22.8518C25.7839 22.9961 25.5882 23.0771 25.3842 23.0771Z" 
  fill="current"/>
  <path d="M19.9997 20.0002C19.7957 20.0002 19.6 19.9192 19.4558 19.7749C19.3115 19.6307 19.2305 19.435 19.2305 19.231V13.8464C19.2305 13.6424 19.3115 13.4467 19.4558 13.3025C19.6 13.1582 19.7957 13.0771 19.9997 13.0771C20.2037 13.0771 20.3994 13.1582 20.5436 13.3025C20.6879 13.4467 20.7689 13.6424 20.7689 13.8464V19.231C20.7689 19.435 20.6879 19.6307 20.5436 19.7749C20.3994 19.9192 20.2037 20.0002 19.9997 20.0002Z" 
  fill="current"/>
</svg>
