<svg width="28" height="28" viewBox="0 0 28 28" fill="none" xmlns="http://www.w3.org/2000/svg">
<path d="M27.8719 22.5479L23.984 14.7621V10.0047C24.0452 8.67596 23.8285 7.34905 23.3479 6.10875C22.8673 4.86846 22.1332 3.74204 21.1926 2.80147C20.2521 1.8609 19.1257 1.12685 17.8854 0.646221C16.6451 0.16559 15.3182 -0.0510532 13.9894 0.0101214C12.6606 -0.0510532 11.3337 0.16559 10.0934 0.646221C8.85315 1.12685 7.72673 1.8609 6.78616 2.80147C5.8456 3.74204 5.11155 4.86846 4.63092 6.10875C4.15029 7.34905 3.93364 8.67596 3.99481 10.0047V14.7621L0.106916 22.5479C0.0302473 22.7001 -0.00625465 22.8693 0.000875864 23.0395C0.00800637 23.2097 0.0585333 23.3753 0.147658 23.5205C0.236782 23.6657 0.361545 23.7857 0.510098 23.8691C0.658651 23.9526 0.826063 23.9966 0.996435 23.9971H9.09206C9.32145 25.1268 9.93433 26.1425 10.8269 26.872C11.7194 27.6015 12.8367 28 13.9894 28C15.1421 28 16.2594 27.6015 17.152 26.872C18.0445 26.1425 18.6574 25.1268 18.8868 23.9971H26.9824C27.1527 23.9966 27.3202 23.9526 27.4687 23.8691C27.6173 23.7857 27.742 23.6657 27.8312 23.5205C27.9203 23.3753 27.9708 23.2097 27.9779 23.0395C27.9851 22.8693 27.9486 22.7001 27.8719 22.5479ZM13.9894 25.9961C13.3708 25.9943 12.7679 25.8013 12.2633 25.4434C11.7587 25.0856 11.3771 24.5804 11.1709 23.9971H16.8079C16.6017 24.5804 16.2201 25.0856 15.7155 25.4434C15.2109 25.8013 14.608 25.9943 13.9894 25.9961ZM2.61556 21.9982L5.88379 15.4518C5.95514 15.3125 5.99279 15.1585 5.99373 15.002V10.0047C5.93123 8.93837 6.09522 7.87089 6.47493 6.87248C6.85464 5.87408 7.44146 4.96738 8.19677 4.21207C8.95208 3.45676 9.85877 2.86995 10.8572 2.49024C11.8556 2.11053 12.9231 1.94653 13.9894 2.00904C15.0557 1.94653 16.1232 2.11053 17.1216 2.49024C18.12 2.86995 19.0267 3.45676 19.782 4.21207C20.5374 4.96738 21.1242 5.87408 21.5039 6.87248C21.8836 7.87089 22.0476 8.93837 21.9851 10.0047V15.002C21.986 15.1585 22.0237 15.3125 22.095 15.4518L25.3633 21.9982H2.61556Z" fill="#767676"/>
</svg>
