<svg width="24" height="24" viewBox="0 0 24 24" fill="none" xmlns="http://www.w3.org/2000/svg">
<path d="M20 5H18V4C18 3.73478 17.8946 3.48044 17.7071 3.29291C17.5196 3.10537 17.2652 3 17 3C16.7348 3 16.4804 3.10537 16.2929 3.29291C16.1054 3.48044 16 3.73478 16 4V5H8V4C8 3.73478 7.89463 3.48044 7.70709 3.29291C7.51956 3.10537 7.26522 3 7 3C6.73478 3 6.48044 3.10537 6.29291 3.29291C6.10537 3.48044 6 3.73478 6 4V5H4C3.73478 5 3.48044 5.10537 3.29291 5.29291C3.10537 5.48044 3 5.73478 3 6V20C3 20.2652 3.10537 20.5196 3.29291 20.7071C3.48044 20.8946 3.73478 21 4 21H20C20.2652 21 20.5196 20.8946 20.7071 20.7071C20.8946 20.5196 21 20.2652 21 20V6C21 5.73478 20.8946 5.48044 20.7071 5.29291C20.5196 5.10537 20.2652 5 20 5ZM6 7V8C6 8.26522 6.10537 8.51956 6.29291 8.70709C6.48044 8.89463 6.73478 9 7 9C7.26522 9 7.51956 8.89463 7.70709 8.70709C7.89463 8.51956 8 8.26522 8 8V7H16V8C16 8.26522 16.1054 8.51956 16.2929 8.70709C16.4804 8.89463 16.7348 9 17 9C17.2652 9 17.5196 8.89463 17.7071 8.70709C17.8946 8.51956 18 8.26522 18 8V7H19V10H5V7H6ZM5 19V12H19V19H5Z" fill="#767676"/>
<path d="M14.2902 13.2902L12.0002 15.5902L10.7102 14.2902C10.5219 14.1019 10.2665 13.9961 10.0002 13.9961C9.73388 13.9961 9.4785 14.1019 9.29019 14.2902C9.10189 14.4785 8.99609 14.7339 8.99609 15.0002C8.99609 15.2665 9.10189 15.5219 9.29019 15.7102L11.2902 17.7102C11.3832 17.8039 11.4937 17.8783 11.6156 17.9291C11.7375 17.9798 11.8682 18.006 12.0002 18.006C12.1322 18.006 12.2629 17.9798 12.3848 17.9291C12.5066 17.8783 12.6172 17.8039 12.7102 17.7102L15.7102 14.7102C15.8985 14.5219 16.0043 14.2665 16.0043 14.0002C16.0043 13.7339 15.8985 13.4785 15.7102 13.2902C15.5219 13.1019 15.2665 12.9961 15.0002 12.9961C14.7339 12.9961 14.4785 13.1019 14.2902 13.2902Z" fill="#767676"/>
</svg>
