<svg width="24" height="24" viewBox="0 0 24 24" fill="none" xmlns="http://www.w3.org/2000/svg">
<path d="M22.7636 8.5C22.7684 8.46014 22.7684 8.41986 22.7636 8.38C22.7685 8.32344 22.7685 8.26659 22.7636 8.21002C22.7679 8.18017 22.7679 8.14985 22.7636 8.12C22.7475 8.08134 22.7274 8.04448 22.7036 8.01001C22.7036 8.01001 22.7036 7.94999 22.6536 7.92999H22.6036L22.5436 7.84998L19.5436 5.20001V2C19.5436 1.73478 19.4383 1.48044 19.2507 1.29291C19.0632 1.10537 18.8088 1 18.5436 1H5.19362C4.92841 1 4.67404 1.10537 4.4865 1.29291C4.29896 1.48044 4.19362 1.73478 4.19362 2V5.13L1.19362 7.78003L1.12361 7.85999H1.07363C1.07363 7.85999 1.07363 7.92 1.07363 7.94L1.00362 8.04999V8.14001C0.998794 8.19658 0.998794 8.25343 1.00362 8.31C1.00362 8.31 1.00362 8.38999 1.00362 8.42999V23C1.00362 23.2652 1.10896 23.5196 1.2965 23.7071C1.48403 23.8946 1.7384 24 2.00362 24H21.8936C22.1588 24 22.4132 23.8946 22.6007 23.7071C22.7883 23.5196 22.8936 23.2652 22.8936 23V8.5H22.7636ZM20.1936 8.5L19.4536 9.04999V7.84998L20.1936 8.5ZM17.4536 3V10.52L11.8736 14.75L6.24361 10.52V3H17.4536ZM4.19362 9L3.4536 8.44L4.19362 7.78998V9ZM2.87361 22V10.53L11.2236 16.8C11.3967 16.9298 11.6073 17 11.8236 17C12.04 17 12.2505 16.9298 12.4236 16.8L20.7636 10.53V22H2.87361Z" fill="#191919"/>
<path d="M8.50342 7H15.1334C15.3986 7 15.653 6.89463 15.8405 6.70709C16.0281 6.51956 16.1334 6.26522 16.1334 6C16.1334 5.73478 16.0281 5.48044 15.8405 5.29291C15.653 5.10537 15.3986 5 15.1334 5H8.50342C8.2382 5 7.98383 5.10537 7.7963 5.29291C7.60876 5.48044 7.50342 5.73478 7.50342 6C7.50342 6.26522 7.60876 6.51956 7.7963 6.70709C7.98383 6.89463 8.2382 7 8.50342 7Z" fill="#191919"/>
<path d="M8.50342 10H12.9234C13.1886 10 13.443 9.89463 13.6305 9.70709C13.8181 9.51956 13.9234 9.26522 13.9234 9C13.9234 8.73478 13.8181 8.48044 13.6305 8.29291C13.443 8.10537 13.1886 8 12.9234 8H8.50342C8.2382 8 7.98383 8.10537 7.7963 8.29291C7.60876 8.48044 7.50342 8.73478 7.50342 9C7.50342 9.26522 7.60876 9.51956 7.7963 9.70709C7.98383 9.89463 8.2382 10 8.50342 10Z" fill="#191919"/>
</svg>
