<svg width="24" height="24" viewBox="0 0 24 24" fill="none" xmlns="http://www.w3.org/2000/svg">
<path d="M22 23H2C1.73478 23 1.48043 22.8946 1.29289 22.7071C1.10536 22.5196 1 22.2652 1 22V9.68999C1.00037 9.53727 1.03571 9.38667 1.10332 9.24973C1.17092 9.11278 1.26898 8.99314 1.39 8.89998L11.39 1.20999C11.5649 1.07538 11.7793 1.00238 12 1.00238C12.2207 1.00238 12.4351 1.07538 12.61 1.20999L22.61 8.89998C22.731 8.99314 22.8291 9.11278 22.8967 9.24973C22.9643 9.38667 22.9996 9.53727 23 9.68999V22C23 22.2652 22.8946 22.5196 22.7071 22.7071C22.5196 22.8946 22.2652 23 22 23ZM3 21H21V10.18L12 3.25998L3 10.18V21Z" fill="#191919"/>
</svg>
