<svg width="20" height="20" viewBox="0 0 20 20" fill="none" xmlns="http://www.w3.org/2000/svg">
<path d="M11.0067 9.99878L19.7888 1.22385C19.9233 1.0894 19.9988 0.907046 19.9988 0.71691C19.9988 0.526773 19.9233 0.344419 19.7888 0.209972C19.6544 0.0755251 19.472 0 19.2819 0C19.0917 0 18.9094 0.0755251 18.7749 0.209972L10 8.99205L1.22507 0.209972C1.09062 0.0755251 0.908267 0 0.71813 0C0.527993 0 0.345639 0.0755251 0.211192 0.209972C0.0767453 0.344419 0.0012202 0.526773 0.0012202 0.71691C0.0012202 0.907046 0.0767453 1.0894 0.211192 1.22385L8.99327 9.99878L0.211192 18.7737C0.144271 18.8401 0.0911572 18.9191 0.0549089 19.0061C0.0186606 19.0931 0 19.1864 0 19.2806C0 19.3749 0.0186606 19.4682 0.0549089 19.5552C0.0911572 19.6422 0.144271 19.7212 0.211192 19.7876C0.277567 19.8545 0.356536 19.9076 0.443542 19.9439C0.530548 19.9801 0.623875 19.9988 0.71813 19.9988C0.812385 19.9988 0.905712 19.9801 0.992718 19.9439C1.07972 19.9076 1.15869 19.8545 1.22507 19.7876L10 11.0055L18.7749 19.7876C18.8413 19.8545 18.9203 19.9076 19.0073 19.9439C19.0943 19.9801 19.1876 19.9988 19.2819 19.9988C19.3761 19.9988 19.4695 19.9801 19.5565 19.9439C19.6435 19.9076 19.7224 19.8545 19.7888 19.7876C19.8557 19.7212 19.9088 19.6422 19.9451 19.5552C19.9813 19.4682 20 19.3749 20 19.2806C20 19.1864 19.9813 19.0931 19.9451 19.0061C19.9088 18.9191 19.8557 18.8401 19.7888 18.7737L11.0067 9.99878Z" fill="#387E4B"/>
</svg>
