<svg width="24" height="24" viewBox="0 0 24 24" fill="current" xmlns="http://www.w3.org/2000/svg">
<path d="M12.9025 13.0823C12.1478 13.0823 11.4101 12.8585 10.7826 12.4393C10.155 12.02 9.66595 11.424 9.37714 10.7268C9.08833 10.0295 9.01276 9.26228 9.15999 8.52208C9.30723 7.78188 9.67066 7.10197 10.2043 6.56831C10.738 6.03466 11.4179 5.67124 12.1581 5.52401C12.8983 5.37677 13.6655 5.45233 14.3628 5.74114C15.06 6.02996 15.656 6.51904 16.0752 7.14655C16.4945 7.77406 16.7183 8.51181 16.7183 9.26651C16.7183 10.2785 16.3163 11.2491 15.6007 11.9647C14.8851 12.6803 13.9145 13.0823 12.9025 13.0823ZM12.9025 6.54092C12.3634 6.54092 11.8365 6.70077 11.3882 7.00027C10.94 7.29976 10.5907 7.72544 10.3844 8.22347C10.1781 8.72151 10.1241 9.26954 10.2293 9.79825C10.3345 10.327 10.594 10.8126 10.9752 11.1938C11.3564 11.575 11.842 11.8346 12.3708 11.9397C12.8995 12.0449 13.4475 11.9909 13.9455 11.7846C14.4436 11.5783 14.8693 11.229 15.1687 10.7808C15.4682 10.3325 15.6281 9.80559 15.6281 9.26651C15.6281 8.54364 15.3409 7.85037 14.8298 7.33923C14.3186 6.82808 13.6254 6.54092 12.9025 6.54092Z" fill="current"/>
<path d="M20.0146 20.7166H5.82454C5.68877 20.7173 5.55762 20.665 5.4567 20.5697C5.35578 20.4745 5.29234 20.3432 5.27876 20.2015C5.20115 18.7117 5.68983 17.2503 6.63774 16.1376C7.94213 14.6208 10.0488 13.8481 12.8978 13.8481C15.7467 13.8481 17.8589 14.6208 19.1687 16.1376C20.1089 17.2551 20.5964 18.713 20.5277 20.2015C20.5148 20.3374 20.4561 20.4641 20.362 20.5586C20.2679 20.653 20.1447 20.7091 20.0146 20.7166ZM6.37031 19.5719H19.4689C19.3951 18.5776 19.0116 17.6363 18.3773 16.8932C17.2858 15.634 15.4465 14.9929 12.9196 14.9929C10.3927 14.9929 8.55341 15.6397 7.46186 16.9103C6.82985 17.6482 6.44636 18.5833 6.37031 19.5719Z" fill="current"/>
<path d="M16.3093 4.76953H20.1251" stroke="#767676" stroke-linecap="round"/>
<path d="M18.2173 2.86182L18.2173 6.67762" stroke="#767676" stroke-linecap="round"/>
</svg>
