<svg width="24" height="24" viewBox="0 0 24 24" fill="none" xmlns="http://www.w3.org/2000/svg">
<path d="M12.0054 11.38C12.933 11.38 13.8398 11.1049 14.6111 10.5896C15.3823 10.0742 15.9835 9.34178 16.3384 8.48479C16.6934 7.62781 16.7863 6.6848 16.6053 5.77503C16.4244 4.86526 15.9777 4.02958 15.3218 3.37368C14.6659 2.71777 13.8302 2.27109 12.9204 2.09012C12.0106 1.90916 11.0676 2.00202 10.2106 2.357C9.35365 2.71197 8.62118 3.3131 8.10583 4.08437C7.59049 4.85564 7.31543 5.76241 7.31543 6.69001C7.31543 7.93387 7.80954 9.12679 8.68909 10.0063C9.56863 10.8859 10.7616 11.38 12.0054 11.38ZM12.0054 4C12.5375 4 13.0575 4.15776 13.4999 4.45334C13.9423 4.74892 14.2871 5.16905 14.4907 5.66059C14.6943 6.15212 14.7475 6.69298 14.6437 7.21479C14.5399 7.7366 14.2838 8.21592 13.9076 8.59212C13.5314 8.96832 13.052 9.22452 12.5302 9.32831C12.0084 9.43211 11.4675 9.37884 10.976 9.17524C10.4845 8.97164 10.0643 8.62685 9.76877 8.18448C9.47319 7.74211 9.31543 7.22204 9.31543 6.69001C9.31806 5.97738 9.60233 5.29469 10.1062 4.79079C10.6101 4.28689 11.2928 4.00264 12.0054 4Z" fill="#767676"/>
<path d="M19.3658 15.59C17.8158 13.88 15.3658 13 12.0158 13C8.70579 13 6.24578 13.88 4.69579 15.59C3.54115 16.8524 2.93351 18.5207 3.00578 20.23C3.03066 20.4775 3.14689 20.7069 3.3318 20.8733C3.51671 21.0397 3.75702 21.1312 4.00578 21.13H20.0058C20.2545 21.1312 20.4949 21.0397 20.6798 20.8733C20.8647 20.7069 20.9809 20.4775 21.0058 20.23C21.0916 18.5277 20.5023 16.8603 19.3658 15.59ZM5.07579 19.15C5.20902 18.3138 5.5845 17.535 6.15578 16.91C7.31578 15.65 9.27579 15.01 11.9858 15C14.7058 15 16.6758 15.65 17.8358 16.91C18.407 17.535 18.7826 18.3138 18.9158 19.15H5.07579Z" fill="#767676"/>
</svg>
