<svg width="current" height="current" viewBox="0 0 24 24" fill="none" xmlns="http://www.w3.org/2000/svg">
<path d="M22 1H2C1.73478 1 1.48044 1.10537 1.29291 1.29291C1.10537 1.48044 1 1.73478 1 2V22C1 22.2652 1.10537 22.5196 1.29291 22.7071C1.48044 22.8946 1.73478 23 2 23H22C22.2652 23 22.5196 22.8946 22.7071 22.7071C22.8946 22.5196 23 22.2652 23 22V2C23 1.73478 22.8946 1.48044 22.7071 1.29291C22.5196 1.10537 22.2652 1 22 1ZM21 21H3V3H21V21Z" 
fill="current"/>
<path d="M8.50001 16.86C8.6493 16.9548 8.82321 17.0035 9.00001 17.0001C9.17518 17.0013 9.3476 16.9564 9.50001 16.8701L16.5 12.8701C16.6539 12.7828 16.7819 12.6563 16.871 12.5035C16.96 12.3507 17.007 12.177 17.007 12.0001C17.007 11.8232 16.96 11.6495 16.871 11.4966C16.7819 11.3438 16.6539 11.2173 16.5 11.1301L9.50001 7.13007C9.34799 7.0423 9.17554 6.99609 9.00001 6.99609C8.82447 6.99609 8.65203 7.0423 8.50001 7.13007C8.34887 7.21732 8.22319 7.3426 8.13548 7.49347C8.04776 7.64434 8.00106 7.81554 8.00001 7.99005V15.9901C7.99931 16.1663 8.04517 16.3395 8.13297 16.4923C8.22078 16.6451 8.3474 16.7719 8.50001 16.86ZM10 9.72006L14 12.0001L10 14.2801V9.72006Z" 
fill="current"/>
</svg>
