<svg width="24" height="24" viewBox="0 0 24 24" fill="current" xmlns="http://www.w3.org/2000/svg">
<g clip-path="url(#clip0)">
<path d="M20.5996 15.207C20.0409 14.648 19.3704 14.2134 18.6322 13.9315C17.8939 13.6496 17.1044 13.5269 16.3154 13.5713C15.6173 13.5651 14.9221 13.6614 14.2519 13.857C12.8334 12.6458 11.0011 12.0314 9.13944 12.1428C6.8117 12.1428 4.99093 12.857 3.74852 14.1785C2.53529 15.6173 1.91267 17.4628 2.00628 19.3428C2.02067 19.5221 2.1022 19.6894 2.23458 19.8113C2.36696 19.9331 2.54043 20.0005 2.72031 19.9999H21.2851C21.465 20.0005 21.6384 19.9331 21.7708 19.8113C21.9032 19.6894 21.9847 19.5221 21.9991 19.3428C22.072 17.8368 21.5719 16.3591 20.5996 15.207ZM4.79814 15.1499C5.76209 14.107 7.22584 13.5713 9.13944 13.5713C10.4128 13.5173 11.6727 13.851 12.7524 14.5285C12.4666 14.7252 12.2032 14.9528 11.967 15.207C11.1433 16.1439 10.6514 17.3264 10.5675 18.5713H3.4272C3.48788 17.3094 3.97071 16.1044 4.79814 15.1499ZM12.0313 18.5713C12.0994 17.6828 12.4497 16.8394 13.0309 16.1642C13.266 15.9253 13.5355 15.723 13.8306 15.5642C14.4374 16.4553 14.7903 17.4948 14.8517 18.5713H12.0313ZM16.2726 18.5713C16.2122 17.3412 15.8518 16.1445 15.223 15.0856C15.572 15.0261 15.9257 14.9974 16.2797 14.9999C16.8735 14.957 17.4698 15.0384 18.0304 15.2388C18.591 15.4393 19.1037 15.7545 19.5357 16.1642C20.126 16.8365 20.4863 17.6799 20.5639 18.5713H16.2726Z" fill="current"/>
<path d="M16.2804 12.143C16.8453 12.143 17.3975 11.9754 17.8672 11.6615C18.3369 11.3475 18.703 10.9013 18.9192 10.3792C19.1353 9.85716 19.1919 9.28268 19.0817 8.72845C18.9715 8.17422 18.6995 7.66513 18.3 7.26555C17.9006 6.86597 17.3917 6.59385 16.8376 6.48361C16.2836 6.37337 15.7093 6.42995 15.1875 6.6462C14.6656 6.86245 14.2195 7.22866 13.9057 7.69851C13.5918 8.16837 13.4243 8.72076 13.4243 9.28585C13.4243 10.0436 13.7252 10.7703 14.2609 11.3062C14.7965 11.842 15.5229 12.143 16.2804 12.143ZM16.2804 7.85728C16.5629 7.85728 16.839 7.94107 17.0738 8.09804C17.3087 8.25502 17.4917 8.47813 17.5998 8.73916C17.7079 9.0002 17.7362 9.28744 17.6811 9.56456C17.626 9.84167 17.49 10.0962 17.2902 10.296C17.0905 10.4958 16.836 10.6318 16.559 10.687C16.282 10.7421 15.9949 10.7138 15.7339 10.6057C15.473 10.4976 15.25 10.3145 15.0931 10.0795C14.9361 9.8446 14.8524 9.5684 14.8524 9.28585C14.8524 8.90697 15.0028 8.54361 15.2706 8.2757C15.5385 8.00779 15.9017 7.85728 16.2804 7.85728Z" fill="current"/>
<path d="M9.14047 10.7142C9.84657 10.7142 10.5368 10.5047 11.1239 10.1123C11.7111 9.71982 12.1686 9.16205 12.4388 8.50945C12.7091 7.85686 12.7798 7.13876 12.642 6.44597C12.5043 5.75318 12.1642 5.11681 11.6649 4.61734C11.1656 4.11786 10.5295 3.77772 9.83698 3.63991C9.14443 3.50211 8.42658 3.57284 7.77422 3.84315C7.12186 4.11346 6.56428 4.57123 6.17199 5.15855C5.7797 5.74586 5.57031 6.43636 5.57031 7.14272C5.57031 8.08992 5.94646 8.99833 6.61599 9.66811C7.28553 10.3379 8.1936 10.7142 9.14047 10.7142ZM9.14047 4.99987C9.56413 4.99987 9.97829 5.12554 10.3306 5.361C10.6828 5.59646 10.9574 5.93113 11.1195 6.32268C11.2816 6.71424 11.324 7.1451 11.2414 7.56077C11.1587 7.97644 10.9547 8.35827 10.6551 8.65795C10.3556 8.95764 9.97389 9.16172 9.55836 9.2444C9.14284 9.32709 8.71215 9.28465 8.32073 9.12246C7.92931 8.96028 7.59475 8.68563 7.35938 8.33324C7.124 7.98084 6.99837 7.56654 6.99837 7.14272C6.99837 6.5744 7.22407 6.02936 7.62579 5.62749C8.02751 5.22563 8.57235 4.99987 9.14047 4.99987Z" fill="current"/>
</g>
<defs>
<clipPath id="clip0">
<rect width="20" height="20" fill="current" transform="translate(2)"/>
</clipPath>
</defs>
</svg>
