<svg width="18" height="18" viewBox="0 0 18 18" fill="none" xmlns="http://www.w3.org/2000/svg">
<path d="M9 0C7.21996 0 5.47992 0.527852 3.99987 1.51678C2.51983 2.50572 1.36627 3.91131 0.685084 5.55585C0.00389528 7.20038 -0.174329 9.00997 0.172938 10.7558C0.520205 12.5016 1.37737 14.1053 2.63604 15.364C3.89471 16.6226 5.49837 17.4798 7.2442 17.8271C8.99003 18.1743 10.7996 17.9961 12.4441 17.3149C14.0887 16.6337 15.4943 15.4802 16.4832 14.0001C17.4721 12.5201 18 10.78 18 9C18 6.61305 17.0518 4.32387 15.3639 2.63605C13.6761 0.94822 11.3869 0 9 0ZM13.68 9L9.67999 12.73C9.49507 12.9015 9.25219 12.9968 9 12.9968C8.7478 12.9968 8.50492 12.9015 8.32 12.73L4.32 9C4.21351 8.91365 4.12591 8.80632 4.06265 8.68469C3.99939 8.56306 3.96182 8.42973 3.95227 8.29297C3.94271 8.15621 3.96137 8.01892 4.00711 7.88968C4.05284 7.76043 4.12466 7.64197 4.2181 7.54166C4.31155 7.44134 4.42464 7.36132 4.55032 7.30655C4.676 7.25178 4.8116 7.22342 4.94869 7.22327C5.08579 7.22311 5.22145 7.25115 5.34725 7.30563C5.47306 7.36012 5.58631 7.43991 5.67999 7.54001L9 10.63L12.32 7.54001C12.4137 7.43991 12.5269 7.36012 12.6527 7.30563C12.7785 7.25115 12.9142 7.22311 13.0513 7.22327C13.1884 7.22342 13.324 7.25178 13.4497 7.30655C13.5754 7.36132 13.6884 7.44134 13.7819 7.54166C13.8753 7.64197 13.9472 7.76043 13.9929 7.88968C14.0386 8.01892 14.0573 8.15621 14.0477 8.29297C14.0382 8.42973 14.0006 8.56306 13.9373 8.68469C13.8741 8.80632 13.7865 8.91365 13.68 9Z" fill="#9A9A9A"/>
</svg>
