<svg width="24" height="24" viewBox="0 0 24 24"  xmlns="http://www.w3.org/2000/svg"  fill="current">
<path d="M12.9023 13.0828C12.1476 13.0828 11.4098 12.859 10.7823 12.4397C10.1548 12.0205 9.6657 11.4245 9.37689 10.7273C9.08808 10.03 9.01251 9.26277 9.15975 8.52257C9.30698 7.78237 9.67042 7.10245 10.2041 6.5688C10.7377 6.03515 11.4176 5.67173 12.1578 5.5245C12.898 5.37726 13.6653 5.45282 14.3625 5.74163C15.0598 6.03044 15.6557 6.51953 16.075 7.14704C16.4943 7.77455 16.7181 8.5123 16.7181 9.267C16.7181 10.279 16.3161 11.2496 15.6005 11.9652C14.8848 12.6808 13.9143 13.0828 12.9023 13.0828ZM12.9023 6.54141C12.3632 6.54141 11.8362 6.70126 11.388 7.00075C10.9398 7.30025 10.5904 7.72592 10.3841 8.22396C10.1779 8.722 10.1239 9.27002 10.229 9.79874C10.3342 10.3275 10.5938 10.8131 10.975 11.1943C11.3562 11.5755 11.8418 11.8351 12.3705 11.9402C12.8992 12.0454 13.4473 11.9914 13.9453 11.7851C14.4433 11.5788 14.869 11.2295 15.1685 10.7813C15.468 10.333 15.6278 9.80607 15.6278 9.267C15.6278 8.54413 15.3407 7.85086 14.8295 7.33972C14.3184 6.82857 13.6251 6.54141 12.9023 6.54141Z" fill="current"/>
<path d="M20.0144 20.7171H5.82429C5.68852 20.7178 5.55737 20.6654 5.45645 20.5702C5.35553 20.4749 5.2921 20.3437 5.27852 20.202C5.20091 18.7121 5.68959 17.2508 6.63749 16.1381C7.94189 14.6213 10.0486 13.8486 12.8975 13.8486C15.7465 13.8486 17.8586 14.6213 19.1685 16.1381C20.1086 17.2556 20.5962 18.7135 20.5274 20.202C20.5146 20.3379 20.4558 20.4646 20.3618 20.559C20.2677 20.6535 20.1445 20.7096 20.0144 20.7171ZM6.37007 19.5724H19.4686C19.3949 18.578 19.0113 17.6368 18.3771 16.8937C17.2855 15.6344 15.4463 14.9934 12.9193 14.9934C10.3924 14.9934 8.55316 15.6402 7.46161 16.9108C6.82961 17.6487 6.44611 18.5838 6.37007 19.5724Z"  fill="current"/>
<path d="M16.3091 4.76953H20.1249" stroke="#767676" stroke-linecap="round"  fill="current"/>
<path d="M18.2173 2.8623L18.2173 6.67811" stroke="#767676" stroke-linecap="round"  fill="current"/>
</svg>

