<svg width="current" height="current" viewBox="0 0 24 24" fill="none" xmlns="http://www.w3.org/2000/svg">
<path d="M21.68 5.76001L15.68 0.26001L15.5 0.160004C15.4604 0.127629 15.4167 0.100704 15.37 0.0799866C15.2536 0.0276785 15.1276 0.000435584 15 0H3C2.73478 0 2.48043 0.105371 2.29289 0.292908C2.10536 0.480444 2 0.734784 2 1V23C2 23.2652 2.10536 23.5196 2.29289 23.7071C2.48043 23.8946 2.73478 24 3 24H21C21.2652 24 21.5196 23.8946 21.7071 23.7071C21.8946 23.5196 22 23.2652 22 23V6.5C22.0009 6.3612 21.973 6.22372 21.9179 6.09631C21.8628 5.96891 21.7818 5.85439 21.68 5.76001ZM16 3.26999L19 6H16V3.26999ZM4 22V2H14V7C14 7.26522 14.1054 7.51956 14.2929 7.70709C14.4804 7.89463 14.7348 8 15 8H20V22H4Z" 
fill="current"/>
<path d="M17 13H7C6.73478 13 6.48043 13.1054 6.29289 13.2929C6.10536 13.4804 6 13.7348 6 14C6 14.2652 6.10536 14.5196 6.29289 14.7071C6.48043 14.8946 6.73478 15 7 15H17C17.2652 15 17.5196 14.8946 17.7071 14.7071C17.8946 14.5196 18 14.2652 18 14C18 13.7348 17.8946 13.4804 17.7071 13.2929C17.5196 13.1054 17.2652 13 17 13Z" 
fill="current"/>
<path d="M13 17H7C6.73478 17 6.48043 17.1054 6.29289 17.2929C6.10536 17.4804 6 17.7348 6 18C6 18.2652 6.10536 18.5196 6.29289 18.7071C6.48043 18.8946 6.73478 19 7 19H13C13.2652 19 13.5196 18.8946 13.7071 18.7071C13.8946 18.5196 14 18.2652 14 18C14 17.7348 13.8946 17.4804 13.7071 17.2929C13.5196 17.1054 13.2652 17 13 17Z" 
fill="current"/>
</svg>
