<svg width="24" height="24" viewBox="0 0 24 24" fill="none" xmlns="http://www.w3.org/2000/svg">
<path d="M5.45455 3H3.81818C3.36631 3 3 3.40294 3 3.9V5.7C3 6.19706 3.36631 6.6 3.81818 6.6H5.45455C5.90641 6.6 6.27273 6.19706 6.27273 5.7V3.9C6.27273 3.40294 5.90641 3 5.45455 3Z" fill="#767676"/>
<path d="M5.45455 10.2002H3.81818C3.36631 10.2002 3 10.6031 3 11.1002V12.9002C3 13.3973 3.36631 13.8002 3.81818 13.8002H5.45455C5.90641 13.8002 6.27273 13.3973 6.27273 12.9002V11.1002C6.27273 10.6031 5.90641 10.2002 5.45455 10.2002Z" fill="#767676"/>
<path d="M5.45455 17.3999H3.81818C3.36631 17.3999 3 17.8028 3 18.2999V20.0999C3 20.597 3.36631 20.9999 3.81818 20.9999H5.45455C5.90641 20.9999 6.27273 20.597 6.27273 20.0999V18.2999C6.27273 17.8028 5.90641 17.3999 5.45455 17.3999Z" fill="#767676"/>
<path d="M8.72724 5.6999H20.1818C20.3988 5.6999 20.6069 5.60507 20.7603 5.43629C20.9138 5.2675 21 5.0386 21 4.7999C21 4.56121 20.9138 4.3323 20.7603 4.16352C20.6069 3.99474 20.3988 3.8999 20.1818 3.8999H8.72724C8.51024 3.8999 8.30214 3.99474 8.1487 4.16352C7.99526 4.3323 7.90906 4.56121 7.90906 4.7999C7.90906 5.0386 7.99526 5.2675 8.1487 5.43629C8.30214 5.60507 8.51024 5.6999 8.72724 5.6999Z" fill="#767676"/>
<path d="M20.1818 11.1001H8.72724C8.51024 11.1001 8.30214 11.1949 8.1487 11.3637C7.99526 11.5325 7.90906 11.7614 7.90906 12.0001C7.90906 12.2388 7.99526 12.4677 8.1487 12.6365C8.30214 12.8053 8.51024 12.9001 8.72724 12.9001H20.1818C20.3988 12.9001 20.6069 12.8053 20.7603 12.6365C20.9138 12.4677 21 12.2388 21 12.0001C21 11.7614 20.9138 11.5325 20.7603 11.3637C20.6069 11.1949 20.3988 11.1001 20.1818 11.1001Z" fill="#767676"/>
<path d="M20.1818 18.2998H8.72724C8.51024 18.2998 8.30214 18.3946 8.1487 18.5634C7.99526 18.7322 7.90906 18.9611 7.90906 19.1998C7.90906 19.4385 7.99526 19.6674 8.1487 19.8362C8.30214 20.005 8.51024 20.0998 8.72724 20.0998H20.1818C20.3988 20.0998 20.6069 20.005 20.7603 19.8362C20.9138 19.6674 21 19.4385 21 19.1998C21 18.9611 20.9138 18.7322 20.7603 18.5634C20.6069 18.3946 20.3988 18.2998 20.1818 18.2998Z" fill="#767676"/>
</svg>
