<svg width="24" height="24" viewBox="0 0 24 24" fill="current" xmlns="http://www.w3.org/2000/svg">
<path d="M20.3659 12.6599C20.2027 12.4774 20.1127 12.2429 20.1127 12C20.1127 11.7571 20.2027 11.5226 20.3659 11.3401L21.6688 9.90028C21.8123 9.74297 21.9015 9.54504 21.9234 9.33487C21.9454 9.1247 21.899 8.91311 21.7909 8.73044L19.7552 5.27092C19.6482 5.08846 19.4853 4.94384 19.2898 4.85766C19.0942 4.77148 18.8759 4.74814 18.6661 4.79098L16.7525 5.17093C16.509 5.22035 16.2555 5.18052 16.0398 5.05894C15.8242 4.93737 15.6613 4.74247 15.5819 4.51102L14.961 2.68127C14.8927 2.48267 14.7626 2.31018 14.5891 2.18818C14.4156 2.06617 14.2074 2.00082 13.994 2.00136H9.92255C9.70058 1.98998 9.48093 2.05028 9.29713 2.17305C9.11333 2.29582 8.9755 2.47431 8.90468 2.68127L8.33467 4.51102C8.25527 4.74247 8.09239 4.93737 7.87674 5.05894C7.6611 5.18052 7.40761 5.22035 7.16412 5.17093L5.19963 4.79098C5.00068 4.76336 4.79787 4.7942 4.61674 4.87961C4.43561 4.96501 4.28426 5.10117 4.18176 5.27092L2.14601 8.73044C2.03523 8.91107 1.98542 9.12148 2.0037 9.33159C2.02198 9.5417 2.10742 9.74075 2.2478 9.90028L3.5405 11.3401C3.70368 11.5226 3.79368 11.7571 3.79368 12C3.79368 12.2429 3.70368 12.4774 3.5405 12.6599L2.2478 14.0997C2.10742 14.2593 2.02198 14.4583 2.0037 14.6684C1.98542 14.8785 2.03523 15.0889 2.14601 15.2696L4.18176 18.7291C4.28873 18.9115 4.45161 19.0562 4.64718 19.1423C4.84275 19.2285 5.06102 19.2519 5.27088 19.209L7.18447 18.8291C7.42797 18.7796 7.68145 18.8195 7.8971 18.9411C8.11274 19.0626 8.27563 19.2575 8.35503 19.489L8.97593 21.3187C9.04675 21.5257 9.18459 21.7042 9.36838 21.8269C9.55218 21.9497 9.77183 22.01 9.9938 21.9986H14.0653C14.2787 21.9992 14.4868 21.9338 14.6604 21.8118C14.8339 21.6898 14.964 21.5173 15.0323 21.3187L15.6532 19.489C15.7326 19.2575 15.8954 19.0626 16.1111 18.9411C16.3267 18.8195 16.5802 18.7796 16.8237 18.8291L18.7373 19.209C18.9472 19.2519 19.1654 19.2285 19.361 19.1423C19.5566 19.0562 19.7195 18.9115 19.8264 18.7291L21.8622 15.2696C21.9702 15.0869 22.0166 14.8753 21.9947 14.6651C21.9727 14.455 21.8836 14.257 21.74 14.0997L20.3659 12.6599ZM18.8493 13.9997L19.6636 14.8996L18.3607 17.1193L17.1596 16.8793C16.4265 16.7321 15.6639 16.8545 15.0166 17.2231C14.3692 17.5917 13.8822 18.181 13.648 18.8791L13.2612 19.9989H10.6554L10.289 18.8591C10.0547 18.161 9.5677 17.5717 8.92036 17.2031C8.27301 16.8345 7.51042 16.7121 6.77733 16.8593L5.57624 17.0993L4.25301 14.8896L5.0673 13.9897C5.56805 13.4398 5.84489 12.7278 5.84489 11.99C5.84489 11.2522 5.56805 10.5402 5.0673 9.99027L4.25301 9.0904L5.55588 6.89069L6.75697 7.13066C7.49006 7.27786 8.25266 7.15554 8.9 6.78691C9.54734 6.41828 10.0344 5.829 10.2686 5.13093L10.6554 4.00109H13.2612L13.648 5.14093C13.8822 5.839 14.3692 6.42827 15.0166 6.79691C15.6639 7.16554 16.4265 7.28786 17.1596 7.14066L18.3607 6.90069L19.6636 9.12039L18.8493 10.0203C18.3541 10.569 18.0807 11.2768 18.0807 12.01C18.0807 12.7432 18.3541 13.451 18.8493 13.9997ZM11.9583 8.00054C11.153 8.00054 10.3658 8.23511 9.69629 8.67457C9.02674 9.11404 8.50489 9.73867 8.19673 10.4695C7.88857 11.2003 7.80794 12.0044 7.96504 12.7803C8.12214 13.5561 8.50991 14.2687 9.07931 14.828C9.64872 15.3874 10.3742 15.7683 11.164 15.9226C11.9538 16.0769 12.7724 15.9977 13.5164 15.695C14.2603 15.3923 14.8962 14.8797 15.3436 14.222C15.791 13.5643 16.0298 12.791 16.0298 12C16.0298 10.9393 15.6008 9.922 14.8373 9.17196C14.0737 8.42191 13.0381 8.00054 11.9583 8.00054ZM11.9583 13.9997C11.5557 13.9997 11.1621 13.8824 10.8273 13.6627C10.4925 13.443 10.2316 13.1307 10.0775 12.7653C9.92343 12.3999 9.88311 11.9978 9.96166 11.6099C10.0402 11.222 10.2341 10.8656 10.5188 10.586C10.8035 10.3063 11.1662 10.1159 11.5611 10.0387C11.956 9.96154 12.3653 10.0011 12.7373 10.1525C13.1093 10.3038 13.4273 10.5602 13.6509 10.889C13.8746 11.2179 13.994 11.6045 13.994 12C13.994 12.5304 13.7795 13.039 13.3978 13.414C13.016 13.789 12.4982 13.9997 11.9583 13.9997Z" fill="current"/>
</svg>
