<svg width="262" height="183" viewBox="0 0 262 183" fill="none" xmlns="http://www.w3.org/2000/svg">
<g clip-path="url(#clip0)">
<path d="M73.0517 180.577C49.3898 167.713 38.4004 154.564 38.4004 128.197C38.4004 87.8116 72.9627 53.8092 118.621 53.8092C164.28 53.8092 203.642 82.2185 203.642 122.595C203.642 132.689 202.146 147.267 193.579 152.105L180.221 180.577" fill="white"/>
<path d="M180.114 181.367C179.756 181.369 179.403 181.29 179.081 181.136C177.861 180.568 177.469 180.763 178.039 179.547L191.7 150.374L192.377 149.992C198.067 146.778 201.193 137.048 201.193 122.595C201.193 104.209 192.51 87.2965 176.748 74.9739C161.288 62.9 140.645 56.2416 118.621 56.2416C97.3995 56.2416 77.656 63.8411 63.0688 77.6284C48.7309 91.1583 40.805 109.118 40.805 128.232C40.805 151.928 49.5413 165.076 74.1828 178.472C74.4747 178.619 74.7341 178.823 74.9454 179.072C75.1568 179.32 75.3158 179.609 75.4132 179.92C75.5106 180.231 75.5442 180.558 75.5122 180.883C75.4801 181.207 75.383 181.522 75.2267 181.808C75.0703 182.094 74.8578 182.346 74.6018 182.549C74.3459 182.752 74.0517 182.901 73.7367 182.988C73.4217 183.075 73.0923 183.099 72.7681 183.056C72.444 183.014 72.1316 182.908 71.8496 182.743C49.666 170.695 35.9248 157.37 35.9248 128.232C35.9248 107.813 44.3583 88.5926 59.6758 74.1305C75.1892 59.482 96.1082 51.412 118.586 51.412C141.696 51.412 163.407 58.4344 179.722 71.1831C196.696 84.4466 206.047 102.717 206.047 122.675C206.047 138.904 202.484 149.397 195.44 153.89L182.812 180.861C182.456 181.668 181.031 181.367 180.114 181.367Z" fill="#383838"/>
<path d="M152.97 64.5333C143.557 61.9676 142.283 51.0034 148.945 43.91C155.179 37.2871 167.646 33.7004 179.695 40.5452C179.695 40.5452 197.373 49.9558 191.985 73.0206C189.456 83.8427 174.343 85.5562 169.908 75.3555C169.737 74.9758 169.585 74.5876 169.454 74.1925C169.009 72.9569 168.358 71.8045 167.531 70.7833C165.607 68.3597 162.837 65.6342 157.948 65.3235C157.004 65.2613 155.642 65.1636 155.152 65.0749C154.529 64.9594 153.789 64.7553 152.97 64.5333Z" fill="#383838"/>
<path d="M177.545 115C183.164 112.639 186.51 107.863 185.018 104.335C183.526 100.806 177.761 99.8605 172.141 102.222C166.521 104.584 163.175 109.359 164.667 112.888C166.16 116.417 171.925 117.362 177.545 115Z" fill="#FFC5C5"/>
<path d="M89.6859 139.755C95.5408 138.052 99.4152 133.692 98.3396 130.016C97.2641 126.34 91.6459 124.74 85.791 126.442C79.9362 128.144 76.0618 132.505 77.1374 136.181C78.2129 139.857 83.8311 141.457 89.6859 139.755Z" fill="#FFC5C5"/>
<path d="M49.9421 106.668C49.1584 116.363 38.5787 119.647 30.35 114.427C22.6735 109.553 16.8225 97.941 21.3554 84.9171C21.3554 84.9171 27.3666 65.8563 51.0909 66.8772C62.2317 67.3566 66.7112 81.8365 57.4761 88.0777C57.1377 88.3085 56.7816 88.5215 56.4075 88.7346C55.2721 89.3972 54.2574 90.2467 53.4064 91.2471C51.3759 93.5819 49.1941 96.8046 49.7907 101.643C49.9065 102.531 50.0579 103.934 50.0668 104.431C50.0757 105.07 50.0134 105.825 49.9421 106.668Z" fill="#383838"/>
<path d="M144.163 104.936C144.163 104.936 138.525 96.2005 143.984 89.0982C143.984 89.0982 153.273 78.7289 165.358 92.2943C165.358 92.2943 172.972 99.1569 169.677 108.106C169.017 109.936 167.83 111.531 166.265 112.692C164.7 113.853 162.826 114.527 160.878 114.631C156.203 114.888 148.98 113.93 144.163 104.936Z" fill="#383838"/>
<path d="M107.293 117.188C107.293 117.188 109.965 106.721 102.253 101.501C102.253 101.501 89.6693 94.3099 82.2599 111.64C82.2599 111.64 77.0057 120.899 83.2039 128.65C84.4573 130.239 86.1538 131.424 88.0804 132.056C90.007 132.688 92.0778 132.738 94.033 132.201C98.6817 130.922 105.503 127.611 107.293 117.188Z" fill="#383838"/>
<path d="M99.8041 124.059C101.963 124.059 103.714 122.315 103.714 120.162C103.714 118.01 101.963 116.265 99.8041 116.265C97.6449 116.265 95.8945 118.01 95.8945 120.162C95.8945 122.315 97.6449 124.059 99.8041 124.059Z" fill="white"/>
<path d="M152.124 108.692C154.283 108.692 156.033 106.947 156.033 104.795C156.033 102.642 154.283 100.897 152.124 100.897C149.965 100.897 148.214 102.642 148.214 104.795C148.214 106.947 149.965 108.692 152.124 108.692Z" fill="white"/>
<path d="M158.972 127.93C158.674 127.812 158.355 127.754 158.034 127.759C157.714 127.764 157.397 127.831 157.102 127.958C156.808 128.085 156.541 128.269 156.318 128.499C156.095 128.729 155.919 129 155.802 129.298C154.021 133.674 151.758 136.258 148.944 136.959C145.079 137.927 140.929 135.308 139.54 134.296L137.759 128.357C140.27 125.089 141.66 119.967 141.66 119.967C142.239 117.863 140.404 117.694 140.404 117.694C133.146 116.602 125.674 120.056 123.671 121.654C123.404 121.855 123.217 122.142 123.14 122.466C123.064 122.79 123.103 123.131 123.252 123.429C123.684 124.126 124.218 124.755 124.837 125.294C127.015 127.164 129.505 128.639 132.193 129.653C132.506 129.806 132.83 129.934 133.164 130.034L134.945 135.92C134.678 137.217 133.663 140.963 130.492 142.961C127.821 144.674 124.053 144.736 119.351 143.289C118.734 143.094 118.064 143.151 117.488 143.448C116.913 143.745 116.479 144.258 116.283 144.874C116.087 145.49 116.145 146.158 116.443 146.731C116.741 147.305 117.255 147.737 117.873 147.932C120.271 148.736 122.78 149.164 125.309 149.202C128.084 149.261 130.814 148.507 133.164 147.036C135.812 145.255 137.819 142.676 138.89 139.676C141.412 141.163 144.27 141.991 147.199 142.082C148.177 142.083 149.152 141.967 150.102 141.736C154.555 140.635 157.975 137.066 160.334 131.082C160.453 130.786 160.512 130.469 160.507 130.151C160.503 129.832 160.436 129.517 160.309 129.224C160.183 128.932 159.999 128.667 159.77 128.445C159.54 128.223 159.269 128.048 158.972 127.93Z" fill="#383838"/>
<path d="M225.728 104.759C225.728 104.759 232.941 97.9411 241.419 101.581C241.419 101.581 250.28 106.384 248.918 114.347C248.81 115.02 248.556 115.662 248.175 116.227C247.793 116.793 247.293 117.269 246.709 117.623C244.643 118.831 240.636 120.047 234.411 117.366C234.411 117.375 219.227 113.398 225.728 104.759Z" fill="white"/>
<path d="M257.262 95.5791C254.475 91.6284 244.536 84.1355 235.061 84.2065C235.061 84.2065 223.956 82.8571 211.907 101.501L211.648 101.936C209.333 106.002 175.385 168.911 168.902 181.455H208.015C216.217 173.642 252.658 138.779 260.833 110.947C262.356 105.727 260.388 100.018 257.262 95.5791Z" fill="#383838"/>
<path d="M224.205 106.721C224.205 106.721 231.418 99.9028 239.896 103.543C239.896 103.543 248.802 108.346 247.395 116.3C247.288 116.974 247.035 117.615 246.653 118.181C246.272 118.747 245.771 119.223 245.186 119.576C243.12 120.784 239.113 122 232.888 119.319C232.888 119.319 217.704 115.35 224.205 106.721Z" fill="white"/>
<path d="M249.003 101.403C250.033 100.184 249.956 98.4303 248.832 97.4856C247.707 96.5409 245.961 96.7629 244.93 97.9815C243.9 99.2 243.977 100.954 245.102 101.898C246.226 102.843 247.973 102.621 249.003 101.403Z" fill="white"/>
<path d="M252.602 110.131C254.128 109.582 254.961 108.019 254.462 106.64C253.963 105.261 252.321 104.588 250.794 105.137C249.267 105.686 248.434 107.249 248.934 108.628C249.433 110.007 251.075 110.68 252.602 110.131Z" fill="white"/>
<path d="M241.09 95.9723C241.401 94.4092 240.483 92.911 239.04 92.626C237.598 92.341 236.177 93.3771 235.866 94.9402C235.555 96.5034 236.473 98.0015 237.915 98.2866C239.358 98.5716 240.779 97.5354 241.09 95.9723Z" fill="white"/>
<path d="M228.257 99.1569C229.728 99.1569 230.92 97.9684 230.92 96.5024C230.92 95.0364 229.728 93.8479 228.257 93.8479C226.786 93.8479 225.594 95.0364 225.594 96.5024C225.594 97.9684 226.786 99.1569 228.257 99.1569Z" fill="white"/>
<path d="M85.6976 0H85.386C85.386 12.0739 78.1992 21.8751 69.2759 22.0882C78.1814 22.3101 85.386 32.1113 85.386 44.1764H85.6799C85.6799 31.9782 93.0269 22.0793 102.084 22.0793C93.0447 22.0971 85.6976 12.2071 85.6976 0Z" fill="#FFDA3E"/>
<path d="M251.67 150.329H251.483C251.483 157.929 246.959 164.099 241.339 164.232C246.959 164.365 251.483 170.535 251.483 178.135H251.67C251.67 170.456 256.292 164.223 261.991 164.223C256.292 164.241 251.67 158.026 251.67 150.329Z" fill="#FFDA3E"/>
<path d="M9.88485 123.678H9.68896C9.68896 130.957 5.36086 136.87 -0.0180664 136.994C5.32524 137.119 9.68896 143.031 9.68896 150.311H9.86708C9.86708 142.952 14.3198 136.994 19.7611 136.994C14.3109 137.003 9.88485 131.037 9.88485 123.678Z" fill="#FFDA3E"/>
<path d="M213.42 63.7079H213.313C213.313 68.0137 210.749 71.5116 207.569 71.5915C210.749 71.6714 213.313 75.1426 213.313 79.4839H213.42C213.42 75.1249 216.038 71.5915 219.28 71.5915C216.038 71.5915 213.42 68.0581 213.42 63.7079Z" fill="#FFDA3E"/>
</g>
<defs>
<clipPath id="clip0">
<rect width="262" height="183" fill="white"/>
</clipPath>
</defs>
</svg>
