<svg width="200" height="45" viewBox="0 0 200 45" fill="none" xmlns="http://www.w3.org/2000/svg">
<path d="M7.60352 9.3947H19.7725C24.8102 9.3947 28.7029 10.3729 31.4508 12.3293C34.2313 14.2857 35.6216 17.0247 35.6216 20.5463C35.6216 22.7635 34.9346 24.7036 33.5607 26.3666C32.2195 28.0295 30.3713 29.3175 28.016 30.2305C25.6934 31.1109 23.1091 31.5511 20.2632 31.5511H18.2023V43.045H7.60352V9.3947ZM20.3122 24.7525C22.046 24.7525 23.3872 24.3939 24.3358 23.6765C25.2845 22.9592 25.7588 21.9157 25.7588 20.5463C25.7588 19.1768 25.2845 18.1496 24.3358 17.4649C23.4199 16.7802 22.0787 16.4378 20.3122 16.4378H18.2023V24.6547C18.8565 24.7199 19.5598 24.7525 20.3122 24.7525Z" fill="#387E4B"/>
<path d="M47.674 43.4363C45.5477 43.4363 43.5522 42.882 41.6876 41.7733C39.8558 40.6321 38.3837 39.0996 37.2715 37.1758C36.1593 35.2194 35.6032 33.051 35.6032 30.6707C35.6032 28.323 36.1593 26.2036 37.2715 24.3124C38.3837 22.3885 39.8721 20.8886 41.7367 19.8126C43.6013 18.7366 45.5804 18.1986 47.674 18.1986C49.375 18.1986 50.9452 18.6714 52.3846 19.617C53.8566 20.5626 54.9688 21.981 55.7212 23.8722V18.1986H66.0256V43.045H55.7212V38.4963C54.0856 41.7896 51.4032 43.4363 47.674 43.4363ZM50.8634 35.7085C52.1719 35.7085 53.2841 35.252 54.2001 34.339C55.1487 33.3934 55.6558 32.2847 55.7212 31.0131V30.6218C55.6558 29.3175 55.1324 28.2089 54.151 27.2959C53.2024 26.3829 52.1065 25.9264 50.8634 25.9264C49.4895 25.9264 48.3119 26.4155 47.3305 27.3937C46.3819 28.3393 45.9075 29.4805 45.9075 30.8174C45.9075 32.1869 46.3982 33.3445 47.3796 34.2901C48.361 35.2357 49.5222 35.7085 50.8634 35.7085Z" fill="#387E4B"/>
<path d="M69.5236 18.8833H79.3864V23.8722C81.2837 20.0898 84.2932 18.1986 88.4149 18.1986C91.5553 18.1986 94.0087 19.3235 95.7752 21.5734C97.5744 23.7906 98.474 26.872 98.474 30.8174V43.045H88.1696V29.7903C88.1696 28.3882 87.8588 27.3122 87.2373 26.5622C86.6485 25.8123 85.8143 25.4373 84.7348 25.4373C83.9497 25.4373 83.181 25.6981 82.4286 26.2199C81.6762 26.709 81.0547 27.4263 80.564 28.3719C80.106 29.3175 79.877 30.3935 79.877 31.6V43.045H69.5236V18.8833Z" fill="#387E4B"/>
<path d="M112.484 43.4363C110.26 43.4363 108.232 42.8494 106.4 41.6755C104.6 40.5017 103.177 38.9528 102.131 37.029C101.084 35.0726 100.561 33.0021 100.561 30.8174C100.561 28.5023 101.1 26.3829 102.18 24.4591C103.292 22.5027 104.764 20.9701 106.596 19.8615C108.461 18.7529 110.44 18.1986 112.533 18.1986C114.431 18.1986 116.033 18.5898 117.342 19.3724C118.683 20.155 119.763 21.4103 120.58 23.1385V10.8131L130.934 9.29688V43.045H120.58V38.4963C119.043 41.7896 116.344 43.4363 112.484 43.4363ZM115.723 35.7085C117.097 35.7085 118.241 35.2194 119.157 34.2412C120.106 33.2629 120.58 32.1217 120.58 30.8174V30.6218C120.58 29.3501 120.09 28.2578 119.108 27.3448C118.127 26.3992 116.998 25.9264 115.723 25.9264C114.349 25.9264 113.187 26.4155 112.239 27.3937C111.323 28.3393 110.865 29.4805 110.865 30.8174C110.865 32.1869 111.339 33.3445 112.288 34.2901C113.269 35.2357 114.414 35.7085 115.723 35.7085Z" fill="#387E4B"/>
<path d="M145.324 43.4363C143.198 43.4363 141.202 42.882 139.338 41.7733C137.506 40.6321 136.034 39.0996 134.921 37.1758C133.809 35.2194 133.253 33.051 133.253 30.6707C133.253 28.323 133.809 26.2036 134.921 24.3124C136.034 22.3885 137.522 20.8886 139.387 19.8126C141.251 18.7366 143.23 18.1986 145.324 18.1986C147.025 18.1986 148.595 18.6714 150.034 19.617C151.507 20.5626 152.619 21.981 153.371 23.8722V18.1986H163.675V43.045H153.371V38.4963C151.736 41.7896 149.053 43.4363 145.324 43.4363ZM148.513 35.7085C149.822 35.7085 150.934 35.252 151.85 34.339C152.799 33.3934 153.306 32.2847 153.371 31.0131V30.6218C153.306 29.3175 152.782 28.2089 151.801 27.2959C150.852 26.3829 149.756 25.9264 148.513 25.9264C147.139 25.9264 145.962 26.4155 144.98 27.3937C144.032 28.3393 143.557 29.4805 143.557 30.8174C143.557 32.1869 144.048 33.3445 145.029 34.2901C146.011 35.2357 147.172 35.7085 148.513 35.7085Z" fill="#387E4B"/>
<path d="M167.91 9.3947H177.772L191.217 27.5404V9.3947H200V43.045H190.187L176.644 25.5351V43.045H167.91V9.3947Z" fill="#387E4B"/>
<path d="M37.1978 15.0923C36.3817 13.5619 33.6838 12.2768 32.4369 11.8255C31.6748 11.5121 30.8498 10.8238 30.5325 10.5188C29.0504 8.60905 29.9697 6.20221 30.6145 5.23751C34.6175 1.65669 39.1912 3.53658 40.9777 4.92414C44.1704 7.54191 44.0814 11.2431 43.6378 12.7664C42.0616 17.8183 38.6877 16.4219 37.1978 15.0923Z" fill="black"/>
<path d="M9.30269 15.0923C10.1188 13.5619 12.8167 12.2768 14.0636 11.8255C14.8257 11.5121 15.6507 10.8238 15.968 10.5188C17.4501 8.60905 16.5308 6.20221 15.8859 5.23751C11.883 1.65669 7.3093 3.53658 5.52283 4.92414C2.33005 7.54191 2.41905 11.2431 2.86264 12.7664C4.43888 17.8183 7.81278 16.4219 9.30269 15.0923Z" fill="black"/>
</svg>
