<svg width="438" height="35" viewBox="0 0 438 35" fill="none" xmlns="http://www.w3.org/2000/svg">
<path d="M11.5716 2.8H0.843641V28H7.79164V21.052H11.5716C16.9356 21.052 20.9316 17.2 20.9316 11.908C20.9316 6.652 16.9356 2.8 11.5716 2.8ZM10.7436 15.004H7.79164V8.884H10.7436C12.5796 8.884 13.7676 10.144 13.7676 11.944C13.7676 13.744 12.5796 15.004 10.7436 15.004ZM23.7228 28H30.4188V1.54H23.7228V28ZM50.3172 8.56L49.6332 10.072C48.0492 8.74 45.9972 7.984 43.6932 7.984C37.7532 7.984 33.5052 12.268 33.5052 18.28C33.5052 24.328 37.7532 28.648 43.6932 28.648C45.9612 28.648 47.9772 27.928 49.5612 26.632L50.1372 28H55.3212V8.56H50.3172ZM44.5932 22.744C42.0732 22.744 40.2372 20.836 40.2372 18.28C40.2372 15.76 42.0732 13.888 44.5932 13.888C47.1132 13.888 48.9492 15.76 48.9492 18.28C48.9492 20.836 47.1132 22.744 44.5932 22.744ZM71.283 8.02C68.763 8.02 66.603 8.956 65.163 10.576L64.263 8.56H59.547V28H66.243V17.632C66.243 15.148 67.431 13.708 69.519 13.708C71.211 13.708 72.075 14.824 72.075 17.092V28H78.771V16.156C78.771 11.224 75.783 8.02 71.283 8.02ZM106.827 14.716C108.735 13.528 109.995 11.512 109.995 9.28C109.995 5.536 106.719 2.836 102.255 2.836H90.8788V28.036H102.507C107.151 28.036 110.679 24.94 110.679 20.836C110.679 18.1 109.203 15.832 106.827 14.716ZM103.407 10.432C103.407 11.728 102.507 12.628 101.067 12.628H97.5388V8.236H101.067C102.507 8.236 103.407 9.1 103.407 10.432ZM101.319 22.312H97.5388V17.74H101.319C102.831 17.74 103.803 18.676 103.803 20.008C103.803 21.376 102.831 22.312 101.319 22.312ZM134.02 18.1C134.02 12.412 129.7 7.948 123.436 7.948C117.316 7.948 112.888 12.34 112.888 18.28C112.888 24.22 117.352 28.648 123.436 28.648C128.296 28.648 132.256 25.876 133.624 21.448H126.928C126.316 22.6 124.984 23.284 123.436 23.284C121.312 23.284 119.908 22.132 119.476 19.9H133.912C133.984 19.288 134.02 18.712 134.02 18.1ZM123.436 13.204C125.452 13.204 126.856 14.248 127.432 16.192H119.584C120.124 14.248 121.492 13.204 123.436 13.204ZM147.333 22.168C145.929 22.168 145.065 21.304 145.065 19.936V13.744H149.781V8.56H144.921V2.908H143.517L134.805 12.16V13.744H138.369V21.052C138.369 25.372 140.997 28 145.281 28H149.889V22.168H147.333ZM163.575 22.168C162.171 22.168 161.307 21.304 161.307 19.936V13.744H166.023V8.56H161.163V2.908H159.759L151.047 12.16V13.744H154.611V21.052C154.611 25.372 157.239 28 161.523 28H166.131V22.168H163.575ZM189.11 18.1C189.11 12.412 184.79 7.948 178.526 7.948C172.406 7.948 167.978 12.34 167.978 18.28C167.978 24.22 172.442 28.648 178.526 28.648C183.386 28.648 187.346 25.876 188.714 21.448H182.018C181.406 22.6 180.074 23.284 178.526 23.284C176.402 23.284 174.998 22.132 174.566 19.9H189.002C189.074 19.288 189.11 18.712 189.11 18.1ZM178.526 13.204C180.542 13.204 181.946 14.248 182.522 16.192H174.674C175.214 14.248 176.582 13.204 178.526 13.204ZM203.028 8.488C200.724 8.488 199.068 9.136 197.7 10.72L196.656 8.56H192.156V28H198.852V18.136C198.852 15.652 199.86 14.608 202.2 14.608H204.828V8.488H203.028ZM205.411 34.3C209.119 33.976 211.675 31.42 211.675 27.496V21.808H205.123V28H208.255C208.255 29.548 207.319 30.844 205.411 30.988V34.3ZM232.697 28.648C238.565 28.648 242.777 25.768 242.777 20.26C242.777 14.536 237.953 13.276 234.209 12.34C231.869 11.728 229.961 11.26 229.961 9.82C229.961 8.632 231.149 8.092 232.373 8.092C233.813 8.092 235.001 8.848 235.001 10.468H241.985C241.985 5.32 238.493 2.224 232.445 2.224C226.505 2.224 222.869 5.068 222.869 10.036C222.869 15.76 227.513 16.876 231.149 17.776C233.561 18.352 235.541 18.82 235.541 20.404C235.541 21.772 234.137 22.564 232.697 22.564C231.113 22.564 229.709 21.664 229.709 19.864H222.545C222.545 25.372 226.541 28.648 232.697 28.648ZM256.247 22.168C254.843 22.168 253.979 21.304 253.979 19.936V13.744H258.695V8.56H253.835V2.908H252.431L243.719 12.16V13.744H247.283V21.052C247.283 25.372 249.911 28 254.195 28H258.803V22.168H256.247ZM277.462 8.56L276.778 10.072C275.194 8.74 273.142 7.984 270.838 7.984C264.898 7.984 260.65 12.268 260.65 18.28C260.65 24.328 264.898 28.648 270.838 28.648C273.106 28.648 275.122 27.928 276.706 26.632L277.282 28H282.466V8.56H277.462ZM271.738 22.744C269.218 22.744 267.382 20.836 267.382 18.28C267.382 15.76 269.218 13.888 271.738 13.888C274.258 13.888 276.094 15.76 276.094 18.28C276.094 20.836 274.258 22.744 271.738 22.744ZM297.564 8.488C295.26 8.488 293.604 9.136 292.236 10.72L291.192 8.56H286.692V28H293.388V18.136C293.388 15.652 294.396 14.608 296.736 14.608H299.364V8.488H297.564ZM312.743 22.168C311.339 22.168 310.475 21.304 310.475 19.936V13.744H315.191V8.56H310.331V2.908H308.927L300.215 12.16V13.744H303.779V21.052C303.779 25.372 306.407 28 310.691 28H315.299V22.168H312.743ZM333.478 21.988V18.208H341.758V12.52H333.478V8.812H342.694V2.8H326.566V28H343.018V21.988H333.478ZM362.048 8.56L361.364 10.072C359.78 8.74 357.728 7.984 355.424 7.984C349.484 7.984 345.236 12.268 345.236 18.28C345.236 24.328 349.484 28.648 355.424 28.648C357.692 28.648 359.708 27.928 361.292 26.632L361.868 28H367.052V8.56H362.048ZM356.324 22.744C353.804 22.744 351.968 20.836 351.968 18.28C351.968 15.76 353.804 13.888 356.324 13.888C358.844 13.888 360.68 15.76 360.68 18.28C360.68 20.836 358.844 22.744 356.324 22.744ZM378.765 28.648C383.949 28.648 387.369 25.984 387.369 21.916C387.369 17.02 383.301 16.372 380.205 15.832C378.369 15.508 376.893 15.22 376.893 14.14C376.893 13.24 377.613 12.7 378.693 12.7C379.881 12.7 380.709 13.276 380.709 14.5H387.009C386.937 10.576 383.697 7.948 378.765 7.948C373.797 7.948 370.449 10.468 370.449 14.356C370.449 19.072 374.445 19.972 377.469 20.476C379.341 20.764 380.817 21.088 380.817 22.204C380.817 23.212 379.881 23.716 378.909 23.716C377.649 23.716 376.641 23.068 376.641 21.628H370.197C370.269 25.84 373.473 28.648 378.765 28.648ZM390.544 6.148H397.168V0.459998H390.544V6.148ZM390.508 28H397.204V8.56H390.508V28ZM421.422 18.1C421.422 12.412 417.102 7.948 410.838 7.948C404.718 7.948 400.29 12.34 400.29 18.28C400.29 24.22 404.754 28.648 410.838 28.648C415.698 28.648 419.658 25.876 421.026 21.448H414.33C413.718 22.6 412.386 23.284 410.838 23.284C408.714 23.284 407.31 22.132 406.878 19.9H421.314C421.386 19.288 421.422 18.712 421.422 18.1ZM410.838 13.204C412.854 13.204 414.258 14.248 414.834 16.192H406.986C407.526 14.248 408.894 13.204 410.838 13.204ZM435.341 8.488C433.037 8.488 431.381 9.136 430.013 10.72L428.969 8.56H424.469V28H431.165V18.136C431.165 15.652 432.173 14.608 434.513 14.608H437.141V8.488H435.341Z" fill="#191919"/>
</svg>
