<svg width="237" height="48" viewBox="0 0 237 48" fill="none" xmlns="http://www.w3.org/2000/svg">
<path d="M9.63963 28.552V3.4H0.231625V37H21.5916V28.552H9.63963ZM38.0733 37.864C46.5212 37.864 52.6173 32.056 52.6173 24.04C52.6173 16.024 46.5212 10.264 38.0733 10.264C29.6253 10.264 23.5773 16.024 23.5773 24.04C23.5773 32.056 29.6253 37.864 38.0733 37.864ZM38.0733 29.848C34.8573 29.848 32.5053 27.496 32.5053 24.088C32.5053 20.632 34.8573 18.28 38.0733 18.28C41.3373 18.28 43.6893 20.68 43.6893 24.088C43.6893 27.496 41.3373 29.848 38.0733 29.848ZM77.6808 11.08L76.7688 13.096C74.6568 11.32 71.9208 10.312 68.8488 10.312C60.9288 10.312 55.2648 16.024 55.2648 24.04C55.2648 32.104 60.9288 37.864 68.8488 37.864C71.8728 37.864 74.5608 36.904 76.6728 35.176L77.4408 37H84.3528V11.08H77.6808ZM70.0488 29.992C66.6888 29.992 64.2408 27.448 64.2408 24.04C64.2408 20.68 66.6888 18.184 70.0488 18.184C73.4088 18.184 75.8568 20.68 75.8568 24.04C75.8568 27.448 73.4088 29.992 70.0488 29.992ZM108.515 1.72V12.04C106.691 10.888 104.483 10.264 102.083 10.264C94.1631 10.264 88.4991 16.024 88.4991 24.04C88.4991 32.104 94.1631 37.912 102.083 37.912C105.107 37.912 107.795 36.856 109.907 35.08L110.771 37H117.347V1.72H108.515ZM103.283 29.992C99.9711 29.992 97.4751 27.448 97.4751 24.088C97.4751 20.68 99.9711 18.136 103.283 18.136C106.643 18.136 109.091 20.68 109.091 24.088C109.091 27.448 106.643 29.992 103.283 29.992ZM122.988 7.864H131.82V0.279998H122.988V7.864ZM122.94 37H131.868V11.08H122.94V37ZM153.12 10.36C149.76 10.36 146.88 11.608 144.96 13.768L143.76 11.08H137.472V37H146.4V23.176C146.4 19.864 147.984 17.944 150.768 17.944C153.024 17.944 154.176 19.432 154.176 22.456V37H163.104V21.208C163.104 14.632 159.12 10.36 153.12 10.36ZM189.193 11.08L188.041 13.288C185.833 11.416 183.001 10.264 179.881 10.264C172.441 10.264 166.921 15.928 166.921 23.32C166.921 30.808 172.441 36.328 179.881 36.328C182.377 36.328 184.681 35.608 186.649 34.408V35.176C186.649 38.248 184.249 40.168 181.225 40.168C179.065 40.168 176.857 39.208 176.233 37.48H167.641C168.841 43.624 173.977 47.32 181.321 47.32C189.865 47.32 195.193 42.28 195.193 34.168V11.128L189.193 11.08ZM181.369 28.984C178.105 28.984 175.801 26.632 175.801 23.32C175.801 20.056 178.153 17.656 181.369 17.656C184.585 17.656 186.889 20.056 186.889 23.32C186.889 26.632 184.585 28.984 181.369 28.984ZM200.511 37H209.199V28.744H200.511V37ZM214.151 37H222.839V28.744H214.151V37ZM227.792 37H236.48V28.744H227.792V37Z" fill="#191919"/>
</svg>
