<?xml version="1.0" encoding="utf-8"?>
<!-- Generator: Adobe Illustrator 25.2.1, SVG Export Plug-In . SVG Version: 6.00 Build 0)  -->
<svg version="1.1" id="Layer_1" xmlns="http://www.w3.org/2000/svg" xmlns:xlink="http://www.w3.org/1999/xlink" x="0px" y="0px"
	 viewBox="0 0 178.2 37.6" style="enable-background:new 0 0 178.2 37.6;" xml:space="preserve">
<style type="text/css">
	.st0{fill:#FFFFFF;}
</style>
<path class="st0" d="M5.7,6.2h10.9c4.5,0,8,0.9,10.5,2.6c2.5,1.8,3.7,4.2,3.7,7.4c0,2-0.6,3.7-1.8,5.2c-1.2,1.5-2.9,2.7-5,3.5
	c-2.1,0.8-4.4,1.2-7,1.2h-1.8v10.3H5.7V6.2z M17.1,20c1.6,0,2.8-0.3,3.6-1c0.9-0.6,1.3-1.6,1.3-2.8s-0.4-2.2-1.3-2.8
	c-0.8-0.6-2-0.9-3.6-0.9h-1.9v7.4C15.8,20,16.4,20,17.1,20z M41.6,36.8c-1.9,0-3.7-0.5-5.4-1.5c-1.6-1-3-2.4-4-4.1
	c-1-1.8-1.5-3.7-1.5-5.9c0-2.1,0.5-4,1.5-5.7c1-1.7,2.3-3.1,4-4c1.7-1,3.4-1.5,5.3-1.5c1.5,0,2.9,0.4,4.2,1.3c1.3,0.9,2.3,2.1,3,3.8
	v-5.1h9.2v22.4h-9.2v-4.1C47.3,35.3,44.9,36.8,41.6,36.8z M44.5,29.8c1.2,0,2.2-0.4,3-1.2c0.9-0.9,1.3-1.8,1.4-3v-0.4
	c-0.1-1.2-0.5-2.2-1.4-3c-0.9-0.8-1.8-1.2-2.9-1.2c-1.2,0-2.3,0.4-3.2,1.3c-0.9,0.9-1.3,1.9-1.3,3.1c0,1.2,0.4,2.3,1.3,3.1
	S43.3,29.8,44.5,29.8z M61.2,14.7H70v4.5c1.7-3.4,4.4-5.1,8.1-5.1c2.8,0,5,1,6.6,3c1.6,2,2.4,4.8,2.4,8.3v11h-9.2V24.5
	c0-1.3-0.3-2.2-0.8-2.9c-0.5-0.7-1.3-1-2.2-1c-0.7,0-1.4,0.2-2.1,0.7c-0.7,0.4-1.2,1.1-1.7,1.9c-0.4,0.9-0.6,1.8-0.6,2.9v10.3h-9.3
	V14.7z M99.7,36.8c-2,0-3.8-0.5-5.5-1.6c-1.6-1.1-2.9-2.4-3.8-4.2c-0.9-1.8-1.4-3.6-1.4-5.6c0-2.1,0.5-4,1.5-5.7
	c1-1.8,2.3-3.1,4-4.1c1.7-1,3.4-1.5,5.3-1.5c1.7,0,3.1,0.4,4.3,1.1c1.2,0.7,2.2,1.8,2.9,3.4V7.4l9.3-1.4v30.4H107v-4.1
	C105.6,35.3,103.2,36.8,99.7,36.8z M102.6,29.8c1.2,0,2.3-0.4,3.1-1.3c0.9-0.9,1.3-1.9,1.3-3.1v-0.2c0-1.1-0.4-2.1-1.3-2.9
	c-0.9-0.9-1.9-1.3-3-1.3c-1.2,0-2.3,0.4-3.1,1.3c-0.8,0.9-1.2,1.9-1.2,3.1c0,1.2,0.4,2.3,1.3,3.1C100.4,29.4,101.4,29.8,102.6,29.8z
	 M129.2,36.8c-1.9,0-3.7-0.5-5.4-1.5c-1.6-1-3-2.4-4-4.1c-1-1.8-1.5-3.7-1.5-5.9c0-2.1,0.5-4,1.5-5.7c1-1.7,2.3-3.1,4-4
	c1.7-1,3.4-1.5,5.3-1.5c1.5,0,2.9,0.4,4.2,1.3c1.3,0.9,2.3,2.1,3,3.8v-5.1h9.2v22.4h-9.2v-4.1C134.9,35.3,132.5,36.8,129.2,36.8z
	 M132,29.8c1.2,0,2.2-0.4,3-1.2c0.9-0.9,1.3-1.8,1.4-3v-0.4c-0.1-1.2-0.5-2.2-1.4-3c-0.9-0.8-1.8-1.2-2.9-1.2
	c-1.2,0-2.3,0.4-3.2,1.3c-0.9,0.9-1.3,1.9-1.3,3.1c0,1.2,0.4,2.3,1.3,3.1C129.8,29.4,130.8,29.8,132,29.8z M149.4,6.2h8.8l12.1,16.3
	V6.2h7.9v30.3h-8.8l-12.1-15.8v15.8h-7.8V6.2z"/>
<path class="st0" d="M29.2,9.6c-0.7-1.2-2.9-2.3-3.9-2.6c-0.6-0.3-1.3-0.8-1.6-1.1c-1.2-1.5-0.5-3.5,0.1-4.3c3.3-2.9,7-1.4,8.5-0.3
	c2.6,2.1,2.5,5.1,2.2,6.3C33.2,11.8,30.4,10.7,29.2,9.6z"/>
<path class="st0" d="M6.4,9.6C7.1,8.4,9.3,7.3,10.3,7c0.6-0.3,1.3-0.8,1.6-1.1c1.2-1.5,0.5-3.5-0.1-4.3c-3.3-2.9-7-1.4-8.5-0.3
	C0.7,3.5,0.8,6.5,1.1,7.7C2.4,11.8,5.2,10.7,6.4,9.6z"/>
</svg>
