<svg width="183" height="73" viewBox="0 0 183 73" fill="none" xmlns="http://www.w3.org/2000/svg">
<path d="M6.86 18.728H17.772C22.2893 18.728 25.78 19.608 28.244 21.368C30.7373 23.128 31.984 25.592 31.984 28.76C31.984 30.7547 31.368 32.5 30.136 33.996C28.9333 35.492 27.276 36.6507 25.164 37.472C23.0813 38.264 20.764 38.66 18.212 38.66H16.364V49H6.86V18.728ZM18.256 32.544C19.8107 32.544 21.0133 32.2213 21.864 31.576C22.7147 30.9307 23.14 29.992 23.14 28.76C23.14 27.528 22.7147 26.604 21.864 25.988C21.0427 25.372 19.84 25.064 18.256 25.064H16.364V32.456C16.9507 32.5147 17.5813 32.544 18.256 32.544ZM42.7915 49.352C40.8848 49.352 39.0955 48.8533 37.4235 47.856C35.7808 46.8293 34.4608 45.4507 33.4635 43.72C32.4662 41.96 31.9675 40.0093 31.9675 37.868C31.9675 35.756 32.4662 33.8493 33.4635 32.148C34.4608 30.4173 35.7955 29.068 37.4675 28.1C39.1395 27.132 40.9142 26.648 42.7915 26.648C44.3168 26.648 45.7248 27.0733 47.0155 27.924C48.3355 28.7747 49.3328 30.0507 50.0075 31.752V26.648H59.2475V49H50.0075V44.908C48.5408 47.8707 46.1355 49.352 42.7915 49.352ZM45.6515 42.4C46.8248 42.4 47.8222 41.9893 48.6435 41.168C49.4942 40.3173 49.9488 39.32 50.0075 38.176V37.824C49.9488 36.6507 49.4795 35.6533 48.5995 34.832C47.7488 34.0107 46.7662 33.6 45.6515 33.6C44.4195 33.6 43.3635 34.04 42.4835 34.92C41.6328 35.7707 41.2075 36.7973 41.2075 38C41.2075 39.232 41.6475 40.2733 42.5275 41.124C43.4075 41.9747 44.4488 42.4 45.6515 42.4ZM62.3842 27.264H71.2282V31.752C72.9296 28.3493 75.6282 26.648 79.3242 26.648C82.1402 26.648 84.3402 27.66 85.9242 29.684C87.5376 31.6787 88.3442 34.4507 88.3442 38V49H79.1042V37.076C79.1042 35.8147 78.8256 34.8467 78.2682 34.172C77.7402 33.4973 76.9922 33.16 76.0242 33.16C75.3202 33.16 74.6309 33.3947 73.9562 33.864C73.2816 34.304 72.7242 34.9493 72.2842 35.8C71.8736 36.6507 71.6682 37.6187 71.6682 38.704V49H62.3842V27.264ZM100.907 49.352C98.9126 49.352 97.0939 48.824 95.4513 47.768C93.8379 46.712 92.5619 45.3187 91.6233 43.588C90.6846 41.828 90.2153 39.9653 90.2153 38C90.2153 35.9173 90.6993 34.0107 91.6673 32.28C92.6646 30.52 93.9846 29.1413 95.6273 28.144C97.2993 27.1467 99.0739 26.648 100.951 26.648C102.653 26.648 104.09 27 105.263 27.704C106.466 28.408 107.434 29.5373 108.167 31.092V20.004L117.451 18.64V49H108.167V44.908C106.789 47.8707 104.369 49.352 100.907 49.352ZM103.811 42.4C105.043 42.4 106.07 41.96 106.891 41.08C107.742 40.2 108.167 39.1733 108.167 38V37.824C108.167 36.68 107.727 35.6973 106.847 34.876C105.967 34.0253 104.955 33.6 103.811 33.6C102.579 33.6 101.538 34.04 100.687 34.92C99.8659 35.7707 99.4553 36.7973 99.4553 38C99.4553 39.232 99.8806 40.2733 100.731 41.124C101.611 41.9747 102.638 42.4 103.811 42.4ZM130.355 49.352C128.448 49.352 126.659 48.8533 124.987 47.856C123.344 46.8293 122.024 45.4507 121.027 43.72C120.03 41.96 119.531 40.0093 119.531 37.868C119.531 35.756 120.03 33.8493 121.027 32.148C122.024 30.4173 123.359 29.068 125.031 28.1C126.703 27.132 128.478 26.648 130.355 26.648C131.88 26.648 133.288 27.0733 134.579 27.924C135.899 28.7747 136.896 30.0507 137.571 31.752V26.648H146.811V49H137.571V44.908C136.104 47.8707 133.699 49.352 130.355 49.352ZM133.215 42.4C134.388 42.4 135.386 41.9893 136.207 41.168C137.058 40.3173 137.512 39.32 137.571 38.176V37.824C137.512 36.6507 137.043 35.6533 136.163 34.832C135.312 34.0107 134.33 33.6 133.215 33.6C131.983 33.6 130.927 34.04 130.047 34.92C129.196 35.7707 128.771 36.7973 128.771 38C128.771 39.232 129.211 40.2733 130.091 41.124C130.971 41.9747 132.012 42.4 133.215 42.4ZM150.608 18.728H159.452L171.508 35.052V18.728H179.384V49H170.584L158.44 33.248V49H150.608V18.728Z" fill="#387E4B"/>
<path d="M30.398 22.1725C29.7311 20.9381 27.5264 19.9015 26.5075 19.5376C25.8847 19.2848 25.2105 18.7296 24.9513 18.4836C23.7402 16.9433 24.4913 15.002 25.0183 14.2239C28.2894 11.3357 32.0269 12.8519 33.4868 13.9711C36.0958 16.0825 36.0231 19.0678 35.6606 20.2965C34.3726 24.3712 31.6155 23.2449 30.398 22.1725Z" fill="black"/>
<path d="M7.60202 22.1725C8.2689 20.9381 10.4736 19.9015 11.4925 19.5376C12.1153 19.2848 12.7895 18.7296 13.0487 18.4836C14.2598 16.9433 13.5087 15.002 12.9817 14.2239C9.71057 11.3357 5.97308 12.8519 4.51323 13.9711C1.90418 16.0825 1.9769 19.0678 2.3394 20.2965C3.62745 24.3712 6.3845 23.2449 7.60202 22.1725Z" fill="black"/>
</svg>
