<svg width="400" height="300" viewBox="0 0 400 300" fill="none" xmlns="http://www.w3.org/2000/svg">
<path d="M262.744 276.583H85.2637C78.0756 276.602 71.079 274.266 65.3438 269.933C41.6138 251.843 -13.9863 198.003 42.5437 123.303C43.2484 122.376 44.0063 121.491 44.8138 120.653C49.6438 115.653 69.2437 93.9528 75.9337 67.6528C76.0237 67.3028 76.1037 66.9528 76.1837 66.5928C77.1837 62.0828 93.4638 21.0028 150.314 21.3728C151.684 21.3728 153.044 21.3728 154.414 21.2728C167.114 20.1828 245.174 17.8028 300.474 115.773C301.119 116.921 301.686 118.11 302.174 119.333C307.544 132.923 336.484 213.873 286.394 266.533C283.337 269.721 279.665 272.256 275.599 273.983C271.534 275.711 267.161 276.595 262.744 276.583Z" fill="#F3F3F3"/>
<path d="M160.704 276.363C136.474 263.153 125.224 249.653 125.224 222.573C125.224 181.133 160.614 146.133 207.404 146.133C254.194 146.133 294.404 175.303 294.404 216.783C294.404 227.143 292.884 242.123 284.114 247.093L270.464 276.323" fill="white"/>
<path d="M270.314 277.183C269.947 277.182 269.585 277.1 269.254 276.943C268.004 276.363 267.604 276.553 268.194 275.303L282.194 245.303L282.884 244.913C288.714 241.613 291.884 231.623 291.884 216.783C291.884 197.893 282.984 180.523 266.884 167.873C251.064 155.473 229.884 148.633 207.374 148.633C185.644 148.633 165.454 156.433 150.494 170.633C135.824 184.533 127.744 202.983 127.744 222.573C127.744 246.913 136.684 260.413 161.924 274.163C162.506 274.481 162.938 275.017 163.124 275.654C163.311 276.291 163.237 276.975 162.919 277.558C162.6 278.14 162.064 278.572 161.427 278.758C160.791 278.945 160.106 278.871 159.524 278.553C136.814 266.173 122.744 252.493 122.744 222.553C122.744 201.553 131.384 181.843 147.064 166.983C162.944 151.983 184.364 143.653 207.374 143.653C231.034 143.653 253.264 150.863 269.974 163.963C287.344 177.583 296.924 196.343 296.924 216.803C296.924 233.463 293.264 244.243 286.064 248.853L273.134 276.563C272.694 277.493 271.254 277.183 270.314 277.183Z" fill="#383838"/>
<path d="M242.523 157.193C232.883 154.553 231.573 143.293 238.403 136.003C244.773 129.213 257.593 125.523 269.883 132.553C269.883 132.553 287.983 142.223 282.463 165.903C279.873 177.023 264.413 178.773 259.863 168.303C259.693 167.923 259.543 167.523 259.403 167.103C258.939 165.832 258.263 164.648 257.403 163.603C255.403 161.123 252.603 158.313 247.603 158.003C246.603 157.943 245.233 157.833 244.733 157.743C244.233 157.653 243.403 157.413 242.523 157.193Z" fill="#383838"/>
<path d="M267.66 209.066C273.416 206.639 276.843 201.735 275.316 198.111C273.788 194.488 267.884 193.518 262.128 195.944C256.372 198.371 252.945 203.275 254.473 206.899C256 210.522 261.904 211.493 267.66 209.066Z" fill="#FFC5C5"/>
<path d="M175.609 237.535C181.611 235.807 185.596 231.343 184.508 227.564C183.42 223.786 177.672 222.123 171.669 223.851C165.667 225.579 161.683 230.043 162.77 233.822C163.858 237.601 169.606 239.263 175.609 237.535Z" fill="#FFC5C5"/>
<path d="M137.044 200.463C136.234 210.413 125.414 213.793 116.984 208.463C109.134 203.463 103.144 191.543 107.784 178.163C107.784 178.163 113.934 158.593 138.234 159.633C149.634 160.133 154.234 175.003 144.764 181.403C144.413 181.649 144.049 181.876 143.674 182.083C142.507 182.76 141.468 183.637 140.604 184.673C138.524 187.053 136.284 190.363 136.904 195.343C137.014 196.343 137.174 197.693 137.174 198.203C137.174 198.713 137.114 199.593 137.044 200.463Z" fill="#383838"/>
<path d="M233.503 198.683C233.503 198.683 227.733 189.683 233.323 182.423C233.323 182.423 242.833 171.773 255.153 185.703C255.153 185.703 262.953 192.703 259.583 201.933C258.911 203.813 257.698 205.453 256.097 206.647C254.496 207.841 252.578 208.535 250.583 208.643C245.833 208.903 238.403 207.923 233.503 198.683Z" fill="#383838"/>
<path d="M195.764 211.233C195.764 211.233 198.504 200.483 190.594 195.123C190.594 195.123 177.714 187.733 170.124 205.533C170.124 205.533 164.744 215.043 171.124 223.003C172.405 224.639 174.141 225.86 176.115 226.511C178.088 227.162 180.21 227.215 182.214 226.663C186.944 225.373 193.924 221.963 195.764 211.233Z" fill="#383838"/>
<path d="M188.094 218.323C190.303 218.323 192.094 216.532 192.094 214.323C192.094 212.114 190.303 210.323 188.094 210.323C185.885 210.323 184.094 212.114 184.094 214.323C184.094 216.532 185.885 218.323 188.094 218.323Z" fill="white"/>
<path d="M241.664 202.543C243.873 202.543 245.664 200.752 245.664 198.543C245.664 196.334 243.873 194.543 241.664 194.543C239.454 194.543 237.664 196.334 237.664 198.543C237.664 200.752 239.454 202.543 241.664 202.543Z" fill="white"/>
<path d="M248.664 222.293C248.359 222.171 248.032 222.112 247.704 222.117C247.376 222.122 247.052 222.192 246.75 222.323C246.449 222.454 246.177 222.644 245.949 222.881C245.722 223.117 245.543 223.397 245.424 223.703C243.644 228.193 241.284 230.843 238.424 231.573C234.424 232.573 230.264 229.873 228.794 228.813L226.934 222.703C228.727 220.069 230.078 217.161 230.934 214.093C231.524 211.933 229.654 211.763 229.654 211.763C222.224 210.633 214.574 214.183 212.524 215.823C212.255 216.027 212.066 216.318 211.987 216.646C211.909 216.974 211.946 217.319 212.094 217.623C212.532 218.342 213.078 218.99 213.714 219.543C215.944 221.463 218.492 222.979 221.244 224.023C221.567 224.177 221.902 224.307 222.244 224.413L224.094 230.463C223.824 231.793 222.774 235.643 219.554 237.693C216.804 239.443 212.964 239.563 208.154 238.033C207.838 237.919 207.502 237.87 207.167 237.889C206.831 237.909 206.503 237.995 206.202 238.144C205.901 238.292 205.633 238.5 205.414 238.754C205.195 239.009 205.029 239.305 204.927 239.625C204.825 239.945 204.788 240.282 204.819 240.617C204.85 240.951 204.948 241.276 205.108 241.571C205.267 241.867 205.484 242.127 205.746 242.337C206.009 242.547 206.31 242.702 206.634 242.793C209.092 243.615 211.662 244.057 214.254 244.103C217.081 244.156 219.862 243.381 222.254 241.873C224.968 240.047 227.023 237.397 228.114 234.313C230.697 235.842 233.624 236.695 236.624 236.793C237.635 236.797 238.643 236.676 239.624 236.433C244.164 235.293 247.694 231.633 250.104 225.543C250.225 225.235 250.283 224.906 250.276 224.576C250.269 224.245 250.196 223.919 250.062 223.617C249.928 223.315 249.736 223.042 249.496 222.815C249.256 222.588 248.973 222.41 248.664 222.293Z" fill="#383838"/>
<path d="M317.014 198.513C317.014 198.513 324.394 191.513 333.084 195.253C333.084 195.253 342.144 200.183 340.754 208.353C340.646 209.045 340.388 209.706 339.997 210.288C339.607 210.87 339.094 211.36 338.494 211.723C336.384 212.963 332.274 214.213 325.904 211.453C325.904 211.453 310.404 207.373 317.014 198.513Z" fill="white"/>
<path d="M349.283 189.073C346.433 185.023 336.283 177.323 326.553 177.393C326.553 177.393 315.183 176.003 302.853 195.163C302.754 195.303 302.664 195.45 302.583 195.603C300.213 199.783 265.453 264.383 258.813 277.273H298.813C307.213 269.273 344.523 233.443 352.893 204.853C354.513 199.493 352.493 193.633 349.283 189.073Z" fill="#383838"/>
<path d="M315.454 200.513C315.454 200.513 322.844 193.513 331.524 197.253C331.524 197.253 340.594 202.183 339.204 210.353C339.092 211.045 338.83 211.705 338.439 212.287C338.047 212.869 337.533 213.359 336.934 213.723C334.824 214.963 330.714 216.213 324.344 213.453C324.344 213.453 308.804 209.373 315.454 200.513Z" fill="white"/>
<path d="M340.835 195.102C341.891 193.848 341.817 192.046 340.668 191.078C339.52 190.11 337.732 190.342 336.675 191.597C335.618 192.851 335.692 194.653 336.841 195.621C337.989 196.589 339.778 196.357 340.835 195.102Z" fill="white"/>
<path d="M344.514 204.046C346.077 203.482 346.932 201.879 346.422 200.466C345.912 199.053 344.231 198.365 342.667 198.929C341.104 199.493 340.249 201.096 340.759 202.509C341.269 203.922 342.95 204.61 344.514 204.046Z" fill="white"/>
<path d="M332.731 189.475C333.049 187.871 332.112 186.334 330.638 186.042C329.165 185.75 327.713 186.813 327.395 188.417C327.077 190.021 328.014 191.557 329.487 191.849C330.961 192.141 332.413 191.078 332.731 189.475Z" fill="white"/>
<path d="M319.604 192.753C321.106 192.753 322.324 191.535 322.324 190.033C322.324 188.531 321.106 187.313 319.604 187.313C318.102 187.313 316.884 188.531 316.884 190.033C316.884 191.535 318.102 192.753 319.604 192.753Z" fill="white"/>
<path d="M332.452 72.9682L254.701 44.4384C246.924 41.5847 238.306 45.5759 235.452 53.3532L225.727 79.8553C222.874 87.6325 226.865 96.2507 234.642 99.1044L312.393 127.634C320.17 130.488 328.788 126.497 331.642 118.719L341.367 92.2173C344.22 84.4401 340.229 75.8219 332.452 72.9682Z" fill="#FFDA88"/>
<path d="M103.193 97.4679L52.5106 133.353C45.7495 138.14 44.1493 147.502 48.9364 154.263L59.072 168.578C63.8592 175.339 73.2209 176.939 79.982 172.152L130.664 136.267C137.425 131.48 139.025 122.118 134.238 115.357L124.103 101.042C119.316 94.281 109.954 92.6808 103.193 97.4679Z" fill="#CBD86C"/>
<path d="M173.653 36.2727H173.313C173.313 49.8727 165.253 60.9127 155.233 61.1527C165.233 61.4027 173.313 72.4427 173.313 86.0327H173.653C173.653 72.2927 181.893 61.1427 192.063 61.1427C181.893 61.1327 173.653 50.0227 173.653 36.2727Z" fill="#FFDA3E"/>
<path d="M371.064 204.893H370.854C370.854 213.453 365.774 220.413 359.464 220.563C365.774 220.713 370.854 227.673 370.854 236.233H371.064C371.064 227.573 376.254 220.563 382.664 220.563C376.254 220.573 371.064 213.553 371.064 204.893Z" fill="#FFDA3E"/>
<path d="M77.0937 212.033H76.8936C76.8936 220.233 72.0237 226.893 65.9937 227.033C71.9937 227.173 76.8936 233.833 76.8936 242.033H77.0937C77.0937 233.743 82.0937 227.033 88.1937 227.033C82.0637 227.043 77.0937 220.323 77.0937 212.033Z" fill="#FFDA3E"/>
<path d="M311.093 137.293H310.973C310.973 142.143 308.093 146.083 304.523 146.173C308.093 146.263 310.973 150.173 310.973 155.053H311.093C311.093 150.143 314.043 146.163 317.673 146.163C314.043 146.133 311.093 142.203 311.093 137.293Z" fill="#FFDA3E"/>
</svg>
