<svg width="531" height="62" viewBox="0 0 531 62" fill="none" xmlns="http://www.w3.org/2000/svg">
<path d="M19.5163 3.2H0.44425V48H12.7963V35.648H19.5163C29.0522 35.648 36.1562 28.8 36.1562 19.392C36.1562 10.048 29.0522 3.2 19.5163 3.2ZM18.0443 24.896H12.7963V14.016H18.0443C21.3083 14.016 23.4203 16.256 23.4203 19.456C23.4203 22.656 21.3083 24.896 18.0443 24.896ZM68.8348 13.44L67.6188 16.128C64.8028 13.76 61.1548 12.416 57.0588 12.416C46.4988 12.416 38.9468 20.032 38.9468 30.72C38.9468 41.472 46.4988 49.152 57.0588 49.152C61.0908 49.152 64.6748 47.872 67.4908 45.568L68.5148 48H77.7308V13.44H68.8348ZM58.6588 38.656C54.1788 38.656 50.9148 35.264 50.9148 30.72C50.9148 26.24 54.1788 22.912 58.6588 22.912C63.1388 22.912 66.4028 26.24 66.4028 30.72C66.4028 35.264 63.1388 38.656 58.6588 38.656ZM112.955 13.44L111.419 16.384C108.475 13.888 104.699 12.352 100.539 12.352C90.6193 12.352 83.2593 19.904 83.2593 29.76C83.2593 39.744 90.6193 47.104 100.539 47.104C103.867 47.104 106.939 46.144 109.563 44.544V45.568C109.563 49.664 106.363 52.224 102.331 52.224C99.4513 52.224 96.5073 50.944 95.6753 48.64H84.2193C85.8193 56.832 92.6673 61.76 102.459 61.76C113.851 61.76 120.955 55.04 120.955 44.224V13.504L112.955 13.44ZM102.523 37.312C98.1713 37.312 95.0993 34.176 95.0993 29.76C95.0993 25.408 98.2353 22.208 102.523 22.208C106.811 22.208 109.883 25.408 109.883 29.76C109.883 34.176 106.811 37.312 102.523 37.312ZM164.077 30.4C164.077 20.288 156.397 12.352 145.261 12.352C134.381 12.352 126.509 20.16 126.509 30.72C126.509 41.28 134.445 49.152 145.261 49.152C153.901 49.152 160.941 44.224 163.373 36.352H151.469C150.381 38.4 148.013 39.616 145.261 39.616C141.485 39.616 138.989 37.568 138.221 33.6H163.885C164.013 32.512 164.077 31.488 164.077 30.4ZM145.261 21.696C148.845 21.696 151.341 23.552 152.365 27.008H138.413C139.373 23.552 141.805 21.696 145.261 21.696ZM211.976 3.2V26.752L194.76 3.2H183.944V48H195.912V23.744L213.704 48H223.944V3.2H211.976ZM248.837 49.152C260.101 49.152 268.229 41.408 268.229 30.72C268.229 20.032 260.101 12.352 248.837 12.352C237.573 12.352 229.509 20.032 229.509 30.72C229.509 41.408 237.573 49.152 248.837 49.152ZM248.837 38.464C244.549 38.464 241.413 35.328 241.413 30.784C241.413 26.176 244.549 23.04 248.837 23.04C253.189 23.04 256.325 26.24 256.325 30.784C256.325 35.328 253.189 38.464 248.837 38.464ZM291.995 37.632C289.499 37.632 287.963 36.096 287.963 33.664V22.656H296.347V13.44H287.707V3.392H285.211L269.723 19.84V22.656H276.059V35.648C276.059 43.328 280.731 48 288.347 48H296.539V37.632H291.995ZM345.113 14.4V3.2H316.569V48H329.049V32.32H343.449V21.504H329.049V14.4H345.113ZM367.65 49.152C378.914 49.152 387.042 41.408 387.042 30.72C387.042 20.032 378.914 12.352 367.65 12.352C356.386 12.352 348.322 20.032 348.322 30.72C348.322 41.408 356.386 49.152 367.65 49.152ZM367.65 38.464C363.362 38.464 360.226 35.328 360.226 30.784C360.226 26.176 363.362 23.04 367.65 23.04C372.002 23.04 375.138 26.24 375.138 30.784C375.138 35.328 372.002 38.464 367.65 38.464ZM409.132 49.152C419.372 49.152 426.156 42.88 426.156 33.216V13.44H414.252V32.704C414.252 36.288 412.332 38.464 409.132 38.464C405.996 38.464 404.012 36.352 404.012 32.704V13.44H392.108V33.216C392.108 42.88 398.956 49.152 409.132 49.152ZM454.045 12.48C449.565 12.48 445.725 14.144 443.165 17.024L441.565 13.44H433.181V48H445.085V29.568C445.085 25.152 447.197 22.592 450.909 22.592C453.917 22.592 455.453 24.576 455.453 28.608V48H467.357V26.944C467.357 18.176 462.045 12.48 454.045 12.48ZM499.135 0.959999V14.72C496.703 13.184 493.759 12.352 490.559 12.352C479.999 12.352 472.447 20.032 472.447 30.72C472.447 41.472 479.999 49.216 490.559 49.216C494.591 49.216 498.175 47.808 500.991 45.44L502.143 48H510.911V0.959999H499.135ZM492.159 38.656C487.743 38.656 484.415 35.264 484.415 30.784C484.415 26.24 487.743 22.848 492.159 22.848C496.639 22.848 499.903 26.24 499.903 30.784C499.903 35.264 496.639 38.656 492.159 38.656ZM519.136 33.088H530.272V1.92H519.136V33.088ZM518.944 48H530.464V36.992H518.944V48Z" fill="#191919"/>
</svg>
