<svg width="300" height="35" viewBox="0 0 300 35" fill="none" xmlns="http://www.w3.org/2000/svg">
<path d="M11.6341 1.8H0.906141V27H7.85414V20.052H11.6341C16.9981 20.052 20.9941 16.2 20.9941 10.908C20.9941 5.652 16.9981 1.8 11.6341 1.8ZM10.8061 14.004H7.85414V7.884H10.8061C12.6421 7.884 13.8301 9.144 13.8301 10.944C13.8301 12.744 12.6421 14.004 10.8061 14.004ZM39.3758 7.56L38.6918 9.072C37.1078 7.74 35.0558 6.984 32.7518 6.984C26.8118 6.984 22.5638 11.268 22.5638 17.28C22.5638 23.328 26.8118 27.648 32.7518 27.648C35.0198 27.648 37.0358 26.928 38.6198 25.632L39.1958 27H44.3798V7.56H39.3758ZM33.6518 21.744C31.1318 21.744 29.2958 19.836 29.2958 17.28C29.2958 14.76 31.1318 12.888 33.6518 12.888C36.1718 12.888 38.0078 14.76 38.0078 17.28C38.0078 19.836 36.1718 21.744 33.6518 21.744ZM64.1936 7.56L63.3296 9.216C61.6736 7.812 59.5496 6.948 57.2096 6.948C51.6296 6.948 47.4896 11.196 47.4896 16.74C47.4896 22.356 51.6296 26.496 57.2096 26.496C59.0816 26.496 60.8096 25.956 62.2856 25.056V25.632C62.2856 27.936 60.4856 29.376 58.2176 29.376C56.5976 29.376 54.9416 28.656 54.4736 27.36H48.0296C48.9296 31.968 52.7816 34.74 58.2896 34.74C64.6976 34.74 68.6936 30.96 68.6936 24.876V7.596L64.1936 7.56ZM58.3256 20.988C55.8776 20.988 54.1496 19.224 54.1496 16.74C54.1496 14.292 55.9136 12.492 58.3256 12.492C60.7376 12.492 62.4656 14.292 62.4656 16.74C62.4656 19.224 60.7376 20.988 58.3256 20.988ZM92.9497 17.1C92.9497 11.412 88.6297 6.948 82.3657 6.948C76.2457 6.948 71.8177 11.34 71.8177 17.28C71.8177 23.22 76.2817 27.648 82.3657 27.648C87.2257 27.648 91.1857 24.876 92.5537 20.448H85.8577C85.2457 21.6 83.9137 22.284 82.3657 22.284C80.2417 22.284 78.8377 21.132 78.4057 18.9H92.8417C92.9137 18.288 92.9497 17.712 92.9497 17.1ZM82.3657 12.204C84.3817 12.204 85.7857 13.248 86.3617 15.192H78.5137C79.0537 13.248 80.4217 12.204 82.3657 12.204ZM119.893 1.8V15.048L110.209 1.8H104.125V27H110.857V13.356L120.865 27H126.625V1.8H119.893ZM140.627 27.648C146.963 27.648 151.535 23.292 151.535 17.28C151.535 11.268 146.963 6.948 140.627 6.948C134.291 6.948 129.755 11.268 129.755 17.28C129.755 23.292 134.291 27.648 140.627 27.648ZM140.627 21.636C138.215 21.636 136.451 19.872 136.451 17.316C136.451 14.724 138.215 12.96 140.627 12.96C143.075 12.96 144.839 14.76 144.839 17.316C144.839 19.872 143.075 21.636 140.627 21.636ZM164.904 21.168C163.5 21.168 162.636 20.304 162.636 18.936V12.744H167.352V7.56H162.492V1.908H161.088L152.376 11.16V12.744H155.94V20.052C155.94 24.372 158.568 27 162.852 27H167.46V21.168H164.904ZM194.782 8.1V1.8H178.726V27H185.746V18.18H193.846V12.096H185.746V8.1H194.782ZM207.459 27.648C213.795 27.648 218.367 23.292 218.367 17.28C218.367 11.268 213.795 6.948 207.459 6.948C201.123 6.948 196.587 11.268 196.587 17.28C196.587 23.292 201.123 27.648 207.459 27.648ZM207.459 21.636C205.047 21.636 203.283 19.872 203.283 17.316C203.283 14.724 205.047 12.96 207.459 12.96C209.907 12.96 211.671 14.76 211.671 17.316C211.671 19.872 209.907 21.636 207.459 21.636ZM230.793 27.648C236.553 27.648 240.369 24.12 240.369 18.684V7.56H233.673V18.396C233.673 20.412 232.593 21.636 230.793 21.636C229.029 21.636 227.913 20.448 227.913 18.396V7.56H221.217V18.684C221.217 24.12 225.069 27.648 230.793 27.648ZM256.056 7.02C253.536 7.02 251.376 7.956 249.936 9.576L249.036 7.56H244.32V27H251.016V16.632C251.016 14.148 252.204 12.708 254.292 12.708C255.984 12.708 256.848 13.824 256.848 16.092V27H263.544V15.156C263.544 10.224 260.556 7.02 256.056 7.02ZM281.42 0.539999V8.28C280.052 7.416 278.396 6.948 276.596 6.948C270.656 6.948 266.408 11.268 266.408 17.28C266.408 23.328 270.656 27.684 276.596 27.684C278.864 27.684 280.88 26.892 282.464 25.56L283.112 27H288.044V0.539999H281.42ZM277.496 21.744C275.012 21.744 273.14 19.836 273.14 17.316C273.14 14.76 275.012 12.852 277.496 12.852C280.016 12.852 281.852 14.76 281.852 17.316C281.852 19.836 280.016 21.744 277.496 21.744ZM292.67 18.612H298.934V1.08H292.67V18.612ZM292.562 27H299.042V20.808H292.562V27Z" fill="#191919"/>
</svg>
