<svg width="454" height="336" viewBox="0 0 454 336" fill="none" xmlns="http://www.w3.org/2000/svg">
<g clip-path="url(#clip0)">
<path d="M318.321 333.029H87.4781C78.1345 333.058 69.0387 330.018 61.5832 324.375C30.733 300.76 -41.6063 230.633 31.9296 133.269C32.846 132.061 33.8318 130.908 34.8819 129.815C41.1638 123.299 66.6425 95.0188 75.3565 60.7437C75.4736 60.2746 75.5776 59.8184 75.6817 59.3623C76.9823 53.4717 98.156 -0.0652019 172.082 0.430027C173.864 0.430027 175.646 0.430027 177.428 0.286671C193.932 -1.06869 295.47 -4.19646 367.393 123.521C368.225 125.013 368.959 126.559 369.591 128.147C376.588 145.871 414.228 251.368 349.081 319.996C345.1 324.14 340.321 327.432 335.034 329.672C329.747 331.912 324.062 333.054 318.321 333.029Z" fill="#EFF4F0"/>
<path d="M169.117 332.429C134.547 313.545 118.498 294.244 118.498 255.538C118.498 196.267 168.974 146.353 235.655 146.353C302.337 146.353 359.785 188.044 359.785 247.328C359.785 262.146 357.613 283.545 345.088 290.647L325.579 332.429" fill="white"/>
<path d="M325.462 333.602C324.941 333.597 324.426 333.482 323.953 333.263C322.171 332.429 321.599 332.703 322.431 330.917L342.383 288.106L343.371 287.533C351.682 282.828 356.26 268.544 356.26 247.328C356.26 220.338 343.579 195.511 320.545 177.422C297.967 159.685 267.819 149.924 235.655 149.924C204.662 149.924 175.828 161.067 154.524 181.306C133.597 201.18 122.009 227.545 122.009 255.59C122.009 290.387 134.768 309.688 170.769 329.34C171.543 329.824 172.104 330.586 172.336 331.471C172.568 332.356 172.454 333.296 172.017 334.099C171.58 334.902 170.852 335.507 169.984 335.79C169.116 336.073 168.173 336.013 167.348 335.622C134.963 317.924 114.882 298.362 114.882 255.59C114.882 225.616 127.198 197.401 149.569 176.171C172.225 154.668 202.776 142.834 235.603 142.834C269.419 142.834 301.076 153.13 324.89 171.844C349.692 191.315 363.335 218.135 363.335 247.432C363.335 271.255 358.133 286.659 347.858 293.241L329.403 332.846C328.856 334.045 326.801 333.602 325.462 333.602Z" fill="#383838"/>
<path d="M285.819 162.083C272.085 158.33 270.212 142.235 279.941 131.809C289.045 122.1 307.318 116.835 324.85 126.883C324.85 126.883 350.667 140.697 342.799 174.542C339.105 190.442 317.047 192.944 310.557 177.983C310.323 177.435 310.102 176.862 309.894 176.263C309.253 174.448 308.302 172.759 307.084 171.271C304.288 167.713 300.23 163.699 293.09 163.243C291.724 163.165 289.721 163.009 289.006 162.878C288.291 162.748 287.016 162.422 285.819 162.083Z" fill="#383838"/>
<path d="M321.671 236.249C329.878 232.782 334.765 225.772 332.585 220.592C330.406 215.412 321.986 214.024 313.779 217.491C305.571 220.958 300.685 227.968 302.864 233.148C305.043 238.328 313.463 239.716 321.671 236.249Z" fill="#FFC5C5"/>
<path d="M190.366 276.923C198.925 274.454 204.606 268.073 203.054 262.671C201.502 257.269 193.305 254.892 184.746 257.361C176.186 259.83 170.506 266.211 172.058 271.612C173.61 277.014 181.806 279.392 190.366 276.923Z" fill="#FFC5C5"/>
<path d="M135.366 223.948C134.209 238.179 118.771 243.001 106.753 235.325C95.5421 228.17 87.0102 211.137 93.6172 192.019C93.6172 192.019 102.396 164.038 137.057 165.537C153.328 166.241 159.857 187.496 146.383 196.645C145.888 196.984 145.368 197.31 144.822 197.623C143.161 198.591 141.678 199.839 140.439 201.311C137.46 204.725 134.287 209.456 135.158 216.572C135.327 217.94 135.549 219.934 135.549 220.664C135.549 221.394 135.457 222.71 135.366 223.948Z" fill="#383838"/>
<path d="M272.957 221.407C272.957 221.407 264.737 208.57 272.697 198.157C272.697 198.157 286.262 182.935 303.846 202.849C303.846 202.849 314.966 212.91 310.154 226.046C309.19 228.72 307.463 231.051 305.187 232.749C302.912 234.448 300.189 235.439 297.356 235.599C290.554 236.016 280.006 234.608 272.957 221.407Z" fill="#383838"/>
<path d="M219.112 239.339C219.112 239.339 223.014 223.974 211.75 216.311C211.75 216.311 193.386 205.755 182.552 231.194C182.552 231.194 174.879 244.786 183.931 256.164C185.766 258.495 188.246 260.233 191.061 261.161C193.876 262.088 196.901 262.163 199.759 261.377C206.548 259.539 216.498 254.678 219.112 239.339Z" fill="#383838"/>
<path d="M208.174 249.478C211.327 249.478 213.884 246.917 213.884 243.757C213.884 240.597 211.327 238.036 208.174 238.036C205.021 238.036 202.464 240.597 202.464 243.757C202.464 246.917 205.021 249.478 208.174 249.478Z" fill="white"/>
<path d="M284.584 226.919C287.738 226.919 290.294 224.358 290.294 221.198C290.294 218.038 287.738 215.477 284.584 215.477C281.431 215.477 278.875 218.038 278.875 221.198C278.875 224.358 281.431 226.919 284.584 226.919Z" fill="white"/>
<path d="M294.586 255.147C293.706 254.801 292.725 254.817 291.858 255.193C290.99 255.569 290.306 256.274 289.956 257.154C287.42 263.592 284.051 267.371 279.954 268.414C274.31 269.835 268.249 265.99 266.22 264.504L263.554 255.773C267.221 250.99 269.263 243.47 269.263 243.47C270.096 240.382 267.429 240.134 267.429 240.134C256.83 238.518 245.905 243.6 242.991 245.933C242.602 246.228 242.327 246.649 242.213 247.125C242.099 247.6 242.154 248.1 242.367 248.54C243.002 249.568 243.786 250.494 244.695 251.29C247.873 254.031 251.504 256.196 255.425 257.688C255.879 257.915 256.354 258.098 256.843 258.236L259.444 266.889C259.067 268.779 257.571 274.292 252.941 277.224C249.039 279.726 243.537 279.896 236.683 277.706C235.783 277.418 234.805 277.499 233.965 277.933C233.125 278.367 232.491 279.117 232.203 280.019C231.915 280.921 231.996 281.901 232.429 282.743C232.862 283.585 233.611 284.22 234.511 284.509C238.018 285.691 241.685 286.324 245.384 286.386C249.432 286.473 253.416 285.368 256.843 283.206C260.714 280.59 263.645 276.799 265.205 272.389C268.892 274.577 273.07 275.796 277.353 275.934C278.778 275.937 280.198 275.762 281.58 275.412C288.083 273.796 293.09 268.557 296.524 259.852C296.709 259.416 296.805 258.947 296.808 258.474C296.81 258 296.718 257.531 296.538 257.093C296.358 256.655 296.092 256.257 295.757 255.923C295.422 255.589 295.024 255.326 294.586 255.147Z" fill="#383838"/>
<path d="M392.078 221.159C392.078 221.159 402.613 211.15 414.995 216.493C414.995 216.493 427.936 223.544 425.959 235.221C425.796 236.21 425.423 237.153 424.864 237.985C424.305 238.817 423.574 239.519 422.721 240.043C419.703 241.802 413.85 243.601 404.759 239.652C404.759 239.652 382.584 233.826 392.078 221.159Z" fill="white"/>
<path d="M438.12 207.658C434.049 201.871 419.521 190.859 405.696 190.976C405.696 190.976 389.477 188.982 371.88 216.363C371.75 216.572 371.62 216.78 371.503 217.002C368.121 222.971 318.543 315.305 309.074 333.732H366.196C378.175 322.251 431.409 271.086 443.348 230.217C445.624 222.567 442.698 214.187 438.12 207.658Z" fill="#383838"/>
<path d="M389.855 224.013C389.855 224.013 400.389 214.004 412.784 219.348C412.784 219.348 425.712 226.398 423.735 238.088C423.577 239.078 423.206 240.021 422.646 240.851C422.087 241.682 421.353 242.38 420.497 242.897C417.492 244.669 411.627 246.455 402.535 242.519C402.535 242.519 380.373 236.681 389.855 224.013Z" fill="white"/>
<path d="M426.058 216.288C427.562 214.499 427.45 211.925 425.808 210.538C424.166 209.151 421.615 209.477 420.111 211.266C418.606 213.055 418.718 215.629 420.36 217.016C422.003 218.402 424.554 218.077 426.058 216.288Z" fill="white"/>
<path d="M431.294 229.078C433.524 228.272 434.74 225.977 434.011 223.953C433.283 221.929 430.884 220.941 428.654 221.747C426.425 222.553 425.208 224.848 425.937 226.872C426.666 228.897 429.064 229.884 431.294 229.078Z" fill="white"/>
<path d="M414.493 208.245C414.947 205.95 413.607 203.751 411.5 203.333C409.393 202.914 407.318 204.435 406.864 206.73C406.41 209.024 407.75 211.224 409.857 211.642C411.963 212.06 414.039 210.539 414.493 208.245Z" fill="white"/>
<path d="M395.772 212.923C397.92 212.923 399.661 211.178 399.661 209.026C399.661 206.874 397.92 205.129 395.772 205.129C393.624 205.129 391.883 206.874 391.883 209.026C391.883 211.178 393.624 212.923 395.772 212.923Z" fill="white"/>
<path d="M331.437 40.267L249.659 24.0268C244.022 22.9075 238.547 26.5788 237.43 32.227L231.023 64.6209C229.906 70.2691 233.57 75.7553 239.206 76.8747L320.984 93.1148C326.621 94.2342 332.096 90.5629 333.213 84.9147L339.62 52.5208C340.737 46.8726 337.073 41.3864 331.437 40.267Z" fill="#FFDA88"/>
<path d="M64.7781 113.521L14.1682 143.732C9.23202 146.679 7.61554 153.078 10.5577 158.025L20.9724 175.536C23.9145 180.483 30.3011 182.105 35.2373 179.158L85.8471 148.947C90.7833 146.001 92.3998 139.602 89.4577 134.655L79.043 117.143C76.1008 112.196 69.7142 110.575 64.7781 113.521Z" fill="#CBD86C"/>
<path d="M153.64 30.4437H153.211C153.211 48.1547 142.715 62.5424 129.696 62.8551C142.702 63.1679 153.211 77.5556 153.211 95.2666H153.64C153.64 77.3602 164.37 62.8291 177.597 62.8291C164.37 62.8682 153.64 48.3501 153.64 30.4437Z" fill="#FFDA3E"/>
<path d="M380.295 125.919H380.022C380.022 137.087 373.415 146.145 365.208 146.34C373.415 146.536 380.022 155.593 380.022 166.749H380.295C380.295 155.476 387.045 146.327 395.382 146.327C387.097 146.353 380.295 137.205 380.295 125.919Z" fill="#FFDA3E"/>
<path d="M76.8657 248.918H76.6055C76.6055 259.604 70.2716 268.271 62.416 268.466C70.2196 268.662 76.6055 277.341 76.6055 288.015H76.8657C76.8657 277.211 83.3687 268.466 91.3023 268.466C83.3296 268.479 76.8657 259.722 76.8657 248.918Z" fill="#FFDA3E"/>
<path d="M445.455 256.894H445.299C445.299 263.214 441.553 268.349 436.897 268.466C441.553 268.584 445.299 273.679 445.299 280.039H445.455C445.455 273.64 449.279 268.466 454 268.466C449.279 268.479 445.455 263.293 445.455 256.894Z" fill="#FFDA3E"/>
</g>
<defs>
<clipPath id="clip0">
<rect width="454" height="336" fill="white"/>
</clipPath>
</defs>
</svg>
