<svg width="378" height="290" viewBox="0 0 378 290" fill="none" xmlns="http://www.w3.org/2000/svg">
<g clip-path="url(#clip0)">
<path d="M102.617 195.726C69.9426 169.93 56.6582 146.994 63.5342 106.746C74.0819 45.102 135.567 2.24144 205.069 14.0669C274.572 25.8925 327.063 79.561 316.46 141.205C313.82 156.619 307.741 178.483 293.439 183.653L265.729 223.64" fill="white"/>
<path d="M265.358 224.808C264.813 224.721 264.295 224.509 263.845 224.19C262.14 223.007 261.493 223.2 262.676 221.439L291.088 180.463L292.215 180.064C301.718 176.64 309.02 162.601 312.843 140.531C317.643 112.466 308.841 84.3873 288.09 61.465C267.64 39.0516 238.019 23.5134 204.436 17.7382C172.133 12.2379 140.119 18.6732 114.292 35.9302C88.9475 52.8572 72.2389 78.2133 67.2607 107.337C61.0723 143.529 70.9325 165.873 104.955 192.728C105.344 193.035 105.669 193.416 105.911 193.848C106.153 194.281 106.308 194.757 106.366 195.249C106.424 195.741 106.384 196.24 106.25 196.717C106.115 197.194 105.888 197.64 105.581 198.029C105.274 198.418 104.893 198.743 104.46 198.985C104.028 199.227 103.552 199.382 103.059 199.44C102.567 199.498 102.068 199.458 101.591 199.324C101.114 199.189 100.668 198.962 100.279 198.655C69.6536 174.467 52.2161 150.528 59.8209 106.072C65.1567 74.8856 83.0067 47.7419 110.098 29.6599C137.602 11.3304 171.501 4.45508 205.702 10.3128C240.879 16.3218 272.096 32.6988 293.604 56.4048C315.979 81.0734 325.426 111.407 320.228 141.796C315.992 166.547 307.851 181.673 295.942 186.692L269.648 224.63C268.809 225.881 266.76 225.056 265.358 224.808Z" fill="#383838"/>
<path d="M181.361 273.032C188.14 274.709 194.906 269.292 199.541 264.08C203.666 259.46 210.144 244.829 207.297 233.086C207.297 233.086 205.757 218.841 178.913 209.27L178.294 209.064C173.605 207.689 114.017 191.559 82.5392 183.227C76.6671 181.673 65.7756 185.66 66.0368 198.215C66.1549 201.192 66.8764 204.114 68.1576 206.804C69.4388 209.494 71.2531 211.895 73.4904 213.863C87.1461 226.17 128.099 259.9 181.361 273.032Z" fill="#383838"/>
<path d="M254.521 39.3817C240.865 33.0152 241.773 16.0057 253.779 6.83408C264.973 -1.63628 284.982 -3.86387 301.457 9.70796C301.457 9.70796 325.908 28.6838 311.688 62.4827C305.018 78.3509 281.571 77.0309 277.473 60.3101C277.322 59.7051 277.198 59.0588 277.088 58.4126C276.742 56.4077 276.054 54.4773 275.053 52.7061C272.77 48.5121 269.25 43.6169 261.892 41.8843C260.517 41.5406 258.427 41.0318 257.767 40.7705C256.804 40.4268 255.745 39.9318 254.521 39.3817Z" fill="#383838"/>
<path d="M275.952 122.934C285.123 120.792 291.463 114.373 290.114 108.597C288.764 102.822 280.236 99.8765 271.065 102.019C261.894 104.161 255.554 110.58 256.903 116.356C258.253 122.131 266.781 125.076 275.952 122.934Z" fill="#FFC5C5"/>
<path d="M131.907 141.746C141.266 140.703 148.321 135.079 147.664 129.184C147.007 123.289 138.887 119.357 129.527 120.4C120.167 121.443 113.112 127.067 113.769 132.962C114.426 138.856 122.547 142.789 131.907 141.746Z" fill="#FFC5C5"/>
<path d="M86.7472 76.8659C83.0204 91.4553 66.1193 93.7241 54.9114 83.6037C44.5012 74.157 38.6291 54.9199 48.9156 36.2191C48.9156 36.2191 63.0526 8.71794 98.9039 16.4183C115.736 20.0484 118.762 43.3144 103.03 50.4372C102.452 50.6985 101.861 50.946 101.228 51.166C99.3243 51.8834 97.557 52.9204 96.0023 54.2324C92.303 57.2438 88.1499 61.6027 87.7511 69.1518C87.6824 70.6094 87.5586 72.727 87.4348 73.4832C87.3111 74.2395 87.0635 75.6146 86.7472 76.8659Z" fill="#383838"/>
<path d="M227.842 98.7705C227.842 98.7705 221.558 83.9611 231.707 74.5419C231.707 74.5419 248.553 61.1351 263.336 84.9786C263.336 84.9786 273.141 97.3541 265.784 110.225C264.303 112.856 262.076 114.99 259.384 116.358C256.692 117.726 253.655 118.267 250.657 117.911C243.519 117.1 232.834 113.745 227.842 98.7705Z" fill="#383838"/>
<path d="M168.544 107.832C168.544 107.832 175.42 92.5415 164.955 82.5586C164.955 82.5586 147.682 68.313 131.881 92.844C131.881 92.844 121.457 105.605 128.87 119.053C130.365 121.807 132.639 124.059 135.408 125.527C138.177 126.994 141.318 127.612 144.437 127.303C151.836 126.602 163.071 123.315 168.544 107.832Z" fill="#383838"/>
<path d="M156.346 116.509C159.68 116.509 162.383 113.806 162.383 110.472C162.383 107.138 159.68 104.436 156.346 104.436C153.011 104.436 150.309 107.138 150.309 110.472C150.309 113.806 153.011 116.509 156.346 116.509Z" fill="white"/>
<path d="M239.999 106.663C243.333 106.663 246.036 103.961 246.036 100.627C246.036 97.293 243.333 94.5903 239.999 94.5903C236.665 94.5903 233.962 97.293 233.962 100.627C233.962 103.961 236.665 106.663 239.999 106.663Z" fill="white"/>
<path d="M206.472 155.079C206.472 155.079 212.894 175.774 185.005 179.83C185.005 179.885 182.447 151.71 206.472 155.079Z" fill="#387E4B"/>
<path d="M58.047 176.228C58.047 176.228 22.1819 199.081 0 148.369C0 148.369 52.0236 129.036 58.047 176.228Z" fill="#387E4B"/>
<path d="M330.418 117.416C330.418 117.416 371.413 128.981 378 74.1157C378 74.1157 322.593 70.4855 330.418 117.416Z" fill="#387E4B"/>
<path d="M244.386 137.726C243.963 137.468 243.493 137.296 243.003 137.22C242.513 137.144 242.013 137.165 241.531 137.282C241.05 137.4 240.596 137.611 240.196 137.905C239.797 138.198 239.459 138.567 239.202 138.991C235.406 145.22 231.226 148.616 226.825 148.905C220.678 149.373 215.108 144.312 213.211 142.346L211.987 132.803C216.662 128.472 220.128 121.019 220.128 121.019C221.503 117.952 218.753 117.224 218.753 117.224C207.985 113.662 195.704 116.99 192.253 118.901C191.803 119.14 191.449 119.525 191.249 119.993C191.048 120.461 191.015 120.983 191.152 121.473C191.625 122.655 192.274 123.758 193.078 124.745C195.904 128.165 199.306 131.064 203.13 133.312C203.564 133.626 204.024 133.902 204.506 134.137L205.716 143.611C204.973 145.509 202.443 150.968 197.135 153.236C192.583 155.148 186.848 154.337 180.096 150.844C179.208 150.384 178.173 150.296 177.221 150.599C176.268 150.902 175.474 151.572 175.015 152.46C174.555 153.348 174.467 154.382 174.77 155.335C175.073 156.287 175.742 157.081 176.63 157.54C180.076 159.391 183.787 160.699 187.632 161.418C191.837 162.234 196.19 161.794 200.146 160.153C204.647 158.128 208.378 154.71 210.79 150.404C214.239 153.334 218.374 155.345 222.809 156.248C224.299 156.502 225.813 156.576 227.32 156.468C234.347 155.932 240.522 151.394 245.665 142.937C245.927 142.512 246.102 142.039 246.179 141.546C246.256 141.053 246.235 140.549 246.116 140.064C245.997 139.579 245.783 139.123 245.486 138.721C245.189 138.32 244.815 137.982 244.386 137.726Z" fill="#383838"/>
<path d="M265.66 168.307L252.912 172.653C252.61 172.762 252.356 172.973 252.194 173.25C252.032 173.527 251.971 173.852 252.024 174.169C252.076 174.486 252.237 174.774 252.48 174.985C252.723 175.195 253.031 175.314 253.352 175.32C253.502 175.345 253.656 175.345 253.806 175.32L265.536 171.319C276.772 185.399 291.555 169.146 291.555 169.146C277.226 157.444 268.603 164.787 265.66 168.307Z" fill="#006232"/>
<path d="M208.81 216.668C211.409 212.983 216.456 202.656 201.315 191.793C201.315 191.793 189.433 210.494 206.307 217.548C206.314 217.584 206.314 217.622 206.307 217.658L208.727 231.409C208.786 231.729 208.956 232.018 209.208 232.225C209.46 232.431 209.777 232.542 210.102 232.536H210.336C210.514 232.505 210.684 232.438 210.836 232.341C210.989 232.244 211.12 232.118 211.224 231.97C211.327 231.821 211.4 231.654 211.439 231.478C211.478 231.301 211.482 231.119 211.45 230.941L209.03 217.191C208.997 217.002 208.921 216.824 208.81 216.668Z" fill="#006232"/>
<path d="M183.685 289.629L175.145 288.364C172.546 287.456 172.532 285.613 173.385 284.115L259.403 138.496C261.548 134.866 265.977 135.347 270.281 137.905C274.585 140.448 276.992 144.354 275.012 147.709L192.06 288.13C191.262 289.574 189.419 290.577 183.685 289.629Z" fill="#8DC44B"/>
<path d="M255.319 181.59C242.461 181.59 238.94 171.539 238.899 171.429C238.784 171.082 238.812 170.704 238.975 170.378C239.139 170.052 239.426 169.804 239.772 169.689C240.119 169.574 240.497 169.602 240.823 169.766C241.149 169.929 241.397 170.216 241.512 170.562C241.636 170.92 244.62 179.088 255.786 178.813C256.151 178.813 256.501 178.958 256.759 179.216C257.017 179.473 257.162 179.823 257.162 180.188C257.162 180.553 257.017 180.902 256.759 181.16C256.501 181.418 256.151 181.563 255.786 181.563L255.319 181.59Z" fill="#006232"/>
<path d="M232.656 219.955C219.797 219.955 216.277 209.889 216.236 209.793C216.119 209.446 216.145 209.068 216.307 208.74C216.47 208.413 216.756 208.163 217.102 208.046C217.449 207.93 217.827 207.956 218.155 208.118C218.482 208.28 218.732 208.566 218.849 208.913C218.972 209.284 221.874 217.411 233.123 217.163C233.488 217.163 233.838 217.308 234.096 217.566C234.353 217.824 234.498 218.174 234.498 218.538C234.498 218.903 234.353 219.253 234.096 219.511C233.838 219.768 233.488 219.913 233.123 219.913L232.656 219.955Z" fill="#006232"/>
<path d="M210.006 258.374C197.134 258.374 193.614 248.322 193.586 248.212C193.507 247.878 193.555 247.525 193.722 247.225C193.889 246.925 194.163 246.698 194.489 246.589C194.815 246.48 195.17 246.498 195.484 246.638C195.798 246.778 196.048 247.03 196.185 247.346C196.309 247.689 199.252 255.926 210.46 255.596C210.825 255.596 211.174 255.741 211.432 255.999C211.69 256.257 211.835 256.606 211.835 256.971C211.835 257.336 211.69 257.685 211.432 257.943C211.174 258.201 210.825 258.346 210.46 258.346L210.006 258.374Z" fill="#006232"/>
<path d="M273.429 146.332C274.596 144.357 272.843 141.162 269.514 139.197C266.186 137.231 262.542 137.238 261.375 139.212C260.209 141.187 261.961 144.382 265.29 146.347C268.619 148.313 272.263 148.306 273.429 146.332Z" fill="#006232"/>
<path d="M208.521 216.682C208.521 216.682 206.293 198.944 183.946 205.379C183.946 205.379 191.647 227.407 208.521 216.682Z" fill="#007738"/>
<path d="M244.166 282.506C238.335 286.342 230.153 283.51 224.033 280.154C218.532 277.157 207.627 265.579 206.376 253.52C206.376 253.52 203.075 239.576 225.175 221.591L225.642 221.247C229.603 218.387 280.389 183.282 307.274 164.869C312.293 161.446 323.886 161.583 327.792 173.505C328.674 176.347 328.973 179.339 328.67 182.299C328.368 185.26 327.47 188.129 326.032 190.734C317.313 206.878 289.974 252.351 244.166 282.506Z" fill="#383838"/>
</g>
<defs>
<clipPath id="clip0">
<rect width="378" height="290" fill="white"/>
</clipPath>
</defs>
</svg>
