<svg width="400" height="300" viewBox="0 0 400 300" fill="none" xmlns="http://www.w3.org/2000/svg">
<path d="M160.704 276.363C136.474 263.153 125.224 249.653 125.224 222.573C125.224 181.133 160.614 146.133 207.404 146.133C254.194 146.133 294.404 175.303 294.404 216.783C294.404 227.143 292.884 242.123 284.114 247.093L270.464 276.323" fill="white"/>
<path d="M270.314 277.183C269.947 277.182 269.585 277.1 269.254 276.943C268.004 276.363 267.604 276.553 268.194 275.303L282.194 245.303L282.884 244.913C288.714 241.613 291.884 231.623 291.884 216.783C291.884 197.893 282.984 180.523 266.884 167.873C251.064 155.473 229.884 148.633 207.374 148.633C185.644 148.633 165.454 156.433 150.494 170.633C135.824 184.533 127.744 202.983 127.744 222.573C127.744 246.913 136.684 260.413 161.924 274.163C162.506 274.481 162.938 275.017 163.124 275.654C163.311 276.291 163.237 276.975 162.919 277.558C162.6 278.14 162.064 278.572 161.427 278.758C160.791 278.945 160.106 278.871 159.524 278.553C136.814 266.173 122.744 252.493 122.744 222.553C122.744 201.553 131.384 181.843 147.064 166.983C162.944 151.983 184.364 143.653 207.374 143.653C231.034 143.653 253.264 150.863 269.974 163.963C287.344 177.583 296.924 196.343 296.924 216.803C296.924 233.463 293.264 244.243 286.064 248.853L273.134 276.563C272.694 277.493 271.254 277.183 270.314 277.183Z" fill="#383838"/>
<path d="M242.524 157.193C232.884 154.553 231.574 143.293 238.404 136.003C244.774 129.213 257.594 125.523 269.884 132.553C269.884 132.553 287.984 142.223 282.464 165.903C279.874 177.023 264.414 178.773 259.864 168.303C259.694 167.923 259.544 167.523 259.404 167.103C258.939 165.832 258.263 164.648 257.404 163.603C255.404 161.123 252.604 158.313 247.604 158.003C246.604 157.943 245.234 157.833 244.734 157.743C244.234 157.653 243.404 157.413 242.524 157.193Z" fill="#383838"/>
<path d="M267.66 209.066C273.416 206.639 276.843 201.735 275.316 198.111C273.788 194.488 267.884 193.518 262.128 195.944C256.372 198.371 252.945 203.275 254.473 206.899C256 210.522 261.904 211.493 267.66 209.066Z" fill="#FFC5C5"/>
<path d="M175.609 237.535C181.611 235.807 185.595 231.343 184.507 227.564C183.42 223.786 177.672 222.123 171.669 223.851C165.667 225.579 161.682 230.043 162.77 233.822C163.858 237.601 169.606 239.263 175.609 237.535Z" fill="#FFC5C5"/>
<path d="M137.044 200.463C136.234 210.413 125.414 213.793 116.984 208.463C109.134 203.463 103.144 191.543 107.784 178.163C107.784 178.163 113.934 158.593 138.234 159.633C149.634 160.133 154.234 175.003 144.764 181.403C144.413 181.649 144.049 181.876 143.674 182.083C142.507 182.76 141.468 183.637 140.604 184.673C138.524 187.053 136.284 190.363 136.904 195.343C137.014 196.343 137.174 197.693 137.174 198.203C137.174 198.713 137.114 199.593 137.044 200.463Z" fill="#383838"/>
<path d="M233.504 198.683C233.504 198.683 227.734 189.683 233.324 182.423C233.324 182.423 242.834 171.773 255.154 185.703C255.154 185.703 262.954 192.703 259.584 201.933C258.911 203.813 257.698 205.453 256.097 206.647C254.496 207.841 252.578 208.535 250.584 208.643C245.834 208.903 238.404 207.923 233.504 198.683Z" fill="#383838"/>
<path d="M195.764 211.233C195.764 211.233 198.504 200.483 190.594 195.123C190.594 195.123 177.714 187.733 170.124 205.533C170.124 205.533 164.744 215.043 171.124 223.003C172.405 224.639 174.141 225.86 176.115 226.511C178.088 227.162 180.21 227.215 182.214 226.663C186.944 225.373 193.924 221.963 195.764 211.233Z" fill="#383838"/>
<path d="M188.094 218.323C190.303 218.323 192.094 216.532 192.094 214.323C192.094 212.114 190.303 210.323 188.094 210.323C185.885 210.323 184.094 212.114 184.094 214.323C184.094 216.532 185.885 218.323 188.094 218.323Z" fill="white"/>
<path d="M241.664 202.543C243.873 202.543 245.664 200.752 245.664 198.543C245.664 196.334 243.873 194.543 241.664 194.543C239.454 194.543 237.664 196.334 237.664 198.543C237.664 200.752 239.454 202.543 241.664 202.543Z" fill="white"/>
<path d="M248.664 222.293C248.358 222.171 248.032 222.112 247.704 222.117C247.375 222.122 247.051 222.192 246.75 222.323C246.449 222.454 246.177 222.644 245.949 222.881C245.721 223.117 245.543 223.397 245.424 223.703C243.644 228.193 241.284 230.843 238.424 231.573C234.424 232.573 230.264 229.873 228.794 228.813L226.934 222.703C228.726 220.069 230.077 217.161 230.934 214.093C231.524 211.933 229.654 211.763 229.654 211.763C222.224 210.633 214.574 214.183 212.524 215.823C212.255 216.027 212.065 216.318 211.987 216.646C211.909 216.974 211.946 217.319 212.094 217.623C212.532 218.342 213.078 218.99 213.714 219.543C215.943 221.463 218.492 222.979 221.244 224.023C221.567 224.177 221.901 224.307 222.244 224.413L224.094 230.463C223.824 231.793 222.774 235.643 219.554 237.693C216.804 239.443 212.964 239.563 208.154 238.033C207.837 237.919 207.502 237.87 207.166 237.889C206.831 237.909 206.503 237.995 206.202 238.144C205.901 238.292 205.633 238.5 205.414 238.754C205.195 239.009 205.029 239.305 204.927 239.625C204.825 239.945 204.788 240.282 204.819 240.617C204.85 240.951 204.948 241.276 205.107 241.571C205.267 241.867 205.484 242.127 205.746 242.337C206.008 242.547 206.31 242.702 206.634 242.793C209.092 243.615 211.662 244.057 214.254 244.103C217.081 244.156 219.862 243.381 222.254 241.873C224.968 240.047 227.023 237.397 228.114 234.313C230.696 235.842 233.623 236.695 236.624 236.793C237.635 236.797 238.642 236.676 239.624 236.433C244.164 235.293 247.694 231.633 250.104 225.543C250.224 225.235 250.283 224.906 250.276 224.576C250.268 224.245 250.196 223.919 250.062 223.617C249.928 223.315 249.735 223.042 249.495 222.815C249.255 222.588 248.973 222.41 248.664 222.293Z" fill="#383838"/>
<path d="M317.014 198.513C317.014 198.513 324.394 191.513 333.084 195.253C333.084 195.253 342.144 200.183 340.754 208.353C340.646 209.045 340.388 209.706 339.997 210.288C339.607 210.87 339.094 211.36 338.494 211.723C336.384 212.963 332.274 214.213 325.904 211.453C325.904 211.453 310.404 207.373 317.014 198.513Z" fill="white"/>
<path d="M349.284 189.073C346.434 185.023 336.284 177.323 326.554 177.393C326.554 177.393 315.184 176.003 302.854 195.163C302.754 195.303 302.664 195.45 302.584 195.603C300.214 199.783 265.454 264.383 258.814 277.273H298.814C307.214 269.273 344.524 233.443 352.894 204.853C354.514 199.493 352.494 193.633 349.284 189.073Z" fill="#383838"/>
<path d="M315.454 200.513C315.454 200.513 322.844 193.513 331.524 197.253C331.524 197.253 340.594 202.183 339.204 210.353C339.092 211.045 338.83 211.705 338.439 212.287C338.047 212.869 337.533 213.359 336.934 213.723C334.824 214.963 330.714 216.213 324.344 213.453C324.344 213.453 308.804 209.373 315.454 200.513Z" fill="white"/>
<path d="M340.835 195.102C341.892 193.848 341.817 192.046 340.669 191.078C339.52 190.11 337.732 190.342 336.675 191.597C335.618 192.851 335.692 194.653 336.841 195.621C337.99 196.589 339.778 196.357 340.835 195.102Z" fill="white"/>
<path d="M344.514 204.046C346.078 203.482 346.932 201.879 346.422 200.466C345.912 199.053 344.231 198.365 342.668 198.929C341.104 199.493 340.249 201.096 340.759 202.509C341.269 203.922 342.95 204.61 344.514 204.046Z" fill="white"/>
<path d="M332.731 189.475C333.049 187.871 332.112 186.334 330.638 186.042C329.165 185.75 327.712 186.813 327.395 188.417C327.077 190.021 328.014 191.557 329.487 191.849C330.961 192.141 332.413 191.078 332.731 189.475Z" fill="white"/>
<path d="M319.604 192.753C321.106 192.753 322.324 191.535 322.324 190.033C322.324 188.531 321.106 187.313 319.604 187.313C318.101 187.313 316.884 188.531 316.884 190.033C316.884 191.535 318.101 192.753 319.604 192.753Z" fill="white"/>
<path d="M332.452 72.9682L254.701 44.4384C246.924 41.5847 238.306 45.5759 235.452 53.3532L225.728 79.8553C222.874 87.6325 226.865 96.2507 234.642 99.1044L312.393 127.634C320.17 130.488 328.789 126.497 331.642 118.719L341.367 92.2173C344.221 84.4401 340.229 75.8219 332.452 72.9682Z" fill="#FFDA88"/>
<path d="M103.193 97.4679L52.5106 133.353C45.7495 138.14 44.1493 147.502 48.9364 154.263L59.072 168.578C63.8592 175.339 73.2209 176.939 79.982 172.152L130.664 136.267C137.425 131.48 139.025 122.118 134.238 115.357L124.103 101.042C119.316 94.281 109.954 92.6808 103.193 97.4679Z" fill="#CBD86C"/>
<path d="M173.654 36.2727H173.314C173.314 49.8727 165.254 60.9127 155.234 61.1527C165.234 61.4027 173.314 72.4427 173.314 86.0327H173.654C173.654 72.2927 181.894 61.1427 192.064 61.1427C181.894 61.1327 173.654 50.0227 173.654 36.2727Z" fill="#FFDA3E"/>
<path d="M371.064 204.893H370.854C370.854 213.453 365.774 220.413 359.464 220.563C365.774 220.713 370.854 227.673 370.854 236.233H371.064C371.064 227.573 376.254 220.563 382.664 220.563C376.254 220.573 371.064 213.553 371.064 204.893Z" fill="#FFDA3E"/>
<path d="M77.0937 212.033H76.8936C76.8936 220.233 72.0237 226.893 65.9937 227.033C71.9937 227.173 76.8936 233.833 76.8936 242.033H77.0937C77.0937 233.743 82.0937 227.033 88.1937 227.033C82.0637 227.043 77.0937 220.323 77.0937 212.033Z" fill="#FFDA3E"/>
<path d="M311.094 137.293H310.974C310.974 142.143 308.094 146.083 304.524 146.173C308.094 146.263 310.974 150.173 310.974 155.053H311.094C311.094 150.143 314.044 146.163 317.674 146.163C314.044 146.133 311.094 142.203 311.094 137.293Z" fill="#FFDA3E"/>
</svg>
