<svg width="351" height="311" viewBox="0 0 351 311" fill="none" xmlns="http://www.w3.org/2000/svg">
<g clip-path="url(#clip0)">
<path d="M149.801 95.2542L140.345 98.6669L147.131 117.451L120.262 127.084L113.49 108.355L63.3039 126.451L61.4595 121.345L65.8504 28.6231L93.6276 18.6188L90.2002 90.2864L106.924 84.2453L104.749 59.0213L123.593 52.2233L131.852 75.2456L141.309 71.8329L149.801 95.2542Z" fill="#387E4B"/>
<path d="M162.644 53.4892C166.195 18.0682 187.42 -2.68344 216.877 0.275188C246.333 3.23382 263.016 27.7973 259.465 63.2045C255.913 98.6117 234.688 119.363 205.218 116.405C175.748 113.446 159.092 88.8001 162.644 53.4892ZM229.113 60.2459C231.164 39.8795 225.782 27.7698 214.22 26.6139C202.658 25.4579 194.949 36.1503 192.94 56.5304C190.93 76.9105 196.202 88.8964 207.847 90.0661C219.492 91.2358 227.09 80.626 229.113 60.2459Z" fill="#387E4B"/>
<path d="M343.072 137.459L333.629 134.06L326.843 152.844L299.974 143.211L306.747 124.441L256.643 106.263L258.488 101.157L321.076 32.5997L348.77 42.6728L300.387 95.6529L317.111 101.68L331.551 80.8735L350.381 87.6715L342.122 110.694L351.565 114.093L343.072 137.459Z" fill="#387E4B"/>
<path d="M118.996 276.983C85.644 258.804 70.1587 240.227 70.1587 202.962C70.1587 145.895 118.872 97.8273 183.208 97.8273C247.544 97.8273 302.961 137.968 302.961 195.035C302.961 209.306 300.855 229.92 288.783 236.759L269.995 276.983" fill="white"/>
<path d="M269.926 278.111C269.422 278.107 268.924 277.995 268.467 277.781C266.746 276.983 266.196 277.244 267.008 275.524L286.278 234.241L287.242 233.704C295.253 229.163 299.63 215.416 299.63 194.994C299.63 169 287.393 145.097 265.218 127.689C243.443 110.625 214.289 101.213 183.305 101.213C153.408 101.213 125.603 111.946 105.025 131.487C84.8181 150.615 73.6963 176.004 73.6963 202.962C73.6963 236.456 86.002 255.034 120.744 273.955C121.141 274.172 121.491 274.465 121.774 274.817C122.058 275.169 122.27 275.574 122.397 276.008C122.524 276.442 122.564 276.896 122.516 277.346C122.467 277.795 122.331 278.231 122.114 278.627C121.897 279.024 121.604 279.374 121.252 279.657C120.899 279.941 120.495 280.152 120.061 280.279C119.627 280.407 119.172 280.447 118.722 280.398C118.273 280.35 117.837 280.213 117.441 279.996C86.1946 262.96 66.814 244.135 66.814 202.935C66.814 174.036 78.7066 146.913 100.29 126.464C122.148 105.823 151.632 94.3597 183.305 94.3597C215.886 94.3597 246.485 104.281 269.472 122.308C293.395 141.051 306.636 166.867 306.636 195.022C306.636 217.948 301.612 232.782 291.688 239.126L273.89 277.258C273.161 278.524 271.22 278.111 269.926 278.111Z" fill="#383838"/>
<path d="M231.674 112.978C218.418 109.359 216.533 93.8642 226.003 83.8324C234.771 74.4887 252.417 69.4108 269.334 79.0849C269.334 79.0849 294.248 92.3918 286.65 124.978C283.085 140.28 261.874 142.688 255.542 128.281C255.308 127.758 255.101 127.207 254.909 126.629C254.269 124.88 253.338 123.252 252.156 121.813C249.403 118.4 245.549 114.533 238.666 114.107C237.29 114.024 235.404 113.873 234.73 113.749C233.862 113.584 232.83 113.295 231.674 112.978Z" fill="#383838"/>
<path d="M266.252 184.365C274.175 181.026 278.893 174.277 276.79 169.29C274.687 164.304 266.56 162.969 258.638 166.308C250.715 169.648 245.997 176.397 248.1 181.383C250.202 186.369 258.33 187.704 266.252 184.365Z" fill="#FFC5C5"/>
<path d="M139.588 223.571C147.851 221.193 153.335 215.05 151.837 209.85C150.34 204.65 142.428 202.362 134.166 204.74C125.904 207.118 120.419 213.261 121.917 218.461C123.414 223.661 131.326 225.949 139.588 223.571Z" fill="#FFC5C5"/>
<path d="M86.4838 172.536C85.3688 186.228 70.4754 190.88 58.9543 183.545C48.1353 176.664 39.8902 160.261 46.2771 141.849C46.2771 141.849 54.7423 114.919 88.1906 116.35C103.882 117.038 110.214 137.5 97.1927 146.308C96.7109 146.638 96.2016 146.954 95.6786 147.243C94.0753 148.179 92.6457 149.385 91.4528 150.807C88.5897 154.083 85.5064 158.637 86.3598 165.49C86.525 166.867 86.7315 168.724 86.7315 169.426C86.7315 170.128 86.5801 171.339 86.4838 172.536Z" fill="#383838"/>
<path d="M219.258 170.087C219.258 170.087 211.316 157.702 219.01 147.711C219.01 147.711 232.101 133.056 249.073 152.225C249.073 152.225 259.795 161.858 255.157 174.559C254.231 177.147 252.561 179.404 250.357 181.046C248.153 182.689 245.513 183.644 242.768 183.793C236.244 184.151 226.058 182.802 219.258 170.087Z" fill="#383838"/>
<path d="M167.31 187.357C167.31 187.357 171.082 172.564 160.194 165.188C160.194 165.188 142.479 155.019 132.018 179.513C132.018 179.513 124.612 192.6 133.394 203.554C135.157 205.806 137.548 207.485 140.264 208.382C142.981 209.278 145.901 209.35 148.659 208.59C155.17 206.815 164.778 202.123 167.31 187.357Z" fill="#383838"/>
<path d="M153.421 195.173C157.222 195.173 160.304 192.093 160.304 188.293C160.304 184.493 157.222 181.412 153.421 181.412C149.62 181.412 146.539 184.493 146.539 188.293C146.539 192.093 149.62 195.173 153.421 195.173Z" fill="white"/>
<path d="M233.078 174.188C236.879 174.188 239.96 171.107 239.96 167.307C239.96 163.507 236.879 160.427 233.078 160.427C229.277 160.427 226.195 163.507 226.195 167.307C226.195 171.107 229.277 174.188 233.078 174.188Z" fill="white"/>
<path d="M240.125 202.577C239.705 202.41 239.256 202.327 238.804 202.335C238.352 202.342 237.906 202.438 237.491 202.619C237.077 202.799 236.702 203.06 236.389 203.385C236.075 203.711 235.83 204.096 235.666 204.517C233.215 210.696 229.967 214.342 226.03 215.347C220.524 216.723 214.798 213.007 212.775 211.549L210.215 203.141C212.679 199.515 214.539 195.514 215.72 191.292C216.519 188.32 213.945 188.086 213.945 188.086C203.718 186.531 193.188 191.416 190.366 193.673C189.996 193.954 189.735 194.354 189.627 194.806C189.519 195.257 189.571 195.732 189.774 196.15C190.377 197.14 191.129 198.031 192.004 198.792C195.075 201.432 198.583 203.518 202.369 204.957C202.814 205.169 203.274 205.348 203.745 205.494L206.292 213.819C205.92 215.65 204.475 220.948 200.056 223.769C196.257 226.177 190.971 226.342 184.351 224.236C183.914 224.073 183.448 224.001 182.982 224.023C182.517 224.046 182.06 224.163 181.641 224.367C181.222 224.571 180.848 224.858 180.543 225.211C180.239 225.564 180.009 225.975 179.868 226.419C179.727 226.864 179.677 227.332 179.723 227.796C179.769 228.26 179.908 228.71 180.133 229.119C180.358 229.527 180.664 229.886 181.031 230.172C181.399 230.459 181.821 230.668 182.272 230.787C185.655 231.921 189.193 232.529 192.761 232.589C196.653 232.664 200.481 231.597 203.773 229.521C207.506 227.005 210.333 223.359 211.839 219.117C215.411 221.229 219.46 222.403 223.608 222.53C224.999 222.537 226.386 222.371 227.737 222.035C233.986 220.466 238.845 215.429 242.162 207.049C242.327 206.622 242.405 206.166 242.392 205.709C242.378 205.252 242.273 204.801 242.084 204.385C241.894 203.968 241.623 203.594 241.287 203.283C240.95 202.973 240.556 202.733 240.125 202.577Z" fill="#383838"/>
<path d="M146.526 256.671C146.526 256.671 155.721 247.961 166.526 252.612C166.526 252.612 177.827 258.749 176.161 268.933C176.014 269.783 175.685 270.591 175.199 271.303C174.712 272.015 174.078 272.615 173.339 273.061C170.71 274.602 165.59 276.157 157.661 272.731C157.537 272.786 138.267 267.708 146.526 256.671Z" fill="white"/>
<path d="M186.691 244.961C183.14 239.924 170.462 230.333 158.391 230.429C158.391 230.429 144.24 228.695 128.879 252.543C128.759 252.72 128.649 252.904 128.549 253.093C125.589 258.295 82.313 338.701 74.0542 354.76H123.91C134.371 344.756 180.827 300.198 191.247 264.611C193.202 257.896 190.696 250.603 186.691 244.961Z" fill="#383838"/>
<path d="M144.571 259.162C144.571 259.162 153.766 250.451 164.571 255.103C164.571 255.103 175.872 261.24 174.137 271.423C173.996 272.267 173.678 273.071 173.203 273.782C172.729 274.494 172.109 275.097 171.384 275.552C168.755 277.093 163.649 278.648 155.706 275.221C155.638 275.235 136.284 270.198 144.571 259.162Z" fill="white"/>
<path d="M176.155 252.432C177.468 250.874 177.373 248.635 175.943 247.43C174.513 246.225 172.289 246.511 170.976 248.069C169.663 249.627 169.758 251.866 171.188 253.071C172.619 254.275 174.842 253.989 176.155 252.432Z" fill="white"/>
<path d="M180.718 263.557C182.663 262.856 183.725 260.861 183.09 259.103C182.456 257.344 180.364 256.487 178.419 257.189C176.474 257.89 175.412 259.885 176.047 261.643C176.681 263.402 178.773 264.259 180.718 263.557Z" fill="white"/>
<path d="M166.079 245.444C166.476 243.446 165.31 241.531 163.475 241.168C161.641 240.804 159.832 242.129 159.436 244.127C159.04 246.125 160.206 248.04 162.041 248.403C163.875 248.767 165.683 247.442 166.079 245.444Z" fill="white"/>
<path d="M149.733 249.502C151.603 249.502 153.119 247.986 153.119 246.116C153.119 244.247 151.603 242.731 149.733 242.731C147.863 242.731 146.347 244.247 146.347 246.116C146.347 247.986 147.863 249.502 149.733 249.502Z" fill="white"/>
<path d="M202.094 242.649C202.094 242.649 209.898 225.379 234.4 231.791L238.749 244.617L205.893 253.947L202.094 242.649Z" fill="#F97070"/>
<path d="M198.35 231.09L205.741 254.387L238.598 245.043L230.476 219.764" stroke="#383838" stroke-width="5" stroke-linecap="round" stroke-linejoin="round"/>
<path d="M274.537 243.488C274.537 243.488 265.342 234.777 254.537 239.36C254.537 239.36 243.25 245.497 244.902 255.68C245.049 256.53 245.378 257.339 245.864 258.051C246.351 258.763 246.985 259.363 247.724 259.809C250.353 261.35 255.473 262.905 263.402 259.479C263.526 259.602 282.796 254.593 274.537 243.488Z" fill="white"/>
<path d="M234.386 231.736C237.937 226.7 250.614 217.108 262.686 217.204C262.686 217.204 276.85 215.471 292.197 239.318C292.321 239.497 292.431 239.69 292.541 239.869C295.487 245.071 338.763 325.477 347.036 341.536H297.166C286.705 331.531 240.263 286.973 229.829 251.387C227.875 244.713 230.38 237.419 234.386 231.736Z" fill="#383838"/>
<path d="M276.505 245.979C276.505 245.979 267.311 237.268 256.505 241.851C256.505 241.851 245.204 247.988 246.939 258.171C247.08 259.015 247.398 259.819 247.873 260.53C248.347 261.242 248.967 261.845 249.692 262.3C252.321 263.841 257.441 265.396 265.37 261.969C265.439 262.093 284.792 257.015 276.505 245.979Z" fill="white"/>
<path d="M249.883 240.01C251.313 238.806 251.408 236.567 250.095 235.009C248.783 233.451 246.559 233.165 245.129 234.37C243.699 235.575 243.604 237.814 244.917 239.372C246.23 240.929 248.453 241.215 249.883 240.01Z" fill="white"/>
<path d="M245.066 248.536C245.701 246.778 244.639 244.783 242.694 244.082C240.749 243.38 238.657 244.237 238.023 245.995C237.388 247.754 238.45 249.749 240.395 250.45C242.34 251.152 244.432 250.295 245.066 248.536Z" fill="white"/>
<path d="M259.051 235.197C260.885 234.834 262.051 232.919 261.655 230.921C261.259 228.923 259.451 227.598 257.616 227.962C255.782 228.325 254.616 230.24 255.012 232.237C255.408 234.235 257.216 235.56 259.051 235.197Z" fill="white"/>
<path d="M271.344 236.319C273.214 236.319 274.73 234.803 274.73 232.934C274.73 231.064 273.214 229.548 271.344 229.548C269.474 229.548 267.958 231.064 267.958 232.934C267.958 234.803 269.474 236.319 271.344 236.319Z" fill="white"/>
<path d="M57.2062 152.844C57.2062 152.844 59.8078 189.917 100.689 199.549C100.689 199.549 72.719 218.677 77.1512 253.217C77.1512 253.217 50.3514 229.067 16.5866 238.699C16.5866 238.699 27.9837 197.967 0.0689211 186.848C9.75579e-05 186.958 48.328 194.54 57.2062 152.844Z" fill="#FFE75A"/>
<path d="M46.4561 219.269H57.1375V229.507H46.4561V219.269ZM46.6763 186.848H56.9585V215.746H46.6763V186.848Z" fill="white"/>
</g>
<defs>
<clipPath id="clip0">
<rect width="351" height="311" fill="white"/>
</clipPath>
</defs>
</svg>
