<svg width="270" height="277" viewBox="0 0 270 277" fill="none" xmlns="http://www.w3.org/2000/svg">
<g clip-path="url(#clip0)">
<path d="M92.0211 75.4028H83.9457V91.4468H60.9711V75.4028H18.0166V71.0395L46.6611 2.14491H70.4089L48.2566 55.4H62.5666L67.807 35.7281H83.9211V55.4H91.9966L92.0211 75.4028Z" fill="#E1EDE4"/>
<path d="M100.538 46.9061C100.538 18.2992 115.842 0 139.688 0C163.534 0 178.826 18.2992 178.826 46.9061C178.826 75.5131 163.448 93.8 139.688 93.8C115.928 93.8 100.538 75.4273 100.538 46.9061ZM154.317 46.9797C154.317 30.519 149.028 21.2407 139.688 21.2407C130.349 21.2407 125.084 30.4455 125.084 46.9061C125.084 63.3668 130.287 72.5225 139.713 72.5225C149.138 72.5225 154.305 63.4281 154.305 46.9797H154.317Z" fill="#E1EDE4"/>
<path d="M259.58 75.4028H251.493V91.4468H228.518V75.4028H185.563V71.0395L214.208 2.14491H237.993L215.902 55.4H230.138L235.378 35.7281H251.493V55.4H259.58V75.4028Z" fill="#E1EDE4"/>
<path d="M66.9479 247.302C37.2111 231.111 23.4043 214.516 23.4043 181.423C23.4043 130.594 66.8252 87.7943 124.2 87.7943C181.575 87.7943 230.973 123.547 230.973 174.375C230.973 187.085 229.095 205.434 218.332 211.525L201.592 247.351" fill="white"/>
<path d="M201.457 248.307C201.011 248.305 200.571 248.205 200.168 248.013C198.634 247.302 198.143 247.547 198.855 246.015L216.037 209.245L216.896 208.767C224.039 204.723 227.941 192.466 227.941 174.277C227.941 151.137 217.031 129.847 197.259 114.342C177.832 99.1317 151.85 90.7604 124.224 90.7604C97.5558 90.7604 72.7649 100.321 54.4172 117.725C36.4131 134.762 26.4967 157.363 26.4967 181.374C26.4967 211.206 37.4685 227.753 68.4326 244.618C68.797 244.804 69.1203 245.062 69.3836 245.375C69.6468 245.688 69.8447 246.051 69.9654 246.441C70.0862 246.832 70.1274 247.243 70.0867 247.65C70.046 248.057 69.9243 248.451 69.7285 248.81C69.5327 249.169 69.267 249.486 68.9469 249.741C68.6268 249.996 68.2589 250.184 67.8648 250.295C67.4707 250.405 67.0584 250.436 66.6521 250.385C66.2459 250.335 65.854 250.203 65.4994 249.999C37.6281 234.825 20.3604 218.046 20.3604 181.361C20.3604 155.623 30.9517 131.465 50.1953 113.264C69.6967 94.8174 95.9849 84.6689 124.224 84.6689C153.262 84.6689 180.544 93.5059 201.039 109.55C222.369 126.243 234.114 149.249 234.114 174.314C234.114 194.746 229.635 207.946 220.799 213.609L204.856 247.609C204.378 248.687 202.623 248.307 201.457 248.307Z" fill="#383838"/>
<path d="M167.351 101.24C155.532 98.0163 153.912 84.2031 162.294 75.2803C170.112 66.9458 185.846 62.4353 200.929 71.0517C200.929 71.0517 223.142 82.8917 216.38 111.928C213.201 125.545 194.216 127.702 188.631 114.869C188.435 114.391 188.239 113.901 188.067 113.398C187.505 111.837 186.674 110.385 185.612 109.109C183.158 106.057 179.721 102.625 173.573 102.233C172.346 102.159 170.676 102.024 170.063 101.914C169.449 101.804 168.381 101.522 167.351 101.24Z" fill="#383838"/>
<path d="M198.189 164.825C205.253 161.851 209.459 155.839 207.584 151.398C205.71 146.957 198.463 145.768 191.4 148.742C184.336 151.716 180.129 157.728 182.004 162.169C183.879 166.61 191.125 167.799 198.189 164.825Z" fill="#FFC5C5"/>
<path d="M85.2233 199.727C92.5901 197.609 97.4797 192.138 96.1446 187.506C94.8096 182.874 87.7553 180.837 80.3885 182.955C73.0218 185.073 68.1321 190.544 69.4672 195.176C70.8022 199.807 77.8565 201.845 85.2233 199.727Z" fill="#FFC5C5"/>
<path d="M37.9472 154.274C36.9531 166.531 23.6617 170.612 13.3281 164.08C3.69398 157.951 -3.65737 143.329 2.0249 126.942C2.0249 126.942 9.58488 102.944 39.3953 104.23C53.3985 104.831 59.0317 123.057 47.4217 130.913C46.9922 131.195 46.5503 131.477 46.084 131.734C44.654 132.572 43.3761 133.646 42.304 134.909C39.7512 137.838 37.0144 141.895 37.7631 147.987C37.9104 149.212 38.0944 150.879 38.1067 151.492C38.0699 152.264 37.9472 153.232 37.9472 154.274Z" fill="#383838"/>
<path d="M156.293 152.093C156.293 152.093 149.212 141.062 156.072 132.163C156.072 132.163 167.731 119.11 182.863 136.196C182.863 136.196 192.436 144.775 188.288 156.088C187.46 158.391 185.971 160.398 184.006 161.859C182.041 163.32 179.688 164.169 177.242 164.3C171.425 164.631 162.343 163.418 156.293 152.093Z" fill="#383838"/>
<path d="M109.963 167.475C109.963 167.475 113.338 154.299 103.631 147.729C103.631 147.729 87.8234 138.684 78.5084 160.501C78.5084 160.501 71.9056 172.144 79.7356 181.913C81.312 183.914 83.4436 185.406 85.8642 186.204C88.2848 187.001 90.8871 187.069 93.3461 186.399C99.1511 184.806 107.705 180.638 109.963 167.475Z" fill="#383838"/>
<path d="M97.5924 174.436C100.981 174.436 103.729 171.693 103.729 168.308C103.729 164.924 100.981 162.18 97.5924 162.18C94.2034 162.18 91.4561 164.924 91.4561 168.308C91.4561 171.693 94.2034 174.436 97.5924 174.436Z" fill="white"/>
<path d="M168.602 155.745C171.991 155.745 174.739 153.001 174.739 149.617C174.739 146.232 171.991 143.488 168.602 143.488C165.213 143.488 162.466 146.232 162.466 149.617C162.466 153.001 165.213 155.745 168.602 155.745Z" fill="white"/>
<path d="M174.898 181.043C174.523 180.894 174.123 180.82 173.72 180.825C173.316 180.83 172.918 180.915 172.547 181.075C172.177 181.234 171.842 181.465 171.561 181.754C171.279 182.043 171.058 182.384 170.909 182.759C168.725 188.274 165.828 191.522 162.318 192.405C157.409 193.63 152.292 190.333 150.5 189.022L148.217 181.545C150.417 178.318 152.076 174.753 153.126 170.992C153.85 168.345 151.555 168.124 151.555 168.124C142.424 166.752 133.036 171.09 130.52 173.1C130.199 173.354 129.972 173.708 129.876 174.106C129.78 174.504 129.821 174.923 129.992 175.294C130.536 176.175 131.211 176.969 131.993 177.648C134.732 179.995 137.859 181.849 141.234 183.126C141.625 183.329 142.036 183.49 142.461 183.604L144.719 191.02C144.388 192.65 143.112 197.369 139.16 199.881C135.773 202.038 131.072 202.173 125.169 200.298C124.781 200.159 124.369 200.099 123.958 200.122C123.546 200.146 123.143 200.252 122.774 200.434C122.404 200.616 122.075 200.871 121.806 201.183C121.537 201.495 121.334 201.858 121.209 202.25C121.083 202.642 121.039 203.055 121.077 203.465C121.115 203.875 121.235 204.273 121.431 204.635C121.626 204.997 121.893 205.317 122.214 205.574C122.536 205.831 122.907 206.021 123.303 206.132C126.319 207.147 129.474 207.689 132.655 207.738C136.123 207.799 139.533 206.854 142.474 205.017C145.782 202.769 148.288 199.528 149.628 195.763C152.796 197.644 156.39 198.689 160.073 198.803C161.313 198.808 162.55 198.66 163.754 198.361C169.326 196.976 173.646 192.478 176.604 185.014C176.754 184.641 176.828 184.243 176.823 183.842C176.818 183.44 176.734 183.044 176.576 182.675C176.417 182.306 176.188 181.972 175.9 181.692C175.612 181.412 175.271 181.191 174.898 181.043V181.043Z" fill="#383838"/>
<path d="M91.4199 229.224C91.4199 229.224 99.618 221.453 109.264 225.547C109.264 225.547 119.328 231.025 117.782 240.083C117.678 240.872 117.398 241.627 116.963 242.293C116.527 242.96 115.947 243.519 115.266 243.932C112.922 245.304 108.368 246.689 101.287 243.625C101.287 243.564 84.044 239.029 91.4199 229.224Z" fill="white"/>
<path d="M127.243 218.756C124.077 214.258 112.786 205.728 102.01 205.801C102.01 205.801 89.3941 204.269 75.6977 225.498L75.4032 226C72.7768 230.621 34.1913 302.249 26.8154 316.54H71.2673C80.5945 307.642 122.015 267.942 131.305 236.247C133.048 230.314 130.815 223.806 127.243 218.756Z" fill="#383838"/>
<path d="M89.6891 231.442C89.6891 231.442 97.8996 223.671 107.534 227.765C107.534 227.765 117.597 233.244 116.051 242.301C115.932 243.055 115.651 243.774 115.227 244.409C114.803 245.043 114.247 245.579 113.596 245.978C111.24 247.363 106.687 248.748 99.6177 245.684C99.5686 245.782 82.3132 241.26 89.6891 231.442Z" fill="white"/>
<path d="M117.874 225.446C119.044 224.059 118.959 222.064 117.684 220.991C116.409 219.918 114.427 220.173 113.256 221.56C112.086 222.948 112.17 224.942 113.445 226.015C114.72 227.088 116.703 226.833 117.874 225.446Z" fill="white"/>
<path d="M121.943 235.371C123.677 234.746 124.625 232.97 124.059 231.404C123.493 229.837 121.628 229.074 119.894 229.699C118.16 230.324 117.213 232.1 117.779 233.667C118.344 235.233 120.209 235.996 121.943 235.371Z" fill="white"/>
<path d="M108.869 219.206C109.222 217.426 108.183 215.721 106.547 215.397C104.911 215.074 103.299 216.254 102.946 218.033C102.593 219.813 103.633 221.518 105.268 221.842C106.904 222.165 108.516 220.985 108.869 219.206Z" fill="white"/>
<path d="M94.2916 222.826C95.959 222.826 97.3106 221.476 97.3106 219.811C97.3106 218.145 95.959 216.795 94.2916 216.795C92.6242 216.795 91.2725 218.145 91.2725 219.811C91.2725 221.476 92.6242 222.826 94.2916 222.826Z" fill="white"/>
<path d="M141.038 216.722C141.038 216.722 147.997 201.34 169.854 207.051L173.72 218.475L144.376 226.772L141.038 216.722Z" fill="#F97070"/>
<path d="M137.639 206.439L144.241 227.177L173.524 218.855L166.295 196.351" stroke="#383838" stroke-width="5" stroke-linecap="round" stroke-linejoin="round"/>
<path d="M205.604 217.482C205.604 217.482 197.406 209.711 187.76 213.805C187.76 213.805 177.696 219.283 179.243 228.341C179.364 229.11 179.652 229.842 180.087 230.488C180.521 231.134 181.092 231.677 181.759 232.079C184.103 233.452 188.656 234.837 195.737 231.773C195.737 231.822 212.993 227.312 205.604 217.482Z" fill="white"/>
<path d="M169.781 207.015C172.947 202.516 184.238 193.986 195.013 194.059C195.013 194.059 207.63 192.527 221.326 213.756L221.621 214.258C224.247 218.879 262.832 290.507 270.208 304.798H225.72C216.392 295.9 174.972 256.2 165.681 224.505C163.975 218.573 166.209 212.064 169.781 207.015Z" fill="#383838"/>
<path d="M207.311 219.7C207.311 219.7 199.1 211.93 189.466 216.023C189.466 216.023 179.402 221.502 180.949 230.56C181.069 231.313 181.351 232.031 181.775 232.665C182.198 233.3 182.754 233.836 183.403 234.237C185.76 235.622 190.313 237.007 197.382 233.942C197.492 234.04 214.674 229.518 207.311 219.7Z" fill="white"/>
<path d="M183.575 214.371C184.85 213.298 184.935 211.303 183.764 209.916C182.594 208.529 180.611 208.274 179.336 209.347C178.061 210.42 177.976 212.415 179.147 213.802C180.317 215.189 182.3 215.444 183.575 214.371Z" fill="white"/>
<path d="M179.283 221.982C179.849 220.415 178.902 218.639 177.168 218.014C175.434 217.389 173.569 218.152 173.003 219.719C172.437 221.285 173.384 223.061 175.119 223.686C176.853 224.311 178.717 223.548 179.283 221.982Z" fill="white"/>
<path d="M191.767 210.08C193.402 209.756 194.442 208.051 194.089 206.272C193.736 204.492 192.123 203.312 190.488 203.636C188.852 203.959 187.813 205.664 188.166 207.444C188.519 209.224 190.131 210.404 191.767 210.08Z" fill="white"/>
<path d="M202.733 211.084C204.4 211.084 205.752 209.734 205.752 208.069C205.752 206.403 204.4 205.054 202.733 205.054C201.066 205.054 199.714 206.403 199.714 208.069C199.714 209.734 201.066 211.084 202.733 211.084Z" fill="white"/>
</g>
<defs>
<clipPath id="clip0">
<rect width="270" height="277" fill="white"/>
</clipPath>
</defs>
</svg>
