<svg width="292" height="24" viewBox="0 0 292 24" fill="none" xmlns="http://www.w3.org/2000/svg">
<path d="M7.88109 2.2H0.729094V19H5.36109V14.368H7.88109C11.4571 14.368 14.1211 11.8 14.1211 8.272C14.1211 4.768 11.4571 2.2 7.88109 2.2ZM7.32909 10.336H5.36109V6.256H7.32909C8.55309 6.256 9.34509 7.096 9.34509 8.296C9.34509 9.496 8.55309 10.336 7.32909 10.336ZM15.9818 19H20.4458V1.36H15.9818V19ZM33.7115 6.04L33.2555 7.048C32.1995 6.16 30.8315 5.656 29.2955 5.656C25.3355 5.656 22.5035 8.512 22.5035 12.52C22.5035 16.552 25.3355 19.432 29.2955 19.432C30.8075 19.432 32.1515 18.952 33.2075 18.088L33.5915 19H37.0475V6.04H33.7115ZM29.8955 15.496C28.2155 15.496 26.9915 14.224 26.9915 12.52C26.9915 10.84 28.2155 9.592 29.8955 9.592C31.5755 9.592 32.7995 10.84 32.7995 12.52C32.7995 14.224 31.5755 15.496 29.8955 15.496ZM47.6887 5.68C46.0087 5.68 44.5687 6.304 43.6087 7.384L43.0087 6.04H39.8647V19H44.3287V12.088C44.3287 10.432 45.1207 9.472 46.5127 9.472C47.6407 9.472 48.2167 10.216 48.2167 11.728V19H52.6807V11.104C52.6807 7.816 50.6887 5.68 47.6887 5.68ZM71.3845 10.144C72.6565 9.352 73.4965 8.008 73.4965 6.52C73.4965 4.024 71.3125 2.224 68.3365 2.224H60.7525V19.024H68.5045C71.6005 19.024 73.9525 16.96 73.9525 14.224C73.9525 12.4 72.9685 10.888 71.3845 10.144ZM69.1045 7.288C69.1045 8.152 68.5045 8.752 67.5445 8.752H65.1925V5.824H67.5445C68.5045 5.824 69.1045 6.4 69.1045 7.288ZM67.7125 15.208H65.1925V12.16H67.7125C68.7205 12.16 69.3685 12.784 69.3685 13.672C69.3685 14.584 68.7205 15.208 67.7125 15.208ZM89.5133 12.4C89.5133 8.608 86.6333 5.632 82.4573 5.632C78.3773 5.632 75.4253 8.56 75.4253 12.52C75.4253 16.48 78.4013 19.432 82.4573 19.432C85.6973 19.432 88.3373 17.584 89.2493 14.632H84.7853C84.3773 15.4 83.4893 15.856 82.4573 15.856C81.0413 15.856 80.1053 15.088 79.8173 13.6H89.4413C89.4893 13.192 89.5133 12.808 89.5133 12.4ZM82.4573 9.136C83.8013 9.136 84.7373 9.832 85.1213 11.128H79.8893C80.2493 9.832 81.1613 9.136 82.4573 9.136ZM98.3888 15.112C97.4528 15.112 96.8768 14.536 96.8768 13.624V9.496H100.021V6.04H96.7808V2.272H95.8448L90.0368 8.44V9.496H92.4128V14.368C92.4128 17.248 94.1648 19 97.0208 19H100.093V15.112H98.3888ZM109.217 15.112C108.281 15.112 107.705 14.536 107.705 13.624V9.496H110.849V6.04H107.609V2.272H106.673L100.865 8.44V9.496H103.241V14.368C103.241 17.248 104.993 19 107.849 19H110.921V15.112H109.217ZM126.24 12.4C126.24 8.608 123.36 5.632 119.184 5.632C115.104 5.632 112.152 8.56 112.152 12.52C112.152 16.48 115.128 19.432 119.184 19.432C122.424 19.432 125.064 17.584 125.976 14.632H121.512C121.104 15.4 120.216 15.856 119.184 15.856C117.768 15.856 116.832 15.088 116.544 13.6H126.168C126.216 13.192 126.24 12.808 126.24 12.4ZM119.184 9.136C120.528 9.136 121.464 9.832 121.848 11.128H116.616C116.976 9.832 117.888 9.136 119.184 9.136ZM135.519 5.992C133.983 5.992 132.879 6.424 131.967 7.48L131.271 6.04H128.271V19H132.735V12.424C132.735 10.768 133.407 10.072 134.967 10.072H136.719V5.992H135.519ZM137.107 23.2C139.579 22.984 141.283 21.28 141.283 18.664V14.872H136.915V19H139.003C139.003 20.032 138.379 20.896 137.107 20.992V23.2ZM155.298 19.432C159.21 19.432 162.018 17.512 162.018 13.84C162.018 10.024 158.802 9.184 156.306 8.56C154.746 8.152 153.474 7.84 153.474 6.88C153.474 6.088 154.266 5.728 155.082 5.728C156.042 5.728 156.834 6.232 156.834 7.312H161.49C161.49 3.88 159.162 1.816 155.13 1.816C151.17 1.816 148.746 3.712 148.746 7.024C148.746 10.84 151.842 11.584 154.266 12.184C155.874 12.568 157.194 12.88 157.194 13.936C157.194 14.848 156.258 15.376 155.298 15.376C154.242 15.376 153.306 14.776 153.306 13.576H148.53C148.53 17.248 151.194 19.432 155.298 19.432ZM170.998 15.112C170.062 15.112 169.486 14.536 169.486 13.624V9.496H172.63V6.04H169.39V2.272H168.454L162.646 8.44V9.496H165.022V14.368C165.022 17.248 166.774 19 169.63 19H172.702V15.112H170.998ZM185.141 6.04L184.685 7.048C183.629 6.16 182.261 5.656 180.725 5.656C176.765 5.656 173.933 8.512 173.933 12.52C173.933 16.552 176.765 19.432 180.725 19.432C182.237 19.432 183.581 18.952 184.637 18.088L185.021 19H188.477V6.04H185.141ZM181.325 15.496C179.645 15.496 178.421 14.224 178.421 12.52C178.421 10.84 179.645 9.592 181.325 9.592C183.005 9.592 184.229 10.84 184.229 12.52C184.229 14.224 183.005 15.496 181.325 15.496ZM198.542 5.992C197.006 5.992 195.902 6.424 194.99 7.48L194.294 6.04H191.294V19H195.758V12.424C195.758 10.768 196.43 10.072 197.99 10.072H199.742V5.992H198.542ZM208.662 15.112C207.726 15.112 207.15 14.536 207.15 13.624V9.496H210.294V6.04H207.054V2.272H206.118L200.31 8.44V9.496H202.686V14.368C202.686 17.248 204.438 19 207.294 19H210.366V15.112H208.662ZM222.486 14.992V12.472H228.006V8.68H222.486V6.208H228.63V2.2H217.878V19H228.846V14.992H222.486ZM241.532 6.04L241.076 7.048C240.02 6.16 238.652 5.656 237.116 5.656C233.156 5.656 230.324 8.512 230.324 12.52C230.324 16.552 233.156 19.432 237.116 19.432C238.628 19.432 239.972 18.952 241.028 18.088L241.412 19H244.868V6.04H241.532ZM237.716 15.496C236.036 15.496 234.812 14.224 234.812 12.52C234.812 10.84 236.036 9.592 237.716 9.592C239.396 9.592 240.62 10.84 240.62 12.52C240.62 14.224 239.396 15.496 237.716 15.496ZM252.677 19.432C256.133 19.432 258.413 17.656 258.413 14.944C258.413 11.68 255.701 11.248 253.637 10.888C252.413 10.672 251.429 10.48 251.429 9.76C251.429 9.16 251.909 8.8 252.629 8.8C253.421 8.8 253.973 9.184 253.973 10H258.173C258.125 7.384 255.965 5.632 252.677 5.632C249.365 5.632 247.133 7.312 247.133 9.904C247.133 13.048 249.797 13.648 251.813 13.984C253.061 14.176 254.045 14.392 254.045 15.136C254.045 15.808 253.421 16.144 252.773 16.144C251.933 16.144 251.261 15.712 251.261 14.752H246.965C247.013 17.56 249.149 19.432 252.677 19.432ZM260.529 4.432H264.945V0.639999H260.529V4.432ZM260.505 19H264.969V6.04H260.505V19ZM281.115 12.4C281.115 8.608 278.235 5.632 274.059 5.632C269.979 5.632 267.027 8.56 267.027 12.52C267.027 16.48 270.003 19.432 274.059 19.432C277.299 19.432 279.939 17.584 280.851 14.632H276.387C275.979 15.4 275.091 15.856 274.059 15.856C272.643 15.856 271.707 15.088 271.419 13.6H281.043C281.091 13.192 281.115 12.808 281.115 12.4ZM274.059 9.136C275.403 9.136 276.339 9.832 276.723 11.128H271.491C271.851 9.832 272.763 9.136 274.059 9.136ZM290.394 5.992C288.858 5.992 287.754 6.424 286.842 7.48L286.146 6.04H283.146V19H287.61V12.424C287.61 10.768 288.282 10.072 289.842 10.072H291.594V5.992H290.394Z" fill="#191919"/>
</svg>
