<svg width="777" height="61" viewBox="0 0 777 61" fill="none" xmlns="http://www.w3.org/2000/svg">
<path d="M19.5163 4.2H0.44425V49H12.7963V36.648H19.5163C29.0522 36.648 36.1562 29.8 36.1562 20.392C36.1562 11.048 29.0522 4.2 19.5163 4.2ZM18.0443 25.896H12.7963V15.016H18.0443C21.3083 15.016 23.4203 17.256 23.4203 20.456C23.4203 23.656 21.3083 25.896 18.0443 25.896ZM41.1183 49H53.0223V1.96H41.1183V49ZM88.3973 14.44L87.1813 17.128C84.3653 14.76 80.7173 13.416 76.6213 13.416C66.0613 13.416 58.5093 21.032 58.5093 31.72C58.5093 42.472 66.0613 50.152 76.6213 50.152C80.6533 50.152 84.2373 48.872 87.0533 46.568L88.0773 49H97.2933V14.44H88.3973ZM78.2213 39.656C73.7413 39.656 70.4773 36.264 70.4773 31.72C70.4773 27.24 73.7413 23.912 78.2213 23.912C82.7013 23.912 85.9653 27.24 85.9653 31.72C85.9653 36.264 82.7013 39.656 78.2213 39.656ZM125.67 13.48C121.19 13.48 117.35 15.144 114.79 18.024L113.19 14.44H104.806V49H116.71V30.568C116.71 26.152 118.822 23.592 122.534 23.592C125.542 23.592 127.078 25.576 127.078 29.608V49H138.982V27.944C138.982 19.176 133.67 13.48 125.67 13.48ZM188.859 25.384C192.251 23.272 194.491 19.688 194.491 15.72C194.491 9.064 188.667 4.264 180.731 4.264H160.507V49.064H181.179C189.435 49.064 195.707 43.56 195.707 36.264C195.707 31.4 193.083 27.368 188.859 25.384ZM182.779 17.768C182.779 20.072 181.179 21.672 178.619 21.672H172.347V13.864H178.619C181.179 13.864 182.779 15.4 182.779 17.768ZM179.067 38.888H172.347V30.76H179.067C181.755 30.76 183.483 32.424 183.483 34.792C183.483 37.224 181.755 38.888 179.067 38.888ZM237.202 31.4C237.202 21.288 229.522 13.352 218.386 13.352C207.506 13.352 199.634 21.16 199.634 31.72C199.634 42.28 207.57 50.152 218.386 50.152C227.026 50.152 234.066 45.224 236.498 37.352H224.594C223.506 39.4 221.138 40.616 218.386 40.616C214.61 40.616 212.114 38.568 211.346 34.6H237.01C237.138 33.512 237.202 32.488 237.202 31.4ZM218.386 22.696C221.97 22.696 224.466 24.552 225.49 28.008H211.538C212.498 24.552 214.93 22.696 218.386 22.696ZM260.87 38.632C258.374 38.632 256.838 37.096 256.838 34.664V23.656H265.222V14.44H256.582V4.392H254.086L238.598 20.84V23.656H244.934V36.648C244.934 44.328 249.606 49 257.222 49H265.414V38.632H260.87ZM289.745 38.632C287.249 38.632 285.713 37.096 285.713 34.664V23.656H294.097V14.44H285.457V4.392H282.961L267.473 20.84V23.656H273.809V36.648C273.809 44.328 278.481 49 286.097 49H294.289V38.632H289.745ZM335.14 31.4C335.14 21.288 327.46 13.352 316.324 13.352C305.444 13.352 297.572 21.16 297.572 31.72C297.572 42.28 305.508 50.152 316.324 50.152C324.964 50.152 332.004 45.224 334.436 37.352H322.532C321.444 39.4 319.076 40.616 316.324 40.616C312.548 40.616 310.052 38.568 309.284 34.6H334.948C335.076 33.512 335.14 32.488 335.14 31.4ZM316.324 22.696C319.908 22.696 322.404 24.552 323.428 28.008H309.476C310.436 24.552 312.868 22.696 316.324 22.696ZM359.884 14.312C355.788 14.312 352.844 15.464 350.412 18.28L348.556 14.44H340.556V49H352.46V31.464C352.46 27.048 354.252 25.192 358.412 25.192H363.084V14.312H359.884ZM364.12 60.2C370.712 59.624 375.256 55.08 375.256 48.104V37.992H363.608V49H369.176C369.176 51.752 367.512 54.056 364.12 54.312V60.2ZM412.629 50.152C423.061 50.152 430.549 45.032 430.549 35.24C430.549 25.064 421.973 22.824 415.317 21.16C411.157 20.072 407.765 19.24 407.765 16.68C407.765 14.568 409.877 13.608 412.053 13.608C414.613 13.608 416.725 14.952 416.725 17.832H429.141C429.141 8.68 422.933 3.176 412.181 3.176C401.621 3.176 395.157 8.232 395.157 17.064C395.157 27.24 403.413 29.224 409.877 30.824C414.165 31.848 417.685 32.68 417.685 35.496C417.685 37.928 415.189 39.336 412.629 39.336C409.813 39.336 407.317 37.736 407.317 34.536H394.581C394.581 44.328 401.685 50.152 412.629 50.152ZM454.495 38.632C451.999 38.632 450.463 37.096 450.463 34.664V23.656H458.847V14.44H450.207V4.392H447.711L432.223 20.84V23.656H438.559V36.648C438.559 44.328 443.231 49 450.847 49H459.039V38.632H454.495ZM492.21 14.44L490.994 17.128C488.178 14.76 484.53 13.416 480.434 13.416C469.874 13.416 462.322 21.032 462.322 31.72C462.322 42.472 469.874 50.152 480.434 50.152C484.466 50.152 488.05 48.872 490.866 46.568L491.89 49H501.106V14.44H492.21ZM482.034 39.656C477.554 39.656 474.29 36.264 474.29 31.72C474.29 27.24 477.554 23.912 482.034 23.912C486.514 23.912 489.778 27.24 489.778 31.72C489.778 36.264 486.514 39.656 482.034 39.656ZM527.946 14.312C523.85 14.312 520.906 15.464 518.474 18.28L516.618 14.44H508.618V49H520.522V31.464C520.522 27.048 522.314 25.192 526.474 25.192H531.146V14.312H527.946ZM554.933 38.632C552.437 38.632 550.901 37.096 550.901 34.664V23.656H559.285V14.44H550.645V4.392H548.149L532.661 20.84V23.656H538.997V36.648C538.997 44.328 543.669 49 551.285 49H559.477V38.632H554.933ZM591.795 38.312V31.592H606.515V21.48H591.795V14.888H608.179V4.2H579.507V49H608.755V38.312H591.795ZM642.585 14.44L641.369 17.128C638.553 14.76 634.905 13.416 630.809 13.416C620.249 13.416 612.697 21.032 612.697 31.72C612.697 42.472 620.249 50.152 630.809 50.152C634.841 50.152 638.425 48.872 641.241 46.568L642.265 49H651.481V14.44H642.585ZM632.409 39.656C627.929 39.656 624.665 36.264 624.665 31.72C624.665 27.24 627.929 23.912 632.409 23.912C636.889 23.912 640.153 27.24 640.153 31.72C640.153 36.264 636.889 39.656 632.409 39.656ZM672.305 50.152C681.521 50.152 687.601 45.416 687.601 38.184C687.601 29.48 680.369 28.328 674.865 27.368C671.601 26.792 668.977 26.28 668.977 24.36C668.977 22.76 670.257 21.8 672.177 21.8C674.289 21.8 675.761 22.824 675.761 25H686.961C686.833 18.024 681.073 13.352 672.305 13.352C663.473 13.352 657.521 17.832 657.521 24.744C657.521 33.128 664.625 34.728 670.001 35.624C673.329 36.136 675.953 36.712 675.953 38.696C675.953 40.488 674.289 41.384 672.561 41.384C670.321 41.384 668.529 40.232 668.529 37.672H657.073C657.201 45.16 662.897 50.152 672.305 50.152ZM693.245 10.152H705.021V0.0399971H693.245V10.152ZM693.181 49H705.085V14.44H693.181V49ZM748.14 31.4C748.14 21.288 740.46 13.352 729.324 13.352C718.444 13.352 710.572 21.16 710.572 31.72C710.572 42.28 718.508 50.152 729.324 50.152C737.964 50.152 745.004 45.224 747.436 37.352H735.532C734.444 39.4 732.076 40.616 729.324 40.616C725.548 40.616 723.052 38.568 722.284 34.6H747.948C748.076 33.512 748.14 32.488 748.14 31.4ZM729.324 22.696C732.908 22.696 735.404 24.552 736.428 28.008H722.476C723.436 24.552 725.868 22.696 729.324 22.696ZM772.884 14.312C768.788 14.312 765.844 15.464 763.412 18.28L761.556 14.44H753.556V49H765.46V31.464C765.46 27.048 767.252 25.192 771.412 25.192H776.084V14.312H772.884Z" fill="#191919"/>
</svg>
