<svg width="181" height="22" viewBox="0 0 181 22" fill="none" xmlns="http://www.w3.org/2000/svg">
<path d="M13.1109 9.104C9.7989 8.144 7.9269 5.816 7.9269 3.392V3.272H12.4389V1.28H0.798904V3.272H5.4069V3.392C5.4069 6.08 3.4629 8.624 0.0549041 9.632L1.2309 11.552C3.8709 10.76 5.7429 9.08 6.7269 6.896C7.6869 8.816 9.4869 10.304 11.9589 11.024L13.1109 9.104ZM5.7429 17.744H17.2629V12.248H3.2709V14.144H14.8149V15.968H3.3189V21.656H17.9829V19.736H5.7429V17.744ZM17.2629 4.688V0.175999H14.7909V11.312H17.2629V6.728H20.3109V4.688H17.2629ZM32.741 13.904H30.221V14.456C30.221 17.048 27.413 19.232 23.117 19.832L24.029 21.728C27.461 21.224 30.149 19.736 31.493 17.576C32.813 19.736 35.501 21.224 38.957 21.728L39.869 19.832C35.525 19.232 32.741 17.048 32.741 14.456V13.904ZM26.597 3.008H36.365V6.488H26.597V3.008ZM32.717 10.712V8.48H38.789V1.04H24.173V8.48H30.245V10.712H21.677V12.68H41.309V10.712H32.717ZM60.9152 0.151999H58.4432V16.448H60.9152V0.151999ZM56.9072 11.264C55.1792 11.456 53.3552 11.576 51.4832 11.648V9.08H55.5392V7.064H47.4752V3.536H55.4192V1.52H45.0032V9.08H49.0112V11.744C46.9472 11.816 44.9312 11.84 43.1312 11.84L43.4672 13.832C47.4992 13.832 52.5152 13.712 57.0752 13.064L56.9072 11.264ZM49.1072 19.424V15.32H46.6352V21.44H61.5872V19.424H49.1072ZM81.9759 9.968C78.7359 8.84 76.8879 6.152 76.8879 3.464V3.344H81.3999V1.328H69.8079V3.344H74.3919V3.488C74.3919 6.392 72.4239 9.272 69.0639 10.424L70.3359 12.368C72.9039 11.48 74.7279 9.584 75.6879 7.256C76.6239 9.344 78.3519 11.048 80.7519 11.912L81.9759 9.968ZM84.5679 19.592H75.3999V17.264H84.5679V19.592ZM84.5679 15.32H75.3999V12.968H72.9519V21.584H87.0399V12.968H84.5679V15.32ZM84.5439 0.175999V5.24H80.7279V7.28H84.5439V12.008H87.0399V0.175999H84.5439ZM95.414 14.144H92.966V21.416H108.278V19.424H95.414V14.144ZM107.126 9.968C107.654 7.16 107.654 5.024 107.654 3.176V1.4H92.894V3.392H105.206C105.206 5.216 105.182 7.256 104.63 9.968H90.422V11.984H110.078V9.968H107.126ZM127.188 0.175999V11.816H129.66V0.175999H127.188ZM115.5 12.824V21.584H129.66V12.824H127.212V15.224H117.948V12.824H115.5ZM117.948 17.144H127.212V19.592H117.948V17.144ZM117.972 1.16C114.66 1.16 112.212 3.224 112.212 6.2C112.212 9.176 114.66 11.24 117.972 11.24C121.284 11.24 123.708 9.176 123.708 6.2C123.708 3.224 121.284 1.16 117.972 1.16ZM117.972 3.2C119.916 3.2 121.308 4.4 121.308 6.2C121.308 8.024 119.916 9.2 117.972 9.2C116.004 9.2 114.636 8.024 114.636 6.2C114.636 4.4 116.004 3.2 117.972 3.2ZM136.882 2.288H134.434V16.376H136.282C139.642 16.376 143.146 16.112 146.866 15.344L146.602 13.28C143.194 13.976 139.954 14.24 136.882 14.264V2.288ZM148.594 0.175999V21.848H151.066V0.175999H148.594ZM157.856 4.232H165.464V2.216H155.384V16.544H157.16C161.072 16.544 164 16.424 167.288 15.824L167.024 13.784C164 14.312 161.36 14.456 157.856 14.48V4.232ZM174.68 8.504H171.296V0.151999H168.824V21.872H171.296V10.544H174.68V8.504ZM177.847 14.36H179.695L180.079 4.76L180.175 1.928H177.391L177.463 4.76L177.847 14.36ZM178.759 20.312C179.815 20.312 180.631 19.52 180.631 18.392C180.631 17.264 179.815 16.424 178.759 16.424C177.727 16.424 176.935 17.264 176.935 18.392C176.935 19.52 177.727 20.312 178.759 20.312Z" fill="#767676"/>
</svg>
